G04 Layer: BottomSolderMaskLayer*
G04 EasyEDA v6.4.7, 2020-09-29T10:47:40+03:00*
G04 c168c89dab9346539a0f0a4d02725cba,e225996ff9fb4a0db64c6d6541834e49,10*
G04 Gerber Generator version 0.2*
G04 Scale: 100 percent, Rotated: No, Reflected: No *
G04 Dimensions in millimeters *
G04 leading zeros omitted , absolute positions ,3 integer and 3 decimal *
%FSLAX33Y33*%
%MOMM*%
G90*
D02*

%ADD26R,4.267200X1.727200*%
%ADD27C,1.397000*%
%ADD28C,2.082800*%

%LPD*%
G36*
G01X56100Y873D02*
G01X56100Y5140D01*
G01X57828Y5140D01*
G01X57828Y873D01*
G01X56100Y873D01*
G37*
G36*
G01X94863Y22717D02*
G01X94863Y24444D01*
G01X99131Y24444D01*
G01X99131Y22717D01*
G01X94863Y22717D01*
G37*
G36*
G01X80170Y26857D02*
G01X80170Y31125D01*
G01X81897Y31125D01*
G01X81897Y26857D01*
G01X80170Y26857D01*
G37*
G54D27*
G01X82476Y15930D03*
G01X85016Y15930D03*
G01X84386Y23619D03*
G01X84386Y21079D03*
G54D28*
G01X61930Y22138D03*
G01X69550Y22138D03*
G01X61902Y25961D03*
G01X69522Y25961D03*
G01X69550Y18328D03*
G01X61930Y18328D03*
G54D27*
G01X59220Y15857D03*
G01X59220Y18397D03*
G54D28*
G01X69550Y14518D03*
G01X61930Y14518D03*
G01X54302Y8387D03*
G01X54302Y16007D03*
G01X69550Y10708D03*
G01X61930Y10708D03*
G54D27*
G01X59209Y22367D03*
G01X59209Y24907D03*
G36*
G01X75658Y15224D02*
G01X75658Y16639D01*
G01X77073Y16639D01*
G01X77073Y15224D01*
G01X75658Y15224D01*
G37*
G36*
G01X78198Y17764D02*
G01X78198Y19179D01*
G01X79613Y19179D01*
G01X79613Y17764D01*
G01X78198Y17764D01*
G37*
G36*
G01X75658Y20304D02*
G01X75658Y21719D01*
G01X77073Y21719D01*
G01X77073Y20304D01*
G01X75658Y20304D01*
G37*
G54D28*
G01X50502Y13246D03*
G01X50502Y20866D03*
G36*
G01X53365Y22059D02*
G01X53365Y23939D01*
G01X55245Y23939D01*
G01X55245Y22059D01*
G01X53365Y22059D01*
G37*
G36*
G01X53365Y19900D02*
G01X53365Y21780D01*
G01X55245Y21780D01*
G01X55245Y19900D01*
G01X53365Y19900D01*
G37*
G36*
G01X53365Y17741D02*
G01X53365Y19621D01*
G01X55245Y19621D01*
G01X55245Y17741D01*
G01X53365Y17741D01*
G37*
G54D26*
G01X96997Y13390D03*
G01X96997Y18470D03*
G01X96997Y15930D03*
G54D28*
G01X73649Y10708D03*
G01X86349Y10708D03*
G01X89415Y26100D03*
G01X89415Y15930D03*
M00*
M02*
