G04 Layer: TopSilkLayer*
G04 EasyEDA v6.4.7, 2020-09-29T10:47:40+03:00*
G04 c168c89dab9346539a0f0a4d02725cba,e225996ff9fb4a0db64c6d6541834e49,10*
G04 Gerber Generator version 0.2*
G04 Scale: 100 percent, Rotated: No, Reflected: No *
G04 Dimensions in millimeters *
G04 leading zeros omitted , absolute positions ,3 integer and 3 decimal *
%FSLAX33Y33*%
%MOMM*%
G90*
D02*

%ADD10C,0.254000*%
%ADD11C,0.203200*%
%ADD23C,0.200660*%
%ADD24C,0.177800*%

%LPD*%
G54D23*
G01X86274Y17166D02*
G01X81194Y17166D01*
G01X81194Y14626D01*
G01X86274Y14626D01*
G01X86274Y17166D01*
G01X85647Y19780D02*
G01X85647Y24860D01*
G01X83107Y24860D01*
G01X83107Y19780D01*
G01X85647Y19780D01*
G54D10*
G01X63194Y22873D02*
G01X68274Y22873D01*
G01X68274Y22873D02*
G01X68274Y22111D01*
G01X68274Y22111D02*
G01X68274Y21349D01*
G01X68274Y21349D02*
G01X63194Y21349D01*
G01X63194Y21349D02*
G01X63194Y22111D01*
G01X63194Y22111D02*
G01X63194Y22873D01*
G01X68274Y22111D02*
G01X68528Y22111D01*
G01X63194Y22111D02*
G01X62940Y22111D01*
G01X63167Y26695D02*
G01X68247Y26695D01*
G01X68247Y26695D02*
G01X68247Y25933D01*
G01X68247Y25933D02*
G01X68247Y25171D01*
G01X68247Y25171D02*
G01X63167Y25171D01*
G01X63167Y25171D02*
G01X63167Y25933D01*
G01X63167Y25933D02*
G01X63167Y26695D01*
G01X68247Y25933D02*
G01X68501Y25933D01*
G01X63167Y25933D02*
G01X62913Y25933D01*
G01X68274Y17539D02*
G01X63194Y17539D01*
G01X63194Y17539D02*
G01X63194Y18301D01*
G01X63194Y18301D02*
G01X63194Y19063D01*
G01X63194Y19063D02*
G01X68274Y19063D01*
G01X68274Y19063D02*
G01X68274Y18301D01*
G01X68274Y18301D02*
G01X68274Y17539D01*
G01X63194Y18301D02*
G01X62940Y18301D01*
G01X68274Y18301D02*
G01X68528Y18301D01*
G54D23*
G01X57984Y19658D02*
G01X57984Y14578D01*
G01X60524Y14578D01*
G01X60524Y19658D01*
G01X57984Y19658D01*
G54D10*
G01X68274Y13729D02*
G01X63194Y13729D01*
G01X63194Y13729D02*
G01X63194Y14491D01*
G01X63194Y14491D02*
G01X63194Y15253D01*
G01X63194Y15253D02*
G01X68274Y15253D01*
G01X68274Y15253D02*
G01X68274Y14491D01*
G01X68274Y14491D02*
G01X68274Y13729D01*
G01X63194Y14491D02*
G01X62940Y14491D01*
G01X68274Y14491D02*
G01X68528Y14491D01*
G01X53532Y9631D02*
G01X53532Y14711D01*
G01X53532Y14711D02*
G01X54294Y14711D01*
G01X54294Y14711D02*
G01X55056Y14711D01*
G01X55056Y14711D02*
G01X55056Y9631D01*
G01X55056Y9631D02*
G01X54294Y9631D01*
G01X54294Y9631D02*
G01X53532Y9631D01*
G01X54294Y14711D02*
G01X54294Y14965D01*
G01X54294Y9631D02*
G01X54294Y9377D01*
G01X68275Y9918D02*
G01X63195Y9918D01*
G01X63195Y9918D02*
G01X63195Y10680D01*
G01X63195Y10680D02*
G01X63195Y11442D01*
G01X63195Y11442D02*
G01X68275Y11442D01*
G01X68275Y11442D02*
G01X68275Y10680D01*
G01X68275Y10680D02*
G01X68275Y9918D01*
G01X63195Y10680D02*
G01X62941Y10680D01*
G01X68275Y10680D02*
G01X68529Y10680D01*
G54D23*
G01X57976Y26174D02*
G01X57976Y21094D01*
G01X60516Y21094D01*
G01X60516Y26174D01*
G01X57976Y26174D01*
G54D10*
G01X72326Y14940D02*
G01X72859Y15473D01*
G01X73393Y14940D02*
G01X72859Y14407D01*
G01X72859Y14407D02*
G01X72326Y14940D01*
G01X49744Y14540D02*
G01X49744Y19620D01*
G01X49744Y19620D02*
G01X50506Y19620D01*
G01X50506Y19620D02*
G01X51268Y19620D01*
G01X51268Y19620D02*
G01X51268Y14540D01*
G01X51268Y14540D02*
G01X50506Y14540D01*
G01X50506Y14540D02*
G01X49744Y14540D01*
G01X50506Y19620D02*
G01X50506Y19874D01*
G01X50506Y14540D02*
G01X50506Y14286D01*
G01X52653Y22924D02*
G01X52653Y18758D01*
G01X54050Y23508D02*
G01X54050Y23101D01*
G01X54050Y18580D02*
G01X54050Y18174D01*
G01X75504Y9057D02*
G01X75504Y12359D01*
G01X75504Y12359D02*
G01X84495Y12359D01*
G01X84495Y12359D02*
G01X84495Y9057D01*
G01X84495Y9057D02*
G01X75504Y9057D01*
G01X88215Y24141D02*
G01X90603Y24141D01*
G01X90603Y24141D02*
G01X90603Y17842D01*
G01X90603Y17842D02*
G01X88215Y17842D01*
G01X88215Y17842D02*
G01X88215Y24141D01*
G54D24*
G01X93154Y23530D02*
G01X93050Y23426D01*
G01X93000Y23271D01*
G01X93000Y23063D01*
G01X93050Y22908D01*
G01X93154Y22804D01*
G01X93259Y22804D01*
G01X93363Y22855D01*
G01X93414Y22908D01*
G01X93467Y23012D01*
G01X93571Y23325D01*
G01X93622Y23426D01*
G01X93673Y23480D01*
G01X93777Y23530D01*
G01X93934Y23530D01*
G01X94038Y23426D01*
G01X94089Y23271D01*
G01X94089Y23063D01*
G01X94038Y22908D01*
G01X93934Y22804D01*
G01X93000Y23873D02*
G01X94089Y23873D01*
G01X93000Y24602D02*
G01X94089Y24602D01*
G01X93518Y23873D02*
G01X93518Y24602D01*
G01X93000Y24945D02*
G01X94089Y24945D01*
G01X93000Y25288D02*
G01X94089Y25288D01*
G01X93000Y25288D02*
G01X93000Y25964D01*
G01X93518Y25288D02*
G01X93518Y25702D01*
G01X94089Y25288D02*
G01X94089Y25964D01*
G01X93000Y26307D02*
G01X94089Y26307D01*
G01X94089Y26307D02*
G01X94089Y26929D01*
G01X93000Y27272D02*
G01X94089Y27272D01*
G01X93000Y27272D02*
G01X93000Y27635D01*
G01X93050Y27792D01*
G01X93154Y27897D01*
G01X93259Y27947D01*
G01X93414Y27998D01*
G01X93673Y27998D01*
G01X93830Y27947D01*
G01X93934Y27897D01*
G01X94038Y27792D01*
G01X94089Y27635D01*
G01X94089Y27272D01*
G01X59326Y4343D02*
G01X59222Y4447D01*
G01X59067Y4498D01*
G01X58859Y4498D01*
G01X58704Y4447D01*
G01X58600Y4343D01*
G01X58600Y4239D01*
G01X58650Y4135D01*
G01X58704Y4084D01*
G01X58808Y4031D01*
G01X59120Y3927D01*
G01X59222Y3876D01*
G01X59275Y3825D01*
G01X59326Y3721D01*
G01X59326Y3563D01*
G01X59222Y3459D01*
G01X59067Y3408D01*
G01X58859Y3408D01*
G01X58704Y3459D01*
G01X58600Y3563D01*
G01X59669Y4498D02*
G01X59669Y3408D01*
G01X60398Y4498D02*
G01X60398Y3408D01*
G01X59669Y3980D02*
G01X60398Y3980D01*
G01X60741Y4498D02*
G01X60741Y3408D01*
G01X61084Y4498D02*
G01X61084Y3408D01*
G01X61084Y4498D02*
G01X61759Y4498D01*
G01X61084Y3980D02*
G01X61498Y3980D01*
G01X61084Y3408D02*
G01X61759Y3408D01*
G01X62102Y4498D02*
G01X62102Y3408D01*
G01X62102Y3408D02*
G01X62725Y3408D01*
G01X63067Y4498D02*
G01X63067Y3408D01*
G01X63067Y4498D02*
G01X63431Y4498D01*
G01X63588Y4447D01*
G01X63692Y4343D01*
G01X63743Y4239D01*
G01X63794Y4084D01*
G01X63794Y3825D01*
G01X63743Y3668D01*
G01X63692Y3563D01*
G01X63588Y3459D01*
G01X63431Y3408D01*
G01X63067Y3408D01*
G01X83326Y28443D02*
G01X83222Y28547D01*
G01X83067Y28598D01*
G01X82859Y28598D01*
G01X82704Y28547D01*
G01X82600Y28443D01*
G01X82600Y28339D01*
G01X82650Y28235D01*
G01X82704Y28184D01*
G01X82808Y28131D01*
G01X83120Y28027D01*
G01X83222Y27976D01*
G01X83275Y27925D01*
G01X83326Y27821D01*
G01X83326Y27663D01*
G01X83222Y27559D01*
G01X83067Y27508D01*
G01X82859Y27508D01*
G01X82704Y27559D01*
G01X82600Y27663D01*
G01X83669Y28598D02*
G01X83669Y27508D01*
G01X84398Y28598D02*
G01X84398Y27508D01*
G01X83669Y28080D02*
G01X84398Y28080D01*
G01X84741Y28598D02*
G01X84741Y27508D01*
G01X85084Y28598D02*
G01X85084Y27508D01*
G01X85084Y28598D02*
G01X85759Y28598D01*
G01X85084Y28080D02*
G01X85498Y28080D01*
G01X85084Y27508D02*
G01X85759Y27508D01*
G01X86102Y28598D02*
G01X86102Y27508D01*
G01X86102Y27508D02*
G01X86724Y27508D01*
G01X87067Y28598D02*
G01X87067Y27508D01*
G01X87067Y28598D02*
G01X87431Y28598D01*
G01X87588Y28547D01*
G01X87692Y28443D01*
G01X87743Y28339D01*
G01X87794Y28184D01*
G01X87794Y27925D01*
G01X87743Y27768D01*
G01X87692Y27663D01*
G01X87588Y27559D01*
G01X87431Y27508D01*
G01X87067Y27508D01*
G54D11*
G01X2000Y29998D02*
G01X2000Y28543D01*
G01X2000Y29998D02*
G01X2900Y29998D01*
G01X2000Y29305D02*
G01X2554Y29305D01*
G01X3358Y29513D02*
G01X3358Y28543D01*
G01X3358Y29098D02*
G01X3427Y29305D01*
G01X3565Y29444D01*
G01X3704Y29513D01*
G01X3912Y29513D01*
G01X4369Y29098D02*
G01X5200Y29098D01*
G01X5200Y29236D01*
G01X5131Y29375D01*
G01X5062Y29444D01*
G01X4923Y29513D01*
G01X4715Y29513D01*
G01X4577Y29444D01*
G01X4438Y29305D01*
G01X4369Y29098D01*
G01X4369Y28959D01*
G01X4438Y28751D01*
G01X4577Y28613D01*
G01X4715Y28543D01*
G01X4923Y28543D01*
G01X5062Y28613D01*
G01X5200Y28751D01*
G01X6489Y29513D02*
G01X6489Y28059D01*
G01X6489Y29305D02*
G01X6350Y29444D01*
G01X6212Y29513D01*
G01X6004Y29513D01*
G01X5865Y29444D01*
G01X5727Y29305D01*
G01X5657Y29098D01*
G01X5657Y28959D01*
G01X5727Y28751D01*
G01X5865Y28613D01*
G01X6004Y28543D01*
G01X6212Y28543D01*
G01X6350Y28613D01*
G01X6489Y28751D01*
G01X6946Y29513D02*
G01X6946Y28821D01*
G01X7015Y28613D01*
G01X7154Y28543D01*
G01X7361Y28543D01*
G01X7500Y28613D01*
G01X7708Y28821D01*
G01X7708Y29513D02*
G01X7708Y28543D01*
G01X8165Y29098D02*
G01X8996Y29098D01*
G01X8996Y29236D01*
G01X8927Y29375D01*
G01X8858Y29444D01*
G01X8719Y29513D01*
G01X8511Y29513D01*
G01X8373Y29444D01*
G01X8234Y29305D01*
G01X8165Y29098D01*
G01X8165Y28959D01*
G01X8234Y28751D01*
G01X8373Y28613D01*
G01X8511Y28543D01*
G01X8719Y28543D01*
G01X8858Y28613D01*
G01X8996Y28751D01*
G01X9454Y29513D02*
G01X9454Y28543D01*
G01X9454Y29236D02*
G01X9661Y29444D01*
G01X9800Y29513D01*
G01X10008Y29513D01*
G01X10146Y29444D01*
G01X10216Y29236D01*
G01X10216Y28543D01*
G01X11504Y29305D02*
G01X11365Y29444D01*
G01X11227Y29513D01*
G01X11019Y29513D01*
G01X10881Y29444D01*
G01X10742Y29305D01*
G01X10673Y29098D01*
G01X10673Y28959D01*
G01X10742Y28751D01*
G01X10881Y28613D01*
G01X11019Y28543D01*
G01X11227Y28543D01*
G01X11365Y28613D01*
G01X11504Y28751D01*
G01X12030Y29513D02*
G01X12446Y28543D01*
G01X12862Y29513D02*
G01X12446Y28543D01*
G01X12308Y28266D01*
G01X12169Y28128D01*
G01X12030Y28059D01*
G01X11961Y28059D01*
G01X14386Y29513D02*
G01X14386Y28543D01*
G01X14386Y29098D02*
G01X14455Y29305D01*
G01X14594Y29444D01*
G01X14732Y29513D01*
G01X14940Y29513D01*
G01X16228Y29513D02*
G01X16228Y28543D01*
G01X16228Y29305D02*
G01X16090Y29444D01*
G01X15951Y29513D01*
G01X15743Y29513D01*
G01X15605Y29444D01*
G01X15466Y29305D01*
G01X15397Y29098D01*
G01X15397Y28959D01*
G01X15466Y28751D01*
G01X15605Y28613D01*
G01X15743Y28543D01*
G01X15951Y28543D01*
G01X16090Y28613D01*
G01X16228Y28751D01*
G01X16686Y29513D02*
G01X16686Y28543D01*
G01X16686Y29236D02*
G01X16893Y29444D01*
G01X17032Y29513D01*
G01X17240Y29513D01*
G01X17378Y29444D01*
G01X17448Y29236D01*
G01X17448Y28543D01*
G01X18736Y29513D02*
G01X18736Y28405D01*
G01X18667Y28197D01*
G01X18598Y28128D01*
G01X18459Y28059D01*
G01X18251Y28059D01*
G01X18113Y28128D01*
G01X18736Y29305D02*
G01X18598Y29444D01*
G01X18459Y29513D01*
G01X18251Y29513D01*
G01X18113Y29444D01*
G01X17974Y29305D01*
G01X17905Y29098D01*
G01X17905Y28959D01*
G01X17974Y28751D01*
G01X18113Y28613D01*
G01X18251Y28543D01*
G01X18459Y28543D01*
G01X18598Y28613D01*
G01X18736Y28751D01*
G01X19193Y29098D02*
G01X20025Y29098D01*
G01X20025Y29236D01*
G01X19955Y29375D01*
G01X19886Y29444D01*
G01X19747Y29513D01*
G01X19540Y29513D01*
G01X19401Y29444D01*
G01X19263Y29305D01*
G01X19193Y29098D01*
G01X19193Y28959D01*
G01X19263Y28751D01*
G01X19401Y28613D01*
G01X19540Y28543D01*
G01X19747Y28543D01*
G01X19886Y28613D01*
G01X20025Y28751D01*
G01X20551Y29375D02*
G01X20482Y29305D01*
G01X20551Y29236D01*
G01X20620Y29305D01*
G01X20551Y29375D01*
G01X20551Y28890D02*
G01X20482Y28821D01*
G01X20551Y28751D01*
G01X20620Y28821D01*
G01X20551Y28890D01*
G01X22144Y29721D02*
G01X22283Y29790D01*
G01X22491Y29998D01*
G01X22491Y28543D01*
G01X23363Y29998D02*
G01X23156Y29929D01*
G01X23017Y29721D01*
G01X22948Y29375D01*
G01X22948Y29167D01*
G01X23017Y28821D01*
G01X23156Y28613D01*
G01X23363Y28543D01*
G01X23502Y28543D01*
G01X23710Y28613D01*
G01X23848Y28821D01*
G01X23918Y29167D01*
G01X23918Y29375D01*
G01X23848Y29721D01*
G01X23710Y29929D01*
G01X23502Y29998D01*
G01X23363Y29998D01*
G01X24375Y29998D02*
G01X24375Y28543D01*
G01X25068Y29513D02*
G01X24375Y28821D01*
G01X24652Y29098D02*
G01X25137Y28543D01*
G01X25594Y29998D02*
G01X25594Y28543D01*
G01X26564Y29998D02*
G01X26564Y28543D01*
G01X25594Y29305D02*
G01X26564Y29305D01*
G01X27783Y29513D02*
G01X27021Y28543D01*
G01X27021Y29513D02*
G01X27783Y29513D01*
G01X27021Y28543D02*
G01X27783Y28543D01*
G01X29307Y29167D02*
G01X30554Y29167D01*
G01X32217Y29998D02*
G01X32979Y29998D01*
G01X32563Y29444D01*
G01X32771Y29444D01*
G01X32909Y29375D01*
G01X32979Y29305D01*
G01X33048Y29098D01*
G01X33048Y28959D01*
G01X32979Y28751D01*
G01X32840Y28613D01*
G01X32632Y28543D01*
G01X32424Y28543D01*
G01X32217Y28613D01*
G01X32147Y28682D01*
G01X32078Y28821D01*
G01X33921Y29998D02*
G01X33713Y29929D01*
G01X33574Y29721D01*
G01X33505Y29375D01*
G01X33505Y29167D01*
G01X33574Y28821D01*
G01X33713Y28613D01*
G01X33921Y28543D01*
G01X34059Y28543D01*
G01X34267Y28613D01*
G01X34406Y28821D01*
G01X34475Y29167D01*
G01X34475Y29375D01*
G01X34406Y29721D01*
G01X34267Y29929D01*
G01X34059Y29998D01*
G01X33921Y29998D01*
G01X34932Y29998D02*
G01X34932Y28543D01*
G01X34932Y29998D02*
G01X35486Y28543D01*
G01X36040Y29998D02*
G01X35486Y28543D01*
G01X36040Y29998D02*
G01X36040Y28543D01*
G01X36498Y29998D02*
G01X36498Y28543D01*
G01X37467Y29998D02*
G01X37467Y28543D01*
G01X36498Y29305D02*
G01X37467Y29305D01*
G01X38687Y29513D02*
G01X37925Y28543D01*
G01X37925Y29513D02*
G01X38687Y29513D01*
G01X37925Y28543D02*
G01X38687Y28543D01*
G01X2001Y27457D02*
G01X2001Y26004D01*
G01X2001Y27457D02*
G01X2623Y27457D01*
G01X2832Y27388D01*
G01X2903Y27320D01*
G01X2971Y27180D01*
G01X2971Y26972D01*
G01X2903Y26835D01*
G01X2832Y26766D01*
G01X2623Y26695D01*
G01X2001Y26695D01*
G01X3774Y26972D02*
G01X3637Y26903D01*
G01X3497Y26766D01*
G01X3429Y26558D01*
G01X3429Y26418D01*
G01X3497Y26210D01*
G01X3637Y26073D01*
G01X3774Y26004D01*
G01X3982Y26004D01*
G01X4122Y26073D01*
G01X4259Y26210D01*
G01X4328Y26418D01*
G01X4328Y26558D01*
G01X4259Y26766D01*
G01X4122Y26903D01*
G01X3982Y26972D01*
G01X3774Y26972D01*
G01X4785Y26972D02*
G01X5062Y26004D01*
G01X5341Y26972D02*
G01X5062Y26004D01*
G01X5341Y26972D02*
G01X5618Y26004D01*
G01X5895Y26972D02*
G01X5618Y26004D01*
G01X6352Y26558D02*
G01X7183Y26558D01*
G01X7183Y26695D01*
G01X7114Y26835D01*
G01X7043Y26903D01*
G01X6906Y26972D01*
G01X6697Y26972D01*
G01X6560Y26903D01*
G01X6421Y26766D01*
G01X6352Y26558D01*
G01X6352Y26418D01*
G01X6421Y26210D01*
G01X6560Y26073D01*
G01X6697Y26004D01*
G01X6906Y26004D01*
G01X7043Y26073D01*
G01X7183Y26210D01*
G01X7640Y26972D02*
G01X7640Y26004D01*
G01X7640Y26558D02*
G01X7708Y26766D01*
G01X7848Y26903D01*
G01X7985Y26972D01*
G01X8194Y26972D01*
G01X8719Y26835D02*
G01X8651Y26766D01*
G01X8719Y26695D01*
G01X8790Y26766D01*
G01X8719Y26835D01*
G01X8719Y26349D02*
G01X8651Y26281D01*
G01X8719Y26210D01*
G01X8790Y26281D01*
G01X8719Y26349D01*
G01X10314Y27457D02*
G01X10314Y26004D01*
G01X10314Y27457D02*
G01X10800Y27457D01*
G01X11005Y27388D01*
G01X11145Y27249D01*
G01X11214Y27111D01*
G01X11285Y26903D01*
G01X11285Y26558D01*
G01X11214Y26349D01*
G01X11145Y26210D01*
G01X11005Y26073D01*
G01X10800Y26004D01*
G01X10314Y26004D01*
G01X12781Y27111D02*
G01X12710Y27249D01*
G01X12573Y27388D01*
G01X12433Y27457D01*
G01X12156Y27457D01*
G01X12019Y27388D01*
G01X11879Y27249D01*
G01X11811Y27111D01*
G01X11742Y26903D01*
G01X11742Y26558D01*
G01X11811Y26349D01*
G01X11879Y26210D01*
G01X12019Y26073D01*
G01X12156Y26004D01*
G01X12433Y26004D01*
G01X12573Y26073D01*
G01X12710Y26210D01*
G01X12781Y26349D01*
G01X15135Y27457D02*
G01X14442Y27457D01*
G01X14373Y26835D01*
G01X14442Y26903D01*
G01X14650Y26972D01*
G01X14859Y26972D01*
G01X15067Y26903D01*
G01X15204Y26766D01*
G01X15273Y26558D01*
G01X15273Y26418D01*
G01X15204Y26210D01*
G01X15067Y26073D01*
G01X14859Y26004D01*
G01X14650Y26004D01*
G01X14442Y26073D01*
G01X14373Y26141D01*
G01X14305Y26281D01*
G01X16797Y26626D02*
G01X18044Y26626D01*
G01X19568Y27180D02*
G01X19707Y27249D01*
G01X19916Y27457D01*
G01X19916Y26004D01*
G01X20510Y27457D02*
G01X21272Y27457D01*
G01X20858Y26903D01*
G01X21064Y26903D01*
G01X21203Y26835D01*
G01X21272Y26766D01*
G01X21343Y26558D01*
G01X21343Y26418D01*
G01X21272Y26210D01*
G01X21135Y26073D01*
G01X20927Y26004D01*
G01X20718Y26004D01*
G01X20510Y26073D01*
G01X20441Y26141D01*
G01X20373Y26281D01*
G01X22867Y27457D02*
G01X23421Y26004D01*
G01X23975Y27457D02*
G01X23421Y26004D01*
G01X24569Y26281D02*
G01X24500Y26210D01*
G01X24432Y26281D01*
G01X24500Y26349D01*
G01X24569Y26281D01*
G01X24569Y26141D01*
G01X24432Y26004D01*
G01X26093Y27180D02*
G01X26233Y27249D01*
G01X26441Y27457D01*
G01X26441Y26004D01*
G01X27312Y27457D02*
G01X27106Y27388D01*
G01X26967Y27180D01*
G01X26898Y26835D01*
G01X26898Y26626D01*
G01X26967Y26281D01*
G01X27106Y26073D01*
G01X27312Y26004D01*
G01X27452Y26004D01*
G01X27660Y26073D01*
G01X27797Y26281D01*
G01X27868Y26626D01*
G01X27868Y26835D01*
G01X27797Y27180D01*
G01X27660Y27388D01*
G01X27452Y27457D01*
G01X27312Y27457D01*
G01X28740Y27457D02*
G01X28531Y27388D01*
G01X28394Y27180D01*
G01X28326Y26835D01*
G01X28326Y26626D01*
G01X28394Y26281D01*
G01X28531Y26073D01*
G01X28740Y26004D01*
G01X28879Y26004D01*
G01X29088Y26073D01*
G01X29225Y26281D01*
G01X29293Y26626D01*
G01X29293Y26835D01*
G01X29225Y27180D01*
G01X29088Y27388D01*
G01X28879Y27457D01*
G01X28740Y27457D01*
G01X29751Y26972D02*
G01X29751Y26004D01*
G01X29751Y26695D02*
G01X29959Y26903D01*
G01X30099Y26972D01*
G01X30307Y26972D01*
G01X30444Y26903D01*
G01X30513Y26695D01*
G01X30513Y26004D01*
G01X30513Y26695D02*
G01X30721Y26903D01*
G01X30861Y26972D01*
G01X31069Y26972D01*
G01X31206Y26903D01*
G01X31275Y26695D01*
G01X31275Y26004D01*
G01X32288Y27457D02*
G01X31732Y26004D01*
G01X32288Y27457D02*
G01X32842Y26004D01*
G01X31940Y26487D02*
G01X32633Y26487D01*
G01X2000Y24918D02*
G01X2000Y23463D01*
G01X2000Y24918D02*
G01X2900Y24918D01*
G01X2000Y24225D02*
G01X2554Y24225D01*
G01X3357Y24018D02*
G01X4189Y24018D01*
G01X4189Y24156D01*
G01X4119Y24295D01*
G01X4050Y24364D01*
G01X3912Y24433D01*
G01X3704Y24433D01*
G01X3565Y24364D01*
G01X3427Y24225D01*
G01X3357Y24018D01*
G01X3357Y23879D01*
G01X3427Y23671D01*
G01X3565Y23533D01*
G01X3704Y23463D01*
G01X3912Y23463D01*
G01X4050Y23533D01*
G01X4189Y23671D01*
G01X4646Y24018D02*
G01X5477Y24018D01*
G01X5477Y24156D01*
G01X5408Y24295D01*
G01X5339Y24364D01*
G01X5200Y24433D01*
G01X4992Y24433D01*
G01X4854Y24364D01*
G01X4715Y24225D01*
G01X4646Y24018D01*
G01X4646Y23879D01*
G01X4715Y23671D01*
G01X4854Y23533D01*
G01X4992Y23463D01*
G01X5200Y23463D01*
G01X5339Y23533D01*
G01X5477Y23671D01*
G01X6766Y24918D02*
G01X6766Y23463D01*
G01X6766Y24225D02*
G01X6627Y24364D01*
G01X6489Y24433D01*
G01X6281Y24433D01*
G01X6142Y24364D01*
G01X6004Y24225D01*
G01X5934Y24018D01*
G01X5934Y23879D01*
G01X6004Y23671D01*
G01X6142Y23533D01*
G01X6281Y23463D01*
G01X6489Y23463D01*
G01X6627Y23533D01*
G01X6766Y23671D01*
G01X8290Y24918D02*
G01X8290Y23463D01*
G01X8747Y24918D02*
G01X8816Y24849D01*
G01X8885Y24918D01*
G01X8816Y24987D01*
G01X8747Y24918D01*
G01X8816Y24433D02*
G01X8816Y23463D01*
G01X9343Y24433D02*
G01X9343Y23463D01*
G01X9343Y24156D02*
G01X9550Y24364D01*
G01X9689Y24433D01*
G01X9897Y24433D01*
G01X10035Y24364D01*
G01X10105Y24156D01*
G01X10105Y23463D01*
G01X10562Y24018D02*
G01X11393Y24018D01*
G01X11393Y24156D01*
G01X11324Y24295D01*
G01X11254Y24364D01*
G01X11116Y24433D01*
G01X10908Y24433D01*
G01X10770Y24364D01*
G01X10631Y24225D01*
G01X10562Y24018D01*
G01X10562Y23879D01*
G01X10631Y23671D01*
G01X10770Y23533D01*
G01X10908Y23463D01*
G01X11116Y23463D01*
G01X11254Y23533D01*
G01X11393Y23671D01*
G01X11920Y24295D02*
G01X11850Y24225D01*
G01X11920Y24156D01*
G01X11989Y24225D01*
G01X11920Y24295D01*
G01X11920Y23810D02*
G01X11850Y23740D01*
G01X11920Y23671D01*
G01X11989Y23740D01*
G01X11920Y23810D01*
G01X14344Y24918D02*
G01X13651Y24918D01*
G01X13582Y24295D01*
G01X13651Y24364D01*
G01X13859Y24433D01*
G01X14067Y24433D01*
G01X14275Y24364D01*
G01X14413Y24225D01*
G01X14483Y24018D01*
G01X14483Y23879D01*
G01X14413Y23671D01*
G01X14275Y23533D01*
G01X14067Y23463D01*
G01X13859Y23463D01*
G01X13651Y23533D01*
G01X13582Y23602D01*
G01X13513Y23740D01*
G01X15356Y24918D02*
G01X15148Y24849D01*
G01X15009Y24641D01*
G01X14940Y24295D01*
G01X14940Y24087D01*
G01X15009Y23740D01*
G01X15148Y23533D01*
G01X15356Y23463D01*
G01X15494Y23463D01*
G01X15702Y23533D01*
G01X15840Y23740D01*
G01X15910Y24087D01*
G01X15910Y24295D01*
G01X15840Y24641D01*
G01X15702Y24849D01*
G01X15494Y24918D01*
G01X15356Y24918D01*
G01X17849Y24918D02*
G01X17711Y24849D01*
G01X17572Y24710D01*
G01X17503Y24572D01*
G01X17434Y24364D01*
G01X17434Y24018D01*
G01X17503Y23810D01*
G01X17572Y23671D01*
G01X17711Y23533D01*
G01X17849Y23463D01*
G01X18126Y23463D01*
G01X18265Y23533D01*
G01X18404Y23671D01*
G01X18473Y23810D01*
G01X18542Y24018D01*
G01X18542Y24364D01*
G01X18473Y24572D01*
G01X18404Y24710D01*
G01X18265Y24849D01*
G01X18126Y24918D01*
G01X17849Y24918D01*
G01X18999Y24918D02*
G01X18999Y23463D01*
G01X18999Y24156D02*
G01X19207Y24364D01*
G01X19346Y24433D01*
G01X19553Y24433D01*
G01X19692Y24364D01*
G01X19761Y24156D01*
G01X19761Y23463D01*
G01X20218Y24433D02*
G01X20218Y23463D01*
G01X20218Y24156D02*
G01X20426Y24364D01*
G01X20565Y24433D01*
G01X20773Y24433D01*
G01X20911Y24364D01*
G01X20980Y24156D01*
G01X20980Y23463D01*
G01X20980Y24156D02*
G01X21188Y24364D01*
G01X21327Y24433D01*
G01X21535Y24433D01*
G01X21673Y24364D01*
G01X21742Y24156D01*
G01X21742Y23463D01*
G01X24098Y24225D02*
G01X23959Y24364D01*
G01X23821Y24433D01*
G01X23613Y24433D01*
G01X23474Y24364D01*
G01X23336Y24225D01*
G01X23266Y24018D01*
G01X23266Y23879D01*
G01X23336Y23671D01*
G01X23474Y23533D01*
G01X23613Y23463D01*
G01X23821Y23463D01*
G01X23959Y23533D01*
G01X24098Y23671D01*
G01X24901Y24433D02*
G01X24763Y24364D01*
G01X24624Y24225D01*
G01X24555Y24018D01*
G01X24555Y23879D01*
G01X24624Y23671D01*
G01X24763Y23533D01*
G01X24901Y23463D01*
G01X25109Y23463D01*
G01X25248Y23533D01*
G01X25386Y23671D01*
G01X25455Y23879D01*
G01X25455Y24018D01*
G01X25386Y24225D01*
G01X25248Y24364D01*
G01X25109Y24433D01*
G01X24901Y24433D01*
G01X26744Y24433D02*
G01X26744Y23463D01*
G01X26744Y24225D02*
G01X26605Y24364D01*
G01X26467Y24433D01*
G01X26259Y24433D01*
G01X26121Y24364D01*
G01X25982Y24225D01*
G01X25913Y24018D01*
G01X25913Y23879D01*
G01X25982Y23671D01*
G01X26121Y23533D01*
G01X26259Y23463D01*
G01X26467Y23463D01*
G01X26605Y23533D01*
G01X26744Y23671D01*
G01X27201Y24433D02*
G01X27963Y23463D01*
G01X27963Y24433D02*
G01X27201Y23463D01*
G01X28420Y24918D02*
G01X28490Y24849D01*
G01X28559Y24918D01*
G01X28490Y24987D01*
G01X28420Y24918D01*
G01X28490Y24433D02*
G01X28490Y23463D01*
G01X29847Y24433D02*
G01X29847Y23463D01*
G01X29847Y24225D02*
G01X29709Y24364D01*
G01X29570Y24433D01*
G01X29362Y24433D01*
G01X29224Y24364D01*
G01X29085Y24225D01*
G01X29016Y24018D01*
G01X29016Y23879D01*
G01X29085Y23671D01*
G01X29224Y23533D01*
G01X29362Y23463D01*
G01X29570Y23463D01*
G01X29709Y23533D01*
G01X29847Y23671D01*
G01X30304Y24918D02*
G01X30304Y23463D01*
G01X32660Y24225D02*
G01X32521Y24364D01*
G01X32383Y24433D01*
G01X32175Y24433D01*
G01X32037Y24364D01*
G01X31898Y24225D01*
G01X31828Y24018D01*
G01X31828Y23879D01*
G01X31898Y23671D01*
G01X32037Y23533D01*
G01X32175Y23463D01*
G01X32383Y23463D01*
G01X32521Y23533D01*
G01X32660Y23671D01*
G01X33948Y24433D02*
G01X33948Y23463D01*
G01X33948Y24225D02*
G01X33810Y24364D01*
G01X33671Y24433D01*
G01X33463Y24433D01*
G01X33325Y24364D01*
G01X33186Y24225D01*
G01X33117Y24018D01*
G01X33117Y23879D01*
G01X33186Y23671D01*
G01X33325Y23533D01*
G01X33463Y23463D01*
G01X33671Y23463D01*
G01X33810Y23533D01*
G01X33948Y23671D01*
G01X34406Y24918D02*
G01X34406Y23463D01*
G01X34406Y24225D02*
G01X34544Y24364D01*
G01X34683Y24433D01*
G01X34890Y24433D01*
G01X35029Y24364D01*
G01X35168Y24225D01*
G01X35237Y24018D01*
G01X35237Y23879D01*
G01X35168Y23671D01*
G01X35029Y23533D01*
G01X34890Y23463D01*
G01X34683Y23463D01*
G01X34544Y23533D01*
G01X34406Y23671D01*
G01X35694Y24918D02*
G01X35694Y23463D01*
G01X36151Y24018D02*
G01X36982Y24018D01*
G01X36982Y24156D01*
G01X36913Y24295D01*
G01X36844Y24364D01*
G01X36705Y24433D01*
G01X36498Y24433D01*
G01X36359Y24364D01*
G01X36220Y24225D01*
G01X36151Y24018D01*
G01X36151Y23879D01*
G01X36220Y23671D01*
G01X36359Y23533D01*
G01X36498Y23463D01*
G01X36705Y23463D01*
G01X36844Y23533D01*
G01X36982Y23671D01*
G01X2001Y3830D02*
G01X2001Y2374D01*
G01X2001Y3068D02*
G01X2207Y3276D01*
G01X2346Y3345D01*
G01X2555Y3345D01*
G01X2692Y3276D01*
G01X2763Y3068D01*
G01X2763Y2374D01*
G01X3426Y3830D02*
G01X3426Y2651D01*
G01X3497Y2443D01*
G01X3634Y2374D01*
G01X3774Y2374D01*
G01X3220Y3345D02*
G01X3703Y3345D01*
G01X4439Y3830D02*
G01X4439Y2651D01*
G01X4508Y2443D01*
G01X4645Y2374D01*
G01X4785Y2374D01*
G01X4231Y3345D02*
G01X4716Y3345D01*
G01X5242Y3345D02*
G01X5242Y1889D01*
G01X5242Y3136D02*
G01X5379Y3276D01*
G01X5519Y3345D01*
G01X5727Y3345D01*
G01X5864Y3276D01*
G01X6004Y3136D01*
G01X6073Y2928D01*
G01X6073Y2791D01*
G01X6004Y2583D01*
G01X5864Y2443D01*
G01X5727Y2374D01*
G01X5519Y2374D01*
G01X5379Y2443D01*
G01X5242Y2583D01*
G01X7292Y3136D02*
G01X7223Y3276D01*
G01X7015Y3345D01*
G01X6807Y3345D01*
G01X6598Y3276D01*
G01X6530Y3136D01*
G01X6598Y2999D01*
G01X6738Y2928D01*
G01X7084Y2860D01*
G01X7223Y2791D01*
G01X7292Y2651D01*
G01X7292Y2583D01*
G01X7223Y2443D01*
G01X7015Y2374D01*
G01X6807Y2374D01*
G01X6598Y2443D01*
G01X6530Y2583D01*
G01X7818Y3205D02*
G01X7749Y3136D01*
G01X7818Y3068D01*
G01X7889Y3136D01*
G01X7818Y3205D01*
G01X7818Y2722D02*
G01X7749Y2651D01*
G01X7818Y2583D01*
G01X7889Y2651D01*
G01X7818Y2722D01*
G01X9593Y4107D02*
G01X8346Y1889D01*
G01X11297Y4107D02*
G01X10050Y1889D01*
G01X12585Y3345D02*
G01X12585Y2237D01*
G01X12517Y2029D01*
G01X12446Y1960D01*
G01X12308Y1889D01*
G01X12100Y1889D01*
G01X11960Y1960D01*
G01X12585Y3136D02*
G01X12446Y3276D01*
G01X12308Y3345D01*
G01X12100Y3345D01*
G01X11960Y3276D01*
G01X11823Y3136D01*
G01X11755Y2928D01*
G01X11755Y2791D01*
G01X11823Y2583D01*
G01X11960Y2443D01*
G01X12100Y2374D01*
G01X12308Y2374D01*
G01X12446Y2443D01*
G01X12585Y2583D01*
G01X13042Y3830D02*
G01X13111Y3761D01*
G01X13180Y3830D01*
G01X13111Y3898D01*
G01X13042Y3830D01*
G01X13111Y3345D02*
G01X13111Y2374D01*
G01X13845Y3830D02*
G01X13845Y2651D01*
G01X13914Y2443D01*
G01X14053Y2374D01*
G01X14193Y2374D01*
G01X13637Y3345D02*
G01X14122Y3345D01*
G01X14650Y3830D02*
G01X14650Y2374D01*
G01X14650Y3068D02*
G01X14856Y3276D01*
G01X14996Y3345D01*
G01X15204Y3345D01*
G01X15341Y3276D01*
G01X15412Y3068D01*
G01X15412Y2374D01*
G01X15869Y3345D02*
G01X15869Y2651D01*
G01X15938Y2443D01*
G01X16075Y2374D01*
G01X16283Y2374D01*
G01X16423Y2443D01*
G01X16631Y2651D01*
G01X16631Y3345D02*
G01X16631Y2374D01*
G01X17089Y3830D02*
G01X17089Y2374D01*
G01X17089Y3136D02*
G01X17226Y3276D01*
G01X17365Y3345D01*
G01X17571Y3345D01*
G01X17711Y3276D01*
G01X17851Y3136D01*
G01X17919Y2928D01*
G01X17919Y2791D01*
G01X17851Y2583D01*
G01X17711Y2443D01*
G01X17571Y2374D01*
G01X17365Y2374D01*
G01X17226Y2443D01*
G01X17089Y2583D01*
G01X18445Y2722D02*
G01X18376Y2651D01*
G01X18445Y2583D01*
G01X18514Y2651D01*
G01X18445Y2722D01*
G01X19804Y3136D02*
G01X19664Y3276D01*
G01X19527Y3345D01*
G01X19319Y3345D01*
G01X19179Y3276D01*
G01X19042Y3136D01*
G01X18971Y2928D01*
G01X18971Y2791D01*
G01X19042Y2583D01*
G01X19179Y2443D01*
G01X19319Y2374D01*
G01X19527Y2374D01*
G01X19664Y2443D01*
G01X19804Y2583D01*
G01X20607Y3345D02*
G01X20467Y3276D01*
G01X20330Y3136D01*
G01X20261Y2928D01*
G01X20261Y2791D01*
G01X20330Y2583D01*
G01X20467Y2443D01*
G01X20607Y2374D01*
G01X20815Y2374D01*
G01X20952Y2443D01*
G01X21092Y2583D01*
G01X21160Y2791D01*
G01X21160Y2928D01*
G01X21092Y3136D01*
G01X20952Y3276D01*
G01X20815Y3345D01*
G01X20607Y3345D01*
G01X21617Y3345D02*
G01X21617Y2374D01*
G01X21617Y3068D02*
G01X21826Y3276D01*
G01X21965Y3345D01*
G01X22171Y3345D01*
G01X22311Y3276D01*
G01X22379Y3068D01*
G01X22379Y2374D01*
G01X22379Y3068D02*
G01X22588Y3276D01*
G01X22727Y3345D01*
G01X22933Y3345D01*
G01X23073Y3276D01*
G01X23141Y3068D01*
G01X23141Y2374D01*
G01X24846Y4107D02*
G01X23599Y1889D01*
G01X25303Y3830D02*
G01X25303Y2374D01*
G01X26591Y3345D02*
G01X26591Y2237D01*
G01X26522Y2029D01*
G01X26454Y1960D01*
G01X26314Y1889D01*
G01X26106Y1889D01*
G01X25968Y1960D01*
G01X26591Y3136D02*
G01X26454Y3276D01*
G01X26314Y3345D01*
G01X26106Y3345D01*
G01X25968Y3276D01*
G01X25829Y3136D01*
G01X25760Y2928D01*
G01X25760Y2791D01*
G01X25829Y2583D01*
G01X25968Y2443D01*
G01X26106Y2374D01*
G01X26314Y2374D01*
G01X26454Y2443D01*
G01X26591Y2583D01*
G01X27048Y3345D02*
G01X27048Y2374D01*
G01X27048Y2928D02*
G01X27119Y3136D01*
G01X27256Y3276D01*
G01X27396Y3345D01*
G01X27604Y3345D01*
G01X28061Y3830D02*
G01X28130Y3761D01*
G01X28199Y3830D01*
G01X28130Y3898D01*
G01X28061Y3830D01*
G01X28130Y3345D02*
G01X28130Y2374D01*
G01X28656Y3830D02*
G01X28656Y2374D01*
G01X29349Y3345D02*
G01X28656Y2651D01*
G01X28933Y2928D02*
G01X29418Y2374D01*
G01X29875Y3830D02*
G01X30845Y2374D01*
G01X30845Y3830D02*
G01X29875Y2374D01*
G01X31302Y3830D02*
G01X31302Y2374D01*
G01X31302Y3830D02*
G01X31788Y3830D01*
G01X31996Y3761D01*
G01X32133Y3622D01*
G01X32202Y3484D01*
G01X32273Y3276D01*
G01X32273Y2928D01*
G01X32202Y2722D01*
G01X32133Y2583D01*
G01X31996Y2443D01*
G01X31788Y2374D01*
G01X31302Y2374D01*
G01X33977Y4107D02*
G01X32730Y1889D01*
G01X34434Y3830D02*
G01X34434Y2374D01*
G01X34434Y3830D02*
G01X35333Y3830D01*
G01X34434Y3136D02*
G01X34988Y3136D01*
G01X34434Y2374D02*
G01X35333Y2374D01*
G01X36621Y3345D02*
G01X36621Y2374D01*
G01X36621Y3136D02*
G01X36484Y3276D01*
G01X36344Y3345D01*
G01X36139Y3345D01*
G01X35999Y3276D01*
G01X35859Y3136D01*
G01X35791Y2928D01*
G01X35791Y2791D01*
G01X35859Y2583D01*
G01X35999Y2443D01*
G01X36139Y2374D01*
G01X36344Y2374D01*
G01X36484Y2443D01*
G01X36621Y2583D01*
G01X37840Y3136D02*
G01X37772Y3276D01*
G01X37564Y3345D01*
G01X37358Y3345D01*
G01X37150Y3276D01*
G01X37078Y3136D01*
G01X37150Y2999D01*
G01X37287Y2928D01*
G01X37635Y2860D01*
G01X37772Y2791D01*
G01X37840Y2651D01*
G01X37840Y2583D01*
G01X37772Y2443D01*
G01X37564Y2374D01*
G01X37358Y2374D01*
G01X37150Y2443D01*
G01X37078Y2583D01*
G01X38369Y3345D02*
G01X38783Y2374D01*
G01X39199Y3345D02*
G01X38783Y2374D01*
G01X38646Y2098D01*
G01X38506Y1960D01*
G01X38369Y1889D01*
G01X38298Y1889D01*
G01X39657Y2999D02*
G01X40904Y2999D01*
G01X42331Y3622D02*
G01X42191Y3761D01*
G01X41983Y3830D01*
G01X41706Y3830D01*
G01X41498Y3761D01*
G01X41361Y3622D01*
G01X41361Y3484D01*
G01X41429Y3345D01*
G01X41498Y3276D01*
G01X41638Y3205D01*
G01X42054Y3068D01*
G01X42191Y2999D01*
G01X42260Y2928D01*
G01X42331Y2791D01*
G01X42331Y2583D01*
G01X42191Y2443D01*
G01X41983Y2374D01*
G01X41706Y2374D01*
G01X41498Y2443D01*
G01X41361Y2583D01*
G01X42788Y3830D02*
G01X42788Y2374D01*
G01X42788Y3830D02*
G01X43273Y3830D01*
G01X43479Y3761D01*
G01X43619Y3622D01*
G01X43688Y3484D01*
G01X43759Y3276D01*
G01X43759Y2928D01*
G01X43688Y2722D01*
G01X43619Y2583D01*
G01X43479Y2443D01*
G01X43273Y2374D01*
G01X42788Y2374D01*
G01X44216Y3830D02*
G01X44216Y2374D01*
G01X44216Y3830D02*
G01X44838Y3830D01*
G01X45046Y3761D01*
G01X45115Y3690D01*
G01X45184Y3553D01*
G01X45184Y3413D01*
G01X45115Y3276D01*
G01X45046Y3205D01*
G01X44838Y3136D01*
G01X44216Y3136D01*
G01X44698Y3136D02*
G01X45184Y2374D01*
G54D24*
G01X84514Y18800D02*
G01X84460Y18904D01*
G01X84356Y19008D01*
G01X84255Y19059D01*
G01X84046Y19059D01*
G01X83942Y19008D01*
G01X83838Y18904D01*
G01X83785Y18800D01*
G01X83734Y18645D01*
G01X83734Y18386D01*
G01X83785Y18228D01*
G01X83838Y18124D01*
G01X83942Y18020D01*
G01X84046Y17969D01*
G01X84255Y17969D01*
G01X84356Y18020D01*
G01X84460Y18124D01*
G01X84514Y18228D01*
G01X84857Y18853D02*
G01X84961Y18904D01*
G01X85116Y19059D01*
G01X85116Y17969D01*
G01X86554Y23100D02*
G01X86450Y23047D01*
G01X86346Y22943D01*
G01X86295Y22841D01*
G01X86295Y22633D01*
G01X86346Y22529D01*
G01X86450Y22424D01*
G01X86554Y22371D01*
G01X86709Y22320D01*
G01X86968Y22320D01*
G01X87126Y22371D01*
G01X87230Y22424D01*
G01X87334Y22529D01*
G01X87385Y22633D01*
G01X87385Y22841D01*
G01X87334Y22943D01*
G01X87230Y23047D01*
G01X87126Y23100D01*
G01X86554Y23494D02*
G01X86501Y23494D01*
G01X86397Y23547D01*
G01X86346Y23598D01*
G01X86295Y23702D01*
G01X86295Y23910D01*
G01X86346Y24014D01*
G01X86397Y24065D01*
G01X86501Y24119D01*
G01X86605Y24119D01*
G01X86709Y24065D01*
G01X86866Y23961D01*
G01X87385Y23443D01*
G01X87385Y24169D01*
G01X66500Y24398D02*
G01X66500Y23309D01*
G01X66500Y24398D02*
G01X66967Y24398D01*
G01X67122Y24347D01*
G01X67175Y24297D01*
G01X67226Y24192D01*
G01X67226Y24088D01*
G01X67175Y23984D01*
G01X67122Y23931D01*
G01X66967Y23880D01*
G01X66500Y23880D01*
G01X66863Y23880D02*
G01X67226Y23309D01*
G01X67622Y24139D02*
G01X67622Y24192D01*
G01X67673Y24297D01*
G01X67727Y24347D01*
G01X67831Y24398D01*
G01X68036Y24398D01*
G01X68141Y24347D01*
G01X68194Y24297D01*
G01X68245Y24192D01*
G01X68245Y24088D01*
G01X68194Y23984D01*
G01X68090Y23827D01*
G01X67569Y23309D01*
G01X68298Y23309D01*
G01X66500Y28198D02*
G01X66500Y27108D01*
G01X66500Y28198D02*
G01X66967Y28198D01*
G01X67122Y28147D01*
G01X67175Y28096D01*
G01X67226Y27992D01*
G01X67226Y27888D01*
G01X67175Y27784D01*
G01X67122Y27731D01*
G01X66967Y27680D01*
G01X66500Y27680D01*
G01X66863Y27680D02*
G01X67226Y27108D01*
G01X67673Y28198D02*
G01X68245Y28198D01*
G01X67935Y27784D01*
G01X68090Y27784D01*
G01X68194Y27731D01*
G01X68245Y27680D01*
G01X68298Y27525D01*
G01X68298Y27421D01*
G01X68245Y27263D01*
G01X68141Y27159D01*
G01X67986Y27108D01*
G01X67831Y27108D01*
G01X67673Y27159D01*
G01X67622Y27213D01*
G01X67569Y27317D01*
G01X66500Y20598D02*
G01X66500Y19508D01*
G01X66500Y20598D02*
G01X66967Y20598D01*
G01X67122Y20547D01*
G01X67175Y20497D01*
G01X67226Y20392D01*
G01X67226Y20288D01*
G01X67175Y20184D01*
G01X67122Y20131D01*
G01X66967Y20080D01*
G01X66500Y20080D01*
G01X66863Y20080D02*
G01X67226Y19508D01*
G01X68090Y20598D02*
G01X67569Y19872D01*
G01X68349Y19872D01*
G01X68090Y20598D02*
G01X68090Y19508D01*
G01X59379Y13839D02*
G01X59326Y13943D01*
G01X59222Y14048D01*
G01X59120Y14098D01*
G01X58912Y14098D01*
G01X58808Y14048D01*
G01X58704Y13943D01*
G01X58650Y13839D01*
G01X58600Y13684D01*
G01X58600Y13425D01*
G01X58650Y13268D01*
G01X58704Y13164D01*
G01X58808Y13059D01*
G01X58912Y13009D01*
G01X59120Y13009D01*
G01X59222Y13059D01*
G01X59326Y13164D01*
G01X59379Y13268D01*
G01X59826Y14098D02*
G01X60398Y14098D01*
G01X60086Y13684D01*
G01X60240Y13684D01*
G01X60345Y13631D01*
G01X60398Y13580D01*
G01X60449Y13425D01*
G01X60449Y13321D01*
G01X60398Y13164D01*
G01X60294Y13059D01*
G01X60136Y13009D01*
G01X59981Y13009D01*
G01X59826Y13059D01*
G01X59773Y13113D01*
G01X59722Y13217D01*
G01X66500Y16798D02*
G01X66500Y15709D01*
G01X66500Y16798D02*
G01X66967Y16798D01*
G01X67122Y16747D01*
G01X67175Y16697D01*
G01X67226Y16593D01*
G01X67226Y16488D01*
G01X67175Y16384D01*
G01X67122Y16331D01*
G01X66967Y16280D01*
G01X66500Y16280D01*
G01X66863Y16280D02*
G01X67226Y15709D01*
G01X68194Y16798D02*
G01X67673Y16798D01*
G01X67622Y16331D01*
G01X67673Y16384D01*
G01X67831Y16435D01*
G01X67986Y16435D01*
G01X68141Y16384D01*
G01X68245Y16280D01*
G01X68298Y16125D01*
G01X68298Y16021D01*
G01X68245Y15864D01*
G01X68141Y15759D01*
G01X67986Y15709D01*
G01X67831Y15709D01*
G01X67673Y15759D01*
G01X67622Y15813D01*
G01X67569Y15917D01*
G01X55700Y12253D02*
G01X56789Y12253D01*
G01X55700Y12253D02*
G01X55700Y12721D01*
G01X55750Y12876D01*
G01X55801Y12929D01*
G01X55905Y12980D01*
G01X56010Y12980D01*
G01X56114Y12929D01*
G01X56167Y12876D01*
G01X56218Y12721D01*
G01X56218Y12253D01*
G01X56218Y12616D02*
G01X56789Y12980D01*
G01X55855Y13947D02*
G01X55750Y13894D01*
G01X55700Y13739D01*
G01X55700Y13635D01*
G01X55750Y13480D01*
G01X55905Y13376D01*
G01X56167Y13323D01*
G01X56426Y13323D01*
G01X56634Y13376D01*
G01X56739Y13480D01*
G01X56789Y13635D01*
G01X56789Y13688D01*
G01X56739Y13843D01*
G01X56634Y13947D01*
G01X56477Y13998D01*
G01X56426Y13998D01*
G01X56271Y13947D01*
G01X56167Y13843D01*
G01X56114Y13688D01*
G01X56114Y13635D01*
G01X56167Y13480D01*
G01X56271Y13376D01*
G01X56426Y13323D01*
G01X66399Y12998D02*
G01X66399Y11909D01*
G01X66399Y12998D02*
G01X66867Y12998D01*
G01X67022Y12947D01*
G01X67075Y12897D01*
G01X67126Y12793D01*
G01X67126Y12688D01*
G01X67075Y12584D01*
G01X67022Y12531D01*
G01X66867Y12480D01*
G01X66399Y12480D01*
G01X66763Y12480D02*
G01X67126Y11909D01*
G01X68198Y12998D02*
G01X67677Y11909D01*
G01X67469Y12998D02*
G01X68198Y12998D01*
G01X59379Y27439D02*
G01X59326Y27543D01*
G01X59222Y27647D01*
G01X59120Y27698D01*
G01X58912Y27698D01*
G01X58808Y27647D01*
G01X58704Y27543D01*
G01X58650Y27439D01*
G01X58600Y27284D01*
G01X58600Y27025D01*
G01X58650Y26868D01*
G01X58704Y26763D01*
G01X58808Y26659D01*
G01X58912Y26609D01*
G01X59120Y26609D01*
G01X59222Y26659D01*
G01X59326Y26763D01*
G01X59379Y26868D01*
G01X60240Y27698D02*
G01X59722Y26972D01*
G01X60502Y26972D01*
G01X60240Y27698D02*
G01X60240Y26609D01*
G01X74012Y24898D02*
G01X73908Y24847D01*
G01X73804Y24743D01*
G01X73750Y24639D01*
G01X73700Y24484D01*
G01X73700Y24225D01*
G01X73750Y24068D01*
G01X73804Y23963D01*
G01X73908Y23859D01*
G01X74012Y23808D01*
G01X74220Y23808D01*
G01X74322Y23859D01*
G01X74426Y23963D01*
G01X74479Y24068D01*
G01X74530Y24225D01*
G01X74530Y24484D01*
G01X74479Y24639D01*
G01X74426Y24743D01*
G01X74322Y24847D01*
G01X74220Y24898D01*
G01X74012Y24898D01*
G01X74167Y24017D02*
G01X74479Y23704D01*
G01X74873Y24692D02*
G01X74977Y24743D01*
G01X75135Y24898D01*
G01X75135Y23808D01*
G01X48061Y14648D02*
G01X49151Y14648D01*
G01X48061Y14648D02*
G01X48061Y15116D01*
G01X48112Y15271D01*
G01X48163Y15324D01*
G01X48267Y15375D01*
G01X48371Y15375D01*
G01X48475Y15324D01*
G01X48529Y15271D01*
G01X48579Y15116D01*
G01X48579Y14648D01*
G01X48579Y15012D02*
G01X49151Y15375D01*
G01X48061Y15979D02*
G01X48112Y15822D01*
G01X48216Y15771D01*
G01X48320Y15771D01*
G01X48424Y15822D01*
G01X48475Y15926D01*
G01X48529Y16134D01*
G01X48579Y16289D01*
G01X48683Y16393D01*
G01X48788Y16447D01*
G01X48943Y16447D01*
G01X49047Y16393D01*
G01X49100Y16343D01*
G01X49151Y16185D01*
G01X49151Y15979D01*
G01X49100Y15822D01*
G01X49047Y15771D01*
G01X48943Y15718D01*
G01X48788Y15718D01*
G01X48683Y15771D01*
G01X48579Y15875D01*
G01X48529Y16030D01*
G01X48475Y16238D01*
G01X48424Y16343D01*
G01X48320Y16393D01*
G01X48216Y16393D01*
G01X48112Y16343D01*
G01X48061Y16185D01*
G01X48061Y15979D01*
G01X53212Y25898D02*
G01X53108Y25847D01*
G01X53004Y25743D01*
G01X52950Y25639D01*
G01X52900Y25484D01*
G01X52900Y25222D01*
G01X52950Y25068D01*
G01X53004Y24963D01*
G01X53108Y24859D01*
G01X53212Y24808D01*
G01X53420Y24808D01*
G01X53522Y24859D01*
G01X53626Y24963D01*
G01X53679Y25068D01*
G01X53730Y25222D01*
G01X53730Y25484D01*
G01X53679Y25639D01*
G01X53626Y25743D01*
G01X53522Y25847D01*
G01X53420Y25898D01*
G01X53212Y25898D01*
G01X53367Y25017D02*
G01X53679Y24704D01*
G01X54126Y25639D02*
G01X54126Y25690D01*
G01X54177Y25794D01*
G01X54231Y25847D01*
G01X54335Y25898D01*
G01X54540Y25898D01*
G01X54645Y25847D01*
G01X54698Y25794D01*
G01X54749Y25690D01*
G01X54749Y25588D01*
G01X54698Y25484D01*
G01X54594Y25327D01*
G01X54073Y24808D01*
G01X54802Y24808D01*
G01X95000Y16467D02*
G01X95000Y15378D01*
G01X95000Y16467D02*
G01X95467Y16467D01*
G01X95622Y16417D01*
G01X95675Y16366D01*
G01X95726Y16262D01*
G01X95726Y16104D01*
G01X95675Y16000D01*
G01X95622Y15949D01*
G01X95467Y15896D01*
G01X95000Y15896D01*
G01X96069Y16467D02*
G01X96069Y15378D01*
G01X96069Y16467D02*
G01X96745Y16467D01*
G01X96069Y15949D02*
G01X96485Y15949D01*
G01X97087Y16467D02*
G01X97087Y15690D01*
G01X97141Y15533D01*
G01X97245Y15429D01*
G01X97400Y15378D01*
G01X97504Y15378D01*
G01X97659Y15429D01*
G01X97763Y15533D01*
G01X97816Y15690D01*
G01X97816Y16467D01*
G01X79400Y13998D02*
G01X79400Y12909D01*
G01X79400Y13998D02*
G01X79867Y13998D01*
G01X80022Y13947D01*
G01X80073Y13894D01*
G01X80126Y13790D01*
G01X80126Y13686D01*
G01X80073Y13582D01*
G01X80022Y13531D01*
G01X79867Y13480D01*
G01X79400Y13480D01*
G01X79763Y13480D02*
G01X80126Y12909D01*
G01X80469Y13790D02*
G01X80573Y13843D01*
G01X80728Y13998D01*
G01X80728Y12909D01*
G01X91251Y20991D02*
G01X92340Y20991D01*
G01X92340Y20991D02*
G01X92340Y21614D01*
G01X91456Y21957D02*
G01X91405Y22061D01*
G01X91251Y22218D01*
G01X92340Y22218D01*
G54D10*
G75*
G01X52653Y22936D02*
G02X56853Y21628I1651J-2095D01*
G01*
G75*
G01X56853Y20054D02*
G02X52653Y18746I-2549J787D01*
G01*
G75*
G01X80937Y18471D02*
G03X80937Y18471I-4572J0D01*
G01*
G75*
G01X80226Y18471D02*
G03X80226Y18471I-3861J0D01*
G01*
M00*
M02*
