;Layer: Drill PTH
;EasyEDA v6.4.7, 2020-09-29T10:47:40+03:00
;c168c89dab9346539a0f0a4d02725cba,e225996ff9fb4a0db64c6d6541834e49,10
;Gerber Generator version 0.2
M48
METRIC,LZ,000.000
;Holesize 1 = 0.310 METRIC
T01C0.310
;Holesize 2 = 0.520 METRIC
T02C0.520
;Holesize 3 = 0.712 METRIC
T03C0.712
;Holesize 4 = 0.813 METRIC
T04C0.813
;Holesize 5 = 0.900 METRIC
T05C0.900
;Holesize 6 = 0.915 METRIC
T06C0.915
%
G05
G90
T01
X+098000Y+011998
X+097000Y+011998
X+095999Y+011998
X+095001Y+011998
X+095000Y+019877
X+095999Y+019877
X+096999Y+019877
X+098000Y+019877
X+094000Y+018879
X+094000Y+017878
X+094000Y+012999
X+094000Y+013997
X+047998Y+017000
X+052001Y+017312
X+073868Y+017439
X+076400Y+017398
X+077932Y+019852
X+088346Y+024551
X+055999Y+021998
X+049992Y+023408
T02
X+098000Y+024998
X+097000Y+024998
X+095999Y+024998
X+095999Y+021998
X+097000Y+021998
X+098000Y+021998
X+068999Y+011998
X+071000Y+011998
X+071000Y+010998
X+071000Y+009997
X+068999Y+015999
X+071000Y+015999
X+071000Y+014998
X+071000Y+013997
X+068999Y+019997
X+071000Y+019997
X+071000Y+018999
X+071000Y+017998
X+098000Y+004998
X+095999Y+004998
X+095999Y+006997
X+098000Y+006997
X+098000Y+008999
X+095999Y+008999
X+094000Y+004998
X+094000Y+006997
X+094000Y+008999
X+092001Y+008999
X+092001Y+006997
X+092001Y+004998
X+089999Y+004998
X+089999Y+006997
X+089999Y+002999
X+092001Y+002999
X+094000Y+002999
X+088000Y+002999
X+088000Y+004998
X+085999Y+002999
X+084000Y+002999
X+085999Y+004998
X+082001Y+002999
X+079999Y+002999
X+078000Y+002999
X+075999Y+002999
X+074000Y+002999
X+072001Y+002999
X+069999Y+002999
X+069999Y+004998
X+068000Y+002999
X+068000Y+004998
X+065999Y+002999
X+065999Y+004998
X+065999Y+006997
X+068000Y+006997
X+065999Y+008999
X+068000Y+008999
X+069999Y+008999
X+072001Y+008999
X+074000Y+008999
X+085999Y+008999
X+088000Y+008999
X+089999Y+008999
X+064000Y+002999
X+064000Y+004998
X+064000Y+006997
X+064000Y+008999
X+061998Y+008999
X+061998Y+006997
X+061998Y+004998
X+061998Y+002999
X+059999Y+002999
X+059999Y+004998
X+059999Y+006997
X+058000Y+006997
X+058000Y+003997
X+055999Y+003997
X+055999Y+006997
X+054000Y+004998
X+054000Y+002999
X+052001Y+002999
X+052001Y+004998
X+052001Y+006997
X+049999Y+006997
X+049999Y+004998
X+048000Y+004998
X+048000Y+006997
X+048000Y+008999
X+058000Y+010998
X+059999Y+010998
X+052001Y+010998
X+048000Y+010998
X+048000Y+012999
X+078000Y+022999
X+079999Y+022999
X+082001Y+022999
X+082001Y+024998
X+079999Y+024998
X+078000Y+024998
X+078000Y+026997
X+078000Y+028999
X+084000Y+028999
X+084000Y+026997
X+075999Y+026997
X+075999Y+028999
X+074000Y+028999
X+074000Y+027345
X+072001Y+027345
X+072001Y+028999
X+069999Y+028999
X+075999Y+025313
X+085999Y+028999
X+085999Y+026997
X+088000Y+028999
X+089999Y+028999
X+092001Y+028999
X+092001Y+026997
X+094000Y+028999
X+092001Y+024998
X+092001Y+022999
X+095999Y+026997
X+098000Y+026997
X+092001Y+018999
X+089999Y+018999
X+085999Y+018999
X+089999Y+020998
X+089999Y+022999
X+082001Y+018999
X+074000Y+022999
X+048000Y+018999
X+048000Y+020998
X+048000Y+022999
X+048000Y+024998
X+048000Y+026997
X+049999Y+026997
X+049999Y+024998
X+052001Y+024998
X+052001Y+026997
X+052001Y+028999
X+054000Y+028999
X+054000Y+026997
X+055999Y+026997
X+055999Y+028999
X+058000Y+028999
X+058000Y+026997
X+052001Y+018999
X+055999Y+014998
X+087203Y+020741
X+058000Y+012999
X+072001Y+023997
X+057000Y+022999
X+058039Y+020579
X+060261Y+020579
X+054000Y+010998
X+054000Y+012999
X+055999Y+001998
X+058000Y+001998
X+079999Y+029997
X+079999Y+027998
X+082001Y+029997
X+082001Y+027998
X+055996Y+011000
X+063997Y+011000
X+065999Y+011000
X+063997Y+012999
X+064000Y+015999
X+064000Y+021998
X+065999Y+021998
X+064000Y+023997
X+064000Y+025999
X+065999Y+025999
X+065999Y+023997
X+065999Y+012999
X+065996Y+015999
X+065999Y+018000
X+063997Y+017998
X+063997Y+019999
X+065996Y+019999
X+093997Y+021000
X+087998Y+010998
X+089999Y+011000
X+091998Y+011000
X+093997Y+011000
X+091998Y+012999
X+089997Y+012999
X+087998Y+012999
X+085996Y+012999
X+083997Y+012999
X+081996Y+012999
X+077998Y+012999
X+075999Y+012999
X+077998Y+011000
X+079997Y+011000
X+081998Y+011000
X+087998Y+009999
X+086997Y+008999
X+095999Y+011000
X+097998Y+010998
T03
X+082476Y+015930
X+085016Y+015930
X+084386Y+023619
X+084386Y+021079
X+059220Y+015857
X+059220Y+018397
X+059209Y+022367
X+059209Y+024907
T04
X+076365Y+015931
X+078905Y+018471
X+076365Y+021011
X+054304Y+023000
X+054304Y+020841
X+054304Y+018682
T05
X+061930Y+022138
X+069550Y+022138
X+061902Y+025961
X+069522Y+025961
X+069550Y+018328
X+061930Y+018328
X+069550Y+014518
X+061930Y+014518
X+054302Y+008387
X+054302Y+016007
X+069550Y+010708
X+061930Y+010708
X+050502Y+013246
X+050502Y+020866
X+073649Y+010708
X+086349Y+010708
X+089415Y+026100
X+089415Y+015930
T06
X+056964Y+003007
X+096996Y+023582
X+081032Y+028991
M30
