<?xml version="1.0" standalone="no"?>
 <!DOCTYPE svg PUBLIC "-//W3C//DTD SVG 1.1//EN" 
 "http://www.w3.org/Graphics/SVG/1.1/DTD/svg11.dtd"> 
<svg
  xmlns:svg="http://www.w3.org/2000/svg"
  xmlns="http://www.w3.org/2000/svg"
  xmlns:xlink="http://www.w3.org/1999/xlink"
  version="1.1"
  width="297.0022mm" height="210.0072mm" viewBox="0.0000 0.0000 297.0022 210.0072">
<title>SVG Image created as miwhip-B_Cu.svg date 2024/03/19 15:54:34 </title>
  <desc>Image generated by PCBNEW </desc>
<g style="fill:#000000; fill-opacity:1.0000;stroke:#000000; stroke-opacity:1.0000;
stroke-linecap:round; stroke-linejoin:round;"
 transform="translate(0 0) scale(1 1)">
</g>
<g style="fill:none; 
stroke:#000000; stroke-width:0.1500; stroke-opacity:1; 
stroke-linecap:round; stroke-linejoin:round;">
<path d="M177.0022 166.0072
L285.0022 166.0072
L285.0022 198.0072
L177.0022 198.0072
L177.0022 166.0072
" />
</g>
<g style="fill:none; 
stroke:#000000; stroke-width:0.1500; stroke-opacity:1; 
stroke-linecap:round; stroke-linejoin:round;">
<path d="M10.0000 10.0000
L287.0022 10.0000
L287.0022 200.0072
L10.0000 200.0072
L10.0000 10.0000
" />
</g>
<g style="fill:none; 
stroke:#000000; stroke-width:0.1500; stroke-opacity:1; 
stroke-linecap:round; stroke-linejoin:round;">
<path d="M12.0000 12.0000
L285.0022 12.0000
L285.0022 198.0072
L12.0000 198.0072
L12.0000 12.0000
" />
</g>
<g style="fill:none; 
stroke:#000000; stroke-width:0.1500; stroke-opacity:1; 
stroke-linecap:round; stroke-linejoin:round;">
<path d="M60.0000 12.0000
L60.0000 10.0000
" />
</g>
<g style="fill:none; 
stroke:#000000; stroke-width:0.1500; stroke-opacity:1; 
stroke-linecap:round; stroke-linejoin:round;">
<path d="M110.0000 12.0000
L110.0000 10.0000
" />
</g>
<g style="fill:none; 
stroke:#000000; stroke-width:0.1500; stroke-opacity:1; 
stroke-linecap:round; stroke-linejoin:round;">
<path d="M160.0000 12.0000
L160.0000 10.0000
" />
</g>
<g style="fill:none; 
stroke:#000000; stroke-width:0.1500; stroke-opacity:1; 
stroke-linecap:round; stroke-linejoin:round;">
<path d="M210.0000 12.0000
L210.0000 10.0000
" />
</g>
<g style="fill:none; 
stroke:#000000; stroke-width:0.1500; stroke-opacity:1; 
stroke-linecap:round; stroke-linejoin:round;">
<path d="M260.0000 12.0000
L260.0000 10.0000
" />
</g>
<g style="fill:none; 
stroke:#000000; stroke-width:0.1500; stroke-opacity:1; 
stroke-linecap:round; stroke-linejoin:round;">
<text x="35.0000" y="11.6500"
textLength="1.4281" font-size="1.7333" lengthAdjust="spacingAndGlyphs"
text-anchor="start" opacity="0">1</text>
<g class="stroked-text"><desc>1</desc>
<path d="M36.0892 11.5936
L35.3463 11.5936
" />
<path d="M35.7177 11.5936
L35.7177 10.2936
" />
<path d="M35.7177 10.2936
L35.5939 10.4793
" />
<path d="M35.5939 10.4793
L35.4701 10.6031
" />
<path d="M35.4701 10.6031
L35.3463 10.6650
" />
</g></g>
<g style="fill:none; 
stroke:#000000; stroke-width:0.1500; stroke-opacity:1; 
stroke-linecap:round; stroke-linejoin:round;">
<text x="85.0000" y="11.6500"
textLength="1.4281" font-size="1.7333" lengthAdjust="spacingAndGlyphs"
text-anchor="start" opacity="0">2</text>
<g class="stroked-text"><desc>2</desc>
<path d="M85.3463 10.4174
L85.4082 10.3555
" />
<path d="M85.4082 10.3555
L85.5320 10.2936
" />
<path d="M85.5320 10.2936
L85.8415 10.2936
" />
<path d="M85.8415 10.2936
L85.9654 10.3555
" />
<path d="M85.9654 10.3555
L86.0273 10.4174
" />
<path d="M86.0273 10.4174
L86.0892 10.5412
" />
<path d="M86.0892 10.5412
L86.0892 10.6650
" />
<path d="M86.0892 10.6650
L86.0273 10.8507
" />
<path d="M86.0273 10.8507
L85.2844 11.5936
" />
<path d="M85.2844 11.5936
L86.0892 11.5936
" />
</g></g>
<g style="fill:none; 
stroke:#000000; stroke-width:0.1500; stroke-opacity:1; 
stroke-linecap:round; stroke-linejoin:round;">
<text x="135.0000" y="11.6500"
textLength="1.4281" font-size="1.7333" lengthAdjust="spacingAndGlyphs"
text-anchor="start" opacity="0">3</text>
<g class="stroked-text"><desc>3</desc>
<path d="M135.2844 10.2936
L136.0892 10.2936
" />
<path d="M136.0892 10.2936
L135.6558 10.7888
" />
<path d="M135.6558 10.7888
L135.8415 10.7888
" />
<path d="M135.8415 10.7888
L135.9654 10.8507
" />
<path d="M135.9654 10.8507
L136.0273 10.9127
" />
<path d="M136.0273 10.9127
L136.0892 11.0365
" />
<path d="M136.0892 11.0365
L136.0892 11.3460
" />
<path d="M136.0892 11.3460
L136.0273 11.4698
" />
<path d="M136.0273 11.4698
L135.9654 11.5317
" />
<path d="M135.9654 11.5317
L135.8415 11.5936
" />
<path d="M135.8415 11.5936
L135.4701 11.5936
" />
<path d="M135.4701 11.5936
L135.3463 11.5317
" />
<path d="M135.3463 11.5317
L135.2844 11.4698
" />
</g></g>
<g style="fill:none; 
stroke:#000000; stroke-width:0.1500; stroke-opacity:1; 
stroke-linecap:round; stroke-linejoin:round;">
<text x="185.0000" y="11.6500"
textLength="1.4281" font-size="1.7333" lengthAdjust="spacingAndGlyphs"
text-anchor="start" opacity="0">4</text>
<g class="stroked-text"><desc>4</desc>
<path d="M185.9654 10.7269
L185.9654 11.5936
" />
<path d="M185.6558 10.2317
L185.3463 11.1603
" />
<path d="M185.3463 11.1603
L186.1511 11.1603
" />
</g></g>
<g style="fill:none; 
stroke:#000000; stroke-width:0.1500; stroke-opacity:1; 
stroke-linecap:round; stroke-linejoin:round;">
<text x="235.0000" y="11.6500"
textLength="1.4281" font-size="1.7333" lengthAdjust="spacingAndGlyphs"
text-anchor="start" opacity="0">5</text>
<g class="stroked-text"><desc>5</desc>
<path d="M236.0273 10.2936
L235.4082 10.2936
" />
<path d="M235.4082 10.2936
L235.3463 10.9127
" />
<path d="M235.3463 10.9127
L235.4082 10.8507
" />
<path d="M235.4082 10.8507
L235.5320 10.7888
" />
<path d="M235.5320 10.7888
L235.8415 10.7888
" />
<path d="M235.8415 10.7888
L235.9654 10.8507
" />
<path d="M235.9654 10.8507
L236.0273 10.9127
" />
<path d="M236.0273 10.9127
L236.0892 11.0365
" />
<path d="M236.0892 11.0365
L236.0892 11.3460
" />
<path d="M236.0892 11.3460
L236.0273 11.4698
" />
<path d="M236.0273 11.4698
L235.9654 11.5317
" />
<path d="M235.9654 11.5317
L235.8415 11.5936
" />
<path d="M235.8415 11.5936
L235.5320 11.5936
" />
<path d="M235.5320 11.5936
L235.4082 11.5317
" />
<path d="M235.4082 11.5317
L235.3463 11.4698
" />
</g></g>
<g style="fill:none; 
stroke:#000000; stroke-width:0.1500; stroke-opacity:1; 
stroke-linecap:round; stroke-linejoin:round;">
<text x="285.0000" y="11.6500"
textLength="1.4281" font-size="1.7333" lengthAdjust="spacingAndGlyphs"
text-anchor="start" opacity="0">6</text>
<g class="stroked-text"><desc>6</desc>
<path d="M285.9654 10.2936
L285.7177 10.2936
" />
<path d="M285.7177 10.2936
L285.5939 10.3555
" />
<path d="M285.5939 10.3555
L285.5320 10.4174
" />
<path d="M285.5320 10.4174
L285.4082 10.6031
" />
<path d="M285.4082 10.6031
L285.3463 10.8507
" />
<path d="M285.3463 10.8507
L285.3463 11.3460
" />
<path d="M285.3463 11.3460
L285.4082 11.4698
" />
<path d="M285.4082 11.4698
L285.4701 11.5317
" />
<path d="M285.4701 11.5317
L285.5939 11.5936
" />
<path d="M285.5939 11.5936
L285.8415 11.5936
" />
<path d="M285.8415 11.5936
L285.9654 11.5317
" />
<path d="M285.9654 11.5317
L286.0273 11.4698
" />
<path d="M286.0273 11.4698
L286.0892 11.3460
" />
<path d="M286.0892 11.3460
L286.0892 11.0365
" />
<path d="M286.0892 11.0365
L286.0273 10.9127
" />
<path d="M286.0273 10.9127
L285.9654 10.8507
" />
<path d="M285.9654 10.8507
L285.8415 10.7888
" />
<path d="M285.8415 10.7888
L285.5939 10.7888
" />
<path d="M285.5939 10.7888
L285.4701 10.8507
" />
<path d="M285.4701 10.8507
L285.4082 10.9127
" />
<path d="M285.4082 10.9127
L285.3463 11.0365
" />
</g></g>
<g style="fill:none; 
stroke:#000000; stroke-width:0.1500; stroke-opacity:1; 
stroke-linecap:round; stroke-linejoin:round;">
<path d="M60.0000 198.0072
L60.0000 200.0072
" />
</g>
<g style="fill:none; 
stroke:#000000; stroke-width:0.1500; stroke-opacity:1; 
stroke-linecap:round; stroke-linejoin:round;">
<path d="M110.0000 198.0072
L110.0000 200.0072
" />
</g>
<g style="fill:none; 
stroke:#000000; stroke-width:0.1500; stroke-opacity:1; 
stroke-linecap:round; stroke-linejoin:round;">
<path d="M160.0000 198.0072
L160.0000 200.0072
" />
</g>
<g style="fill:none; 
stroke:#000000; stroke-width:0.1500; stroke-opacity:1; 
stroke-linecap:round; stroke-linejoin:round;">
<path d="M210.0000 198.0072
L210.0000 200.0072
" />
</g>
<g style="fill:none; 
stroke:#000000; stroke-width:0.1500; stroke-opacity:1; 
stroke-linecap:round; stroke-linejoin:round;">
<path d="M260.0000 198.0072
L260.0000 200.0072
" />
</g>
<g style="fill:none; 
stroke:#000000; stroke-width:0.1500; stroke-opacity:1; 
stroke-linecap:round; stroke-linejoin:round;">
<text x="35.0000" y="199.6572"
textLength="1.4281" font-size="1.7333" lengthAdjust="spacingAndGlyphs"
text-anchor="start" opacity="0">1</text>
<g class="stroked-text"><desc>1</desc>
<path d="M36.0892 199.6008
L35.3463 199.6008
" />
<path d="M35.7177 199.6008
L35.7177 198.3008
" />
<path d="M35.7177 198.3008
L35.5939 198.4865
" />
<path d="M35.5939 198.4865
L35.4701 198.6103
" />
<path d="M35.4701 198.6103
L35.3463 198.6722
" />
</g></g>
<g style="fill:none; 
stroke:#000000; stroke-width:0.1500; stroke-opacity:1; 
stroke-linecap:round; stroke-linejoin:round;">
<text x="85.0000" y="199.6572"
textLength="1.4281" font-size="1.7333" lengthAdjust="spacingAndGlyphs"
text-anchor="start" opacity="0">2</text>
<g class="stroked-text"><desc>2</desc>
<path d="M85.3463 198.4246
L85.4082 198.3627
" />
<path d="M85.4082 198.3627
L85.5320 198.3008
" />
<path d="M85.5320 198.3008
L85.8415 198.3008
" />
<path d="M85.8415 198.3008
L85.9654 198.3627
" />
<path d="M85.9654 198.3627
L86.0273 198.4246
" />
<path d="M86.0273 198.4246
L86.0892 198.5484
" />
<path d="M86.0892 198.5484
L86.0892 198.6722
" />
<path d="M86.0892 198.6722
L86.0273 198.8579
" />
<path d="M86.0273 198.8579
L85.2844 199.6008
" />
<path d="M85.2844 199.6008
L86.0892 199.6008
" />
</g></g>
<g style="fill:none; 
stroke:#000000; stroke-width:0.1500; stroke-opacity:1; 
stroke-linecap:round; stroke-linejoin:round;">
<text x="135.0000" y="199.6572"
textLength="1.4281" font-size="1.7333" lengthAdjust="spacingAndGlyphs"
text-anchor="start" opacity="0">3</text>
<g class="stroked-text"><desc>3</desc>
<path d="M135.2844 198.3008
L136.0892 198.3008
" />
<path d="M136.0892 198.3008
L135.6558 198.7960
" />
<path d="M135.6558 198.7960
L135.8415 198.7960
" />
<path d="M135.8415 198.7960
L135.9654 198.8579
" />
<path d="M135.9654 198.8579
L136.0273 198.9199
" />
<path d="M136.0273 198.9199
L136.0892 199.0437
" />
<path d="M136.0892 199.0437
L136.0892 199.3532
" />
<path d="M136.0892 199.3532
L136.0273 199.4770
" />
<path d="M136.0273 199.4770
L135.9654 199.5389
" />
<path d="M135.9654 199.5389
L135.8415 199.6008
" />
<path d="M135.8415 199.6008
L135.4701 199.6008
" />
<path d="M135.4701 199.6008
L135.3463 199.5389
" />
<path d="M135.3463 199.5389
L135.2844 199.4770
" />
</g></g>
<g style="fill:none; 
stroke:#000000; stroke-width:0.1500; stroke-opacity:1; 
stroke-linecap:round; stroke-linejoin:round;">
<text x="185.0000" y="199.6572"
textLength="1.4281" font-size="1.7333" lengthAdjust="spacingAndGlyphs"
text-anchor="start" opacity="0">4</text>
<g class="stroked-text"><desc>4</desc>
<path d="M185.9654 198.7341
L185.9654 199.6008
" />
<path d="M185.6558 198.2389
L185.3463 199.1675
" />
<path d="M185.3463 199.1675
L186.1511 199.1675
" />
</g></g>
<g style="fill:none; 
stroke:#000000; stroke-width:0.1500; stroke-opacity:1; 
stroke-linecap:round; stroke-linejoin:round;">
<text x="235.0000" y="199.6572"
textLength="1.4281" font-size="1.7333" lengthAdjust="spacingAndGlyphs"
text-anchor="start" opacity="0">5</text>
<g class="stroked-text"><desc>5</desc>
<path d="M236.0273 198.3008
L235.4082 198.3008
" />
<path d="M235.4082 198.3008
L235.3463 198.9199
" />
<path d="M235.3463 198.9199
L235.4082 198.8579
" />
<path d="M235.4082 198.8579
L235.5320 198.7960
" />
<path d="M235.5320 198.7960
L235.8415 198.7960
" />
<path d="M235.8415 198.7960
L235.9654 198.8579
" />
<path d="M235.9654 198.8579
L236.0273 198.9199
" />
<path d="M236.0273 198.9199
L236.0892 199.0437
" />
<path d="M236.0892 199.0437
L236.0892 199.3532
" />
<path d="M236.0892 199.3532
L236.0273 199.4770
" />
<path d="M236.0273 199.4770
L235.9654 199.5389
" />
<path d="M235.9654 199.5389
L235.8415 199.6008
" />
<path d="M235.8415 199.6008
L235.5320 199.6008
" />
<path d="M235.5320 199.6008
L235.4082 199.5389
" />
<path d="M235.4082 199.5389
L235.3463 199.4770
" />
</g></g>
<g style="fill:none; 
stroke:#000000; stroke-width:0.1500; stroke-opacity:1; 
stroke-linecap:round; stroke-linejoin:round;">
<text x="285.0000" y="199.6572"
textLength="1.4281" font-size="1.7333" lengthAdjust="spacingAndGlyphs"
text-anchor="start" opacity="0">6</text>
<g class="stroked-text"><desc>6</desc>
<path d="M285.9654 198.3008
L285.7177 198.3008
" />
<path d="M285.7177 198.3008
L285.5939 198.3627
" />
<path d="M285.5939 198.3627
L285.5320 198.4246
" />
<path d="M285.5320 198.4246
L285.4082 198.6103
" />
<path d="M285.4082 198.6103
L285.3463 198.8579
" />
<path d="M285.3463 198.8579
L285.3463 199.3532
" />
<path d="M285.3463 199.3532
L285.4082 199.4770
" />
<path d="M285.4082 199.4770
L285.4701 199.5389
" />
<path d="M285.4701 199.5389
L285.5939 199.6008
" />
<path d="M285.5939 199.6008
L285.8415 199.6008
" />
<path d="M285.8415 199.6008
L285.9654 199.5389
" />
<path d="M285.9654 199.5389
L286.0273 199.4770
" />
<path d="M286.0273 199.4770
L286.0892 199.3532
" />
<path d="M286.0892 199.3532
L286.0892 199.0437
" />
<path d="M286.0892 199.0437
L286.0273 198.9199
" />
<path d="M286.0273 198.9199
L285.9654 198.8579
" />
<path d="M285.9654 198.8579
L285.8415 198.7960
" />
<path d="M285.8415 198.7960
L285.5939 198.7960
" />
<path d="M285.5939 198.7960
L285.4701 198.8579
" />
<path d="M285.4701 198.8579
L285.4082 198.9199
" />
<path d="M285.4082 198.9199
L285.3463 199.0437
" />
</g></g>
<g style="fill:none; 
stroke:#000000; stroke-width:0.1500; stroke-opacity:1; 
stroke-linecap:round; stroke-linejoin:round;">
<path d="M10.0000 60.0000
L12.0000 60.0000
" />
</g>
<g style="fill:none; 
stroke:#000000; stroke-width:0.1500; stroke-opacity:1; 
stroke-linecap:round; stroke-linejoin:round;">
<path d="M10.0000 110.0000
L12.0000 110.0000
" />
</g>
<g style="fill:none; 
stroke:#000000; stroke-width:0.1500; stroke-opacity:1; 
stroke-linecap:round; stroke-linejoin:round;">
<path d="M10.0000 160.0000
L12.0000 160.0000
" />
</g>
<g style="fill:none; 
stroke:#000000; stroke-width:0.1500; stroke-opacity:1; 
stroke-linecap:round; stroke-linejoin:round;">
<text x="11.0000" y="35.6500"
textLength="1.3043" font-size="1.7333" lengthAdjust="spacingAndGlyphs"
text-anchor="middle" opacity="0">A</text>
<g class="stroked-text"><desc>A</desc>
<path d="M10.6905 35.2222
L11.3095 35.2222
" />
<path d="M10.5667 35.5936
L11.0000 34.2936
" />
<path d="M11.0000 34.2936
L11.4333 35.5936
" />
</g></g>
<g style="fill:none; 
stroke:#000000; stroke-width:0.1500; stroke-opacity:1; 
stroke-linecap:round; stroke-linejoin:round;">
<text x="11.0000" y="85.6500"
textLength="1.4900" font-size="1.7333" lengthAdjust="spacingAndGlyphs"
text-anchor="middle" opacity="0">B</text>
<g class="stroked-text"><desc>B</desc>
<path d="M11.0929 84.9127
L11.2786 84.9746
" />
<path d="M11.2786 84.9746
L11.3405 85.0365
" />
<path d="M11.3405 85.0365
L11.4024 85.1603
" />
<path d="M11.4024 85.1603
L11.4024 85.3460
" />
<path d="M11.4024 85.3460
L11.3405 85.4698
" />
<path d="M11.3405 85.4698
L11.2786 85.5317
" />
<path d="M11.2786 85.5317
L11.1548 85.5936
" />
<path d="M11.1548 85.5936
L10.6595 85.5936
" />
<path d="M10.6595 85.5936
L10.6595 84.2936
" />
<path d="M10.6595 84.2936
L11.0929 84.2936
" />
<path d="M11.0929 84.2936
L11.2167 84.3555
" />
<path d="M11.2167 84.3555
L11.2786 84.4174
" />
<path d="M11.2786 84.4174
L11.3405 84.5412
" />
<path d="M11.3405 84.5412
L11.3405 84.6650
" />
<path d="M11.3405 84.6650
L11.2786 84.7888
" />
<path d="M11.2786 84.7888
L11.2167 84.8507
" />
<path d="M11.2167 84.8507
L11.0929 84.9127
" />
<path d="M11.0929 84.9127
L10.6595 84.9127
" />
</g></g>
<g style="fill:none; 
stroke:#000000; stroke-width:0.1500; stroke-opacity:1; 
stroke-linecap:round; stroke-linejoin:round;">
<text x="11.0000" y="135.6500"
textLength="1.4900" font-size="1.7333" lengthAdjust="spacingAndGlyphs"
text-anchor="middle" opacity="0">C</text>
<g class="stroked-text"><desc>C</desc>
<path d="M11.4024 135.4698
L11.3405 135.5317
" />
<path d="M11.3405 135.5317
L11.1548 135.5936
" />
<path d="M11.1548 135.5936
L11.0310 135.5936
" />
<path d="M11.0310 135.5936
L10.8452 135.5317
" />
<path d="M10.8452 135.5317
L10.7214 135.4079
" />
<path d="M10.7214 135.4079
L10.6595 135.2841
" />
<path d="M10.6595 135.2841
L10.5976 135.0365
" />
<path d="M10.5976 135.0365
L10.5976 134.8507
" />
<path d="M10.5976 134.8507
L10.6595 134.6031
" />
<path d="M10.6595 134.6031
L10.7214 134.4793
" />
<path d="M10.7214 134.4793
L10.8452 134.3555
" />
<path d="M10.8452 134.3555
L11.0310 134.2936
" />
<path d="M11.0310 134.2936
L11.1548 134.2936
" />
<path d="M11.1548 134.2936
L11.3405 134.3555
" />
<path d="M11.3405 134.3555
L11.4024 134.4174
" />
</g></g>
<g style="fill:none; 
stroke:#000000; stroke-width:0.1500; stroke-opacity:1; 
stroke-linecap:round; stroke-linejoin:round;">
<text x="11.0000" y="185.6500"
textLength="1.4900" font-size="1.7333" lengthAdjust="spacingAndGlyphs"
text-anchor="middle" opacity="0">D</text>
<g class="stroked-text"><desc>D</desc>
<path d="M10.6595 185.5936
L10.6595 184.2936
" />
<path d="M10.6595 184.2936
L10.9690 184.2936
" />
<path d="M10.9690 184.2936
L11.1548 184.3555
" />
<path d="M11.1548 184.3555
L11.2786 184.4793
" />
<path d="M11.2786 184.4793
L11.3405 184.6031
" />
<path d="M11.3405 184.6031
L11.4024 184.8507
" />
<path d="M11.4024 184.8507
L11.4024 185.0365
" />
<path d="M11.4024 185.0365
L11.3405 185.2841
" />
<path d="M11.3405 185.2841
L11.2786 185.4079
" />
<path d="M11.2786 185.4079
L11.1548 185.5317
" />
<path d="M11.1548 185.5317
L10.9690 185.5936
" />
<path d="M10.9690 185.5936
L10.6595 185.5936
" />
</g></g>
<g style="fill:none; 
stroke:#000000; stroke-width:0.1500; stroke-opacity:1; 
stroke-linecap:round; stroke-linejoin:round;">
<path d="M287.0022 60.0000
L285.0022 60.0000
" />
</g>
<g style="fill:none; 
stroke:#000000; stroke-width:0.1500; stroke-opacity:1; 
stroke-linecap:round; stroke-linejoin:round;">
<path d="M287.0022 110.0000
L285.0022 110.0000
" />
</g>
<g style="fill:none; 
stroke:#000000; stroke-width:0.1500; stroke-opacity:1; 
stroke-linecap:round; stroke-linejoin:round;">
<path d="M287.0022 160.0000
L285.0022 160.0000
" />
</g>
<g style="fill:none; 
stroke:#000000; stroke-width:0.1500; stroke-opacity:1; 
stroke-linecap:round; stroke-linejoin:round;">
<text x="286.0022" y="35.6500"
textLength="1.3043" font-size="1.7333" lengthAdjust="spacingAndGlyphs"
text-anchor="middle" opacity="0">A</text>
<g class="stroked-text"><desc>A</desc>
<path d="M285.6927 35.2222
L286.3117 35.2222
" />
<path d="M285.5689 35.5936
L286.0022 34.2936
" />
<path d="M286.0022 34.2936
L286.4355 35.5936
" />
</g></g>
<g style="fill:none; 
stroke:#000000; stroke-width:0.1500; stroke-opacity:1; 
stroke-linecap:round; stroke-linejoin:round;">
<text x="286.0022" y="85.6500"
textLength="1.4900" font-size="1.7333" lengthAdjust="spacingAndGlyphs"
text-anchor="middle" opacity="0">B</text>
<g class="stroked-text"><desc>B</desc>
<path d="M286.0951 84.9127
L286.2808 84.9746
" />
<path d="M286.2808 84.9746
L286.3427 85.0365
" />
<path d="M286.3427 85.0365
L286.4046 85.1603
" />
<path d="M286.4046 85.1603
L286.4046 85.3460
" />
<path d="M286.4046 85.3460
L286.3427 85.4698
" />
<path d="M286.3427 85.4698
L286.2808 85.5317
" />
<path d="M286.2808 85.5317
L286.1570 85.5936
" />
<path d="M286.1570 85.5936
L285.6617 85.5936
" />
<path d="M285.6617 85.5936
L285.6617 84.2936
" />
<path d="M285.6617 84.2936
L286.0951 84.2936
" />
<path d="M286.0951 84.2936
L286.2189 84.3555
" />
<path d="M286.2189 84.3555
L286.2808 84.4174
" />
<path d="M286.2808 84.4174
L286.3427 84.5412
" />
<path d="M286.3427 84.5412
L286.3427 84.6650
" />
<path d="M286.3427 84.6650
L286.2808 84.7888
" />
<path d="M286.2808 84.7888
L286.2189 84.8507
" />
<path d="M286.2189 84.8507
L286.0951 84.9127
" />
<path d="M286.0951 84.9127
L285.6617 84.9127
" />
</g></g>
<g style="fill:none; 
stroke:#000000; stroke-width:0.1500; stroke-opacity:1; 
stroke-linecap:round; stroke-linejoin:round;">
<text x="286.0022" y="135.6500"
textLength="1.4900" font-size="1.7333" lengthAdjust="spacingAndGlyphs"
text-anchor="middle" opacity="0">C</text>
<g class="stroked-text"><desc>C</desc>
<path d="M286.4046 135.4698
L286.3427 135.5317
" />
<path d="M286.3427 135.5317
L286.1570 135.5936
" />
<path d="M286.1570 135.5936
L286.0332 135.5936
" />
<path d="M286.0332 135.5936
L285.8474 135.5317
" />
<path d="M285.8474 135.5317
L285.7236 135.4079
" />
<path d="M285.7236 135.4079
L285.6617 135.2841
" />
<path d="M285.6617 135.2841
L285.5998 135.0365
" />
<path d="M285.5998 135.0365
L285.5998 134.8507
" />
<path d="M285.5998 134.8507
L285.6617 134.6031
" />
<path d="M285.6617 134.6031
L285.7236 134.4793
" />
<path d="M285.7236 134.4793
L285.8474 134.3555
" />
<path d="M285.8474 134.3555
L286.0332 134.2936
" />
<path d="M286.0332 134.2936
L286.1570 134.2936
" />
<path d="M286.1570 134.2936
L286.3427 134.3555
" />
<path d="M286.3427 134.3555
L286.4046 134.4174
" />
</g></g>
<g style="fill:none; 
stroke:#000000; stroke-width:0.1500; stroke-opacity:1; 
stroke-linecap:round; stroke-linejoin:round;">
<text x="286.0022" y="185.6500"
textLength="1.4900" font-size="1.7333" lengthAdjust="spacingAndGlyphs"
text-anchor="middle" opacity="0">D</text>
<g class="stroked-text"><desc>D</desc>
<path d="M285.6617 185.5936
L285.6617 184.2936
" />
<path d="M285.6617 184.2936
L285.9712 184.2936
" />
<path d="M285.9712 184.2936
L286.1570 184.3555
" />
<path d="M286.1570 184.3555
L286.2808 184.4793
" />
<path d="M286.2808 184.4793
L286.3427 184.6031
" />
<path d="M286.3427 184.6031
L286.4046 184.8507
" />
<path d="M286.4046 184.8507
L286.4046 185.0365
" />
<path d="M286.4046 185.0365
L286.3427 185.2841
" />
<path d="M286.3427 185.2841
L286.2808 185.4079
" />
<path d="M286.2808 185.4079
L286.1570 185.5317
" />
<path d="M286.1570 185.5317
L285.9712 185.5936
" />
<path d="M285.9712 185.5936
L285.6617 185.5936
" />
</g></g>
<g style="fill:none; 
stroke:#000000; stroke-width:0.1500; stroke-opacity:1; 
stroke-linecap:round; stroke-linejoin:round;">
<text x="200.0022" y="193.8572"
textLength="7.0071" font-size="2.0000" lengthAdjust="spacingAndGlyphs"
text-anchor="start" opacity="0">Date: </text>
<g class="stroked-text"><desc>Date: </desc>
<path d="M200.4580 193.7933
L200.4580 192.2933
" />
<path d="M200.4580 192.2933
L200.8152 192.2933
" />
<path d="M200.8152 192.2933
L201.0295 192.3648
" />
<path d="M201.0295 192.3648
L201.1723 192.5076
" />
<path d="M201.1723 192.5076
L201.2437 192.6505
" />
<path d="M201.2437 192.6505
L201.3152 192.9362
" />
<path d="M201.3152 192.9362
L201.3152 193.1505
" />
<path d="M201.3152 193.1505
L201.2437 193.4362
" />
<path d="M201.2437 193.4362
L201.1723 193.5790
" />
<path d="M201.1723 193.5790
L201.0295 193.7219
" />
<path d="M201.0295 193.7219
L200.8152 193.7933
" />
<path d="M200.8152 193.7933
L200.4580 193.7933
" />
<path d="M202.6009 193.7933
L202.6009 193.0076
" />
<path d="M202.6009 193.0076
L202.5295 192.8648
" />
<path d="M202.5295 192.8648
L202.3866 192.7933
" />
<path d="M202.3866 192.7933
L202.1009 192.7933
" />
<path d="M202.1009 192.7933
L201.9580 192.8648
" />
<path d="M202.6009 193.7219
L202.4580 193.7933
" />
<path d="M202.4580 193.7933
L202.1009 193.7933
" />
<path d="M202.1009 193.7933
L201.9580 193.7219
" />
<path d="M201.9580 193.7219
L201.8866 193.5790
" />
<path d="M201.8866 193.5790
L201.8866 193.4362
" />
<path d="M201.8866 193.4362
L201.9580 193.2933
" />
<path d="M201.9580 193.2933
L202.1009 193.2219
" />
<path d="M202.1009 193.2219
L202.4580 193.2219
" />
<path d="M202.4580 193.2219
L202.6009 193.1505
" />
<path d="M203.1009 192.7933
L203.6723 192.7933
" />
<path d="M203.3152 192.2933
L203.3152 193.5790
" />
<path d="M203.3152 193.5790
L203.3866 193.7219
" />
<path d="M203.3866 193.7219
L203.5295 193.7933
" />
<path d="M203.5295 193.7933
L203.6723 193.7933
" />
<path d="M204.7437 193.7219
L204.6009 193.7933
" />
<path d="M204.6009 193.7933
L204.3152 193.7933
" />
<path d="M204.3152 193.7933
L204.1723 193.7219
" />
<path d="M204.1723 193.7219
L204.1009 193.5790
" />
<path d="M204.1009 193.5790
L204.1009 193.0076
" />
<path d="M204.1009 193.0076
L204.1723 192.8648
" />
<path d="M204.1723 192.8648
L204.3152 192.7933
" />
<path d="M204.3152 192.7933
L204.6009 192.7933
" />
<path d="M204.6009 192.7933
L204.7437 192.8648
" />
<path d="M204.7437 192.8648
L204.8152 193.0076
" />
<path d="M204.8152 193.0076
L204.8152 193.1505
" />
<path d="M204.8152 193.1505
L204.1009 193.2933
" />
<path d="M205.4580 193.6505
L205.5295 193.7219
" />
<path d="M205.5295 193.7219
L205.4580 193.7933
" />
<path d="M205.4580 193.7933
L205.3866 193.7219
" />
<path d="M205.3866 193.7219
L205.4580 193.6505
" />
<path d="M205.4580 193.6505
L205.4580 193.7933
" />
<path d="M205.4580 192.8648
L205.5295 192.9362
" />
<path d="M205.5295 192.9362
L205.4580 193.0076
" />
<path d="M205.4580 193.0076
L205.3866 192.9362
" />
<path d="M205.3866 192.9362
L205.4580 192.8648
" />
<path d="M205.4580 192.8648
L205.4580 193.0076
" />
</g></g>
<g style="fill:none; 
stroke:#000000; stroke-width:0.1500; stroke-opacity:1; 
stroke-linecap:round; stroke-linejoin:round;">
<path d="M177.0022 194.5072
L285.0022 194.5072
" />
</g>
<g style="fill:none; 
stroke:#000000; stroke-width:0.1500; stroke-opacity:1; 
stroke-linecap:round; stroke-linejoin:round;">
<text x="178.0022" y="196.6572"
textLength="20.8643" font-size="2.0000" lengthAdjust="spacingAndGlyphs"
text-anchor="start" opacity="0">KiCad E.D.A. 8.0.0</text>
<g class="stroked-text"><desc>KiCad E.D.A. 8.0.0</desc>
<path d="M178.4580 196.5933
L178.4580 195.0933
" />
<path d="M179.3152 196.5933
L178.6723 195.7362
" />
<path d="M179.3152 195.0933
L178.4580 195.9505
" />
<path d="M179.9580 196.5933
L179.9580 195.5933
" />
<path d="M179.9580 195.0933
L179.8866 195.1648
" />
<path d="M179.8866 195.1648
L179.9580 195.2362
" />
<path d="M179.9580 195.2362
L180.0295 195.1648
" />
<path d="M180.0295 195.1648
L179.9580 195.0933
" />
<path d="M179.9580 195.0933
L179.9580 195.2362
" />
<path d="M181.5295 196.4505
L181.4580 196.5219
" />
<path d="M181.4580 196.5219
L181.2437 196.5933
" />
<path d="M181.2437 196.5933
L181.1009 196.5933
" />
<path d="M181.1009 196.5933
L180.8866 196.5219
" />
<path d="M180.8866 196.5219
L180.7437 196.3790
" />
<path d="M180.7437 196.3790
L180.6723 196.2362
" />
<path d="M180.6723 196.2362
L180.6009 195.9505
" />
<path d="M180.6009 195.9505
L180.6009 195.7362
" />
<path d="M180.6009 195.7362
L180.6723 195.4505
" />
<path d="M180.6723 195.4505
L180.7437 195.3076
" />
<path d="M180.7437 195.3076
L180.8866 195.1648
" />
<path d="M180.8866 195.1648
L181.1009 195.0933
" />
<path d="M181.1009 195.0933
L181.2437 195.0933
" />
<path d="M181.2437 195.0933
L181.4580 195.1648
" />
<path d="M181.4580 195.1648
L181.5295 195.2362
" />
<path d="M182.8152 196.5933
L182.8152 195.8076
" />
<path d="M182.8152 195.8076
L182.7437 195.6648
" />
<path d="M182.7437 195.6648
L182.6009 195.5933
" />
<path d="M182.6009 195.5933
L182.3152 195.5933
" />
<path d="M182.3152 195.5933
L182.1723 195.6648
" />
<path d="M182.8152 196.5219
L182.6723 196.5933
" />
<path d="M182.6723 196.5933
L182.3152 196.5933
" />
<path d="M182.3152 196.5933
L182.1723 196.5219
" />
<path d="M182.1723 196.5219
L182.1009 196.3790
" />
<path d="M182.1009 196.3790
L182.1009 196.2362
" />
<path d="M182.1009 196.2362
L182.1723 196.0933
" />
<path d="M182.1723 196.0933
L182.3152 196.0219
" />
<path d="M182.3152 196.0219
L182.6723 196.0219
" />
<path d="M182.6723 196.0219
L182.8152 195.9505
" />
<path d="M184.1723 196.5933
L184.1723 195.0933
" />
<path d="M184.1723 196.5219
L184.0295 196.5933
" />
<path d="M184.0295 196.5933
L183.7437 196.5933
" />
<path d="M183.7437 196.5933
L183.6009 196.5219
" />
<path d="M183.6009 196.5219
L183.5295 196.4505
" />
<path d="M183.5295 196.4505
L183.4580 196.3076
" />
<path d="M183.4580 196.3076
L183.4580 195.8790
" />
<path d="M183.4580 195.8790
L183.5295 195.7362
" />
<path d="M183.5295 195.7362
L183.6009 195.6648
" />
<path d="M183.6009 195.6648
L183.7437 195.5933
" />
<path d="M183.7437 195.5933
L184.0295 195.5933
" />
<path d="M184.0295 195.5933
L184.1723 195.6648
" />
<path d="M186.0295 195.8076
L186.5295 195.8076
" />
<path d="M186.7437 196.5933
L186.0295 196.5933
" />
<path d="M186.0295 196.5933
L186.0295 195.0933
" />
<path d="M186.0295 195.0933
L186.7437 195.0933
" />
<path d="M187.3866 196.4505
L187.4580 196.5219
" />
<path d="M187.4580 196.5219
L187.3866 196.5933
" />
<path d="M187.3866 196.5933
L187.3152 196.5219
" />
<path d="M187.3152 196.5219
L187.3866 196.4505
" />
<path d="M187.3866 196.4505
L187.3866 196.5933
" />
<path d="M188.1009 196.5933
L188.1009 195.0933
" />
<path d="M188.1009 195.0933
L188.4580 195.0933
" />
<path d="M188.4580 195.0933
L188.6723 195.1648
" />
<path d="M188.6723 195.1648
L188.8152 195.3076
" />
<path d="M188.8152 195.3076
L188.8866 195.4505
" />
<path d="M188.8866 195.4505
L188.9580 195.7362
" />
<path d="M188.9580 195.7362
L188.9580 195.9505
" />
<path d="M188.9580 195.9505
L188.8866 196.2362
" />
<path d="M188.8866 196.2362
L188.8152 196.3790
" />
<path d="M188.8152 196.3790
L188.6723 196.5219
" />
<path d="M188.6723 196.5219
L188.4580 196.5933
" />
<path d="M188.4580 196.5933
L188.1009 196.5933
" />
<path d="M189.6009 196.4505
L189.6723 196.5219
" />
<path d="M189.6723 196.5219
L189.6009 196.5933
" />
<path d="M189.6009 196.5933
L189.5295 196.5219
" />
<path d="M189.5295 196.5219
L189.6009 196.4505
" />
<path d="M189.6009 196.4505
L189.6009 196.5933
" />
<path d="M190.2437 196.1648
L190.9580 196.1648
" />
<path d="M190.1009 196.5933
L190.6009 195.0933
" />
<path d="M190.6009 195.0933
L191.1009 196.5933
" />
<path d="M191.6009 196.4505
L191.6723 196.5219
" />
<path d="M191.6723 196.5219
L191.6009 196.5933
" />
<path d="M191.6009 196.5933
L191.5295 196.5219
" />
<path d="M191.5295 196.5219
L191.6009 196.4505
" />
<path d="M191.6009 196.4505
L191.6009 196.5933
" />
<path d="M193.6723 195.7362
L193.5295 195.6648
" />
<path d="M193.5295 195.6648
L193.4580 195.5933
" />
<path d="M193.4580 195.5933
L193.3866 195.4505
" />
<path d="M193.3866 195.4505
L193.3866 195.3790
" />
<path d="M193.3866 195.3790
L193.4580 195.2362
" />
<path d="M193.4580 195.2362
L193.5295 195.1648
" />
<path d="M193.5295 195.1648
L193.6723 195.0933
" />
<path d="M193.6723 195.0933
L193.9580 195.0933
" />
<path d="M193.9580 195.0933
L194.1009 195.1648
" />
<path d="M194.1009 195.1648
L194.1723 195.2362
" />
<path d="M194.1723 195.2362
L194.2437 195.3790
" />
<path d="M194.2437 195.3790
L194.2437 195.4505
" />
<path d="M194.2437 195.4505
L194.1723 195.5933
" />
<path d="M194.1723 195.5933
L194.1009 195.6648
" />
<path d="M194.1009 195.6648
L193.9580 195.7362
" />
<path d="M193.9580 195.7362
L193.6723 195.7362
" />
<path d="M193.6723 195.7362
L193.5295 195.8076
" />
<path d="M193.5295 195.8076
L193.4580 195.8790
" />
<path d="M193.4580 195.8790
L193.3866 196.0219
" />
<path d="M193.3866 196.0219
L193.3866 196.3076
" />
<path d="M193.3866 196.3076
L193.4580 196.4505
" />
<path d="M193.4580 196.4505
L193.5295 196.5219
" />
<path d="M193.5295 196.5219
L193.6723 196.5933
" />
<path d="M193.6723 196.5933
L193.9580 196.5933
" />
<path d="M193.9580 196.5933
L194.1009 196.5219
" />
<path d="M194.1009 196.5219
L194.1723 196.4505
" />
<path d="M194.1723 196.4505
L194.2437 196.3076
" />
<path d="M194.2437 196.3076
L194.2437 196.0219
" />
<path d="M194.2437 196.0219
L194.1723 195.8790
" />
<path d="M194.1723 195.8790
L194.1009 195.8076
" />
<path d="M194.1009 195.8076
L193.9580 195.7362
" />
<path d="M194.8866 196.4505
L194.9580 196.5219
" />
<path d="M194.9580 196.5219
L194.8866 196.5933
" />
<path d="M194.8866 196.5933
L194.8152 196.5219
" />
<path d="M194.8152 196.5219
L194.8866 196.4505
" />
<path d="M194.8866 196.4505
L194.8866 196.5933
" />
<path d="M195.8866 195.0933
L196.0295 195.0933
" />
<path d="M196.0295 195.0933
L196.1723 195.1648
" />
<path d="M196.1723 195.1648
L196.2437 195.2362
" />
<path d="M196.2437 195.2362
L196.3152 195.3790
" />
<path d="M196.3152 195.3790
L196.3866 195.6648
" />
<path d="M196.3866 195.6648
L196.3866 196.0219
" />
<path d="M196.3866 196.0219
L196.3152 196.3076
" />
<path d="M196.3152 196.3076
L196.2437 196.4505
" />
<path d="M196.2437 196.4505
L196.1723 196.5219
" />
<path d="M196.1723 196.5219
L196.0295 196.5933
" />
<path d="M196.0295 196.5933
L195.8866 196.5933
" />
<path d="M195.8866 196.5933
L195.7437 196.5219
" />
<path d="M195.7437 196.5219
L195.6723 196.4505
" />
<path d="M195.6723 196.4505
L195.6009 196.3076
" />
<path d="M195.6009 196.3076
L195.5295 196.0219
" />
<path d="M195.5295 196.0219
L195.5295 195.6648
" />
<path d="M195.5295 195.6648
L195.6009 195.3790
" />
<path d="M195.6009 195.3790
L195.6723 195.2362
" />
<path d="M195.6723 195.2362
L195.7437 195.1648
" />
<path d="M195.7437 195.1648
L195.8866 195.0933
" />
<path d="M197.0295 196.4505
L197.1009 196.5219
" />
<path d="M197.1009 196.5219
L197.0295 196.5933
" />
<path d="M197.0295 196.5933
L196.9580 196.5219
" />
<path d="M196.9580 196.5219
L197.0295 196.4505
" />
<path d="M197.0295 196.4505
L197.0295 196.5933
" />
<path d="M198.0295 195.0933
L198.1723 195.0933
" />
<path d="M198.1723 195.0933
L198.3152 195.1648
" />
<path d="M198.3152 195.1648
L198.3866 195.2362
" />
<path d="M198.3866 195.2362
L198.4580 195.3790
" />
<path d="M198.4580 195.3790
L198.5295 195.6648
" />
<path d="M198.5295 195.6648
L198.5295 196.0219
" />
<path d="M198.5295 196.0219
L198.4580 196.3076
" />
<path d="M198.4580 196.3076
L198.3866 196.4505
" />
<path d="M198.3866 196.4505
L198.3152 196.5219
" />
<path d="M198.3152 196.5219
L198.1723 196.5933
" />
<path d="M198.1723 196.5933
L198.0295 196.5933
" />
<path d="M198.0295 196.5933
L197.8866 196.5219
" />
<path d="M197.8866 196.5219
L197.8152 196.4505
" />
<path d="M197.8152 196.4505
L197.7437 196.3076
" />
<path d="M197.7437 196.3076
L197.6723 196.0219
" />
<path d="M197.6723 196.0219
L197.6723 195.6648
" />
<path d="M197.6723 195.6648
L197.7437 195.3790
" />
<path d="M197.7437 195.3790
L197.8152 195.2362
" />
<path d="M197.8152 195.2362
L197.8866 195.1648
" />
<path d="M197.8866 195.1648
L198.0295 195.0933
" />
</g></g>
<g style="fill:none; 
stroke:#000000; stroke-width:0.1500; stroke-opacity:1; 
stroke-linecap:round; stroke-linejoin:round;">
<path d="M177.0022 191.5072
L285.0022 191.5072
" />
</g>
<g style="fill:none; 
stroke:#000000; stroke-width:0.3000; stroke-opacity:1; 
stroke-linecap:round; stroke-linejoin:round;">
<text x="263.0022" y="193.8572"
textLength="6.3857" font-size="2.0000" lengthAdjust="spacingAndGlyphs"
text-anchor="start" opacity="0">Rev: </text>
<g class="stroked-text"><desc>Rev: </desc>
<path d="M264.4139 193.7855
L263.9139 193.0712
" />
<path d="M263.5567 193.7855
L263.5567 192.2855
" />
<path d="M263.5567 192.2855
L264.1281 192.2855
" />
<path d="M264.1281 192.2855
L264.2710 192.3570
" />
<path d="M264.2710 192.3570
L264.3424 192.4284
" />
<path d="M264.3424 192.4284
L264.4139 192.5712
" />
<path d="M264.4139 192.5712
L264.4139 192.7855
" />
<path d="M264.4139 192.7855
L264.3424 192.9284
" />
<path d="M264.3424 192.9284
L264.2710 192.9998
" />
<path d="M264.2710 192.9998
L264.1281 193.0712
" />
<path d="M264.1281 193.0712
L263.5567 193.0712
" />
<path d="M265.6281 193.7141
L265.4853 193.7855
" />
<path d="M265.4853 193.7855
L265.1996 193.7855
" />
<path d="M265.1996 193.7855
L265.0567 193.7141
" />
<path d="M265.0567 193.7141
L264.9853 193.5712
" />
<path d="M264.9853 193.5712
L264.9853 192.9998
" />
<path d="M264.9853 192.9998
L265.0567 192.8570
" />
<path d="M265.0567 192.8570
L265.1996 192.7855
" />
<path d="M265.1996 192.7855
L265.4853 192.7855
" />
<path d="M265.4853 192.7855
L265.6281 192.8570
" />
<path d="M265.6281 192.8570
L265.6996 192.9998
" />
<path d="M265.6996 192.9998
L265.6996 193.1427
" />
<path d="M265.6996 193.1427
L264.9853 193.2855
" />
<path d="M266.1996 192.7855
L266.5567 193.7855
" />
<path d="M266.5567 193.7855
L266.9139 192.7855
" />
<path d="M267.4853 193.6427
L267.5567 193.7141
" />
<path d="M267.5567 193.7141
L267.4853 193.7855
" />
<path d="M267.4853 193.7855
L267.4139 193.7141
" />
<path d="M267.4139 193.7141
L267.4853 193.6427
" />
<path d="M267.4853 193.6427
L267.4853 193.7855
" />
<path d="M267.4853 192.8570
L267.5567 192.9284
" />
<path d="M267.5567 192.9284
L267.4853 192.9998
" />
<path d="M267.4853 192.9998
L267.4139 192.9284
" />
<path d="M267.4139 192.9284
L267.4853 192.8570
" />
<path d="M267.4853 192.8570
L267.4853 192.9998
" />
</g></g>
<g style="fill:none; 
stroke:#000000; stroke-width:0.1500; stroke-opacity:1; 
stroke-linecap:round; stroke-linejoin:round;">
<text x="178.0022" y="193.8572"
textLength="9.3643" font-size="2.0000" lengthAdjust="spacingAndGlyphs"
text-anchor="start" opacity="0">Size: A4</text>
<g class="stroked-text"><desc>Size: A4</desc>
<path d="M178.3866 193.7219
L178.6009 193.7933
" />
<path d="M178.6009 193.7933
L178.9580 193.7933
" />
<path d="M178.9580 193.7933
L179.1009 193.7219
" />
<path d="M179.1009 193.7219
L179.1723 193.6505
" />
<path d="M179.1723 193.6505
L179.2437 193.5076
" />
<path d="M179.2437 193.5076
L179.2437 193.3648
" />
<path d="M179.2437 193.3648
L179.1723 193.2219
" />
<path d="M179.1723 193.2219
L179.1009 193.1505
" />
<path d="M179.1009 193.1505
L178.9580 193.0790
" />
<path d="M178.9580 193.0790
L178.6723 193.0076
" />
<path d="M178.6723 193.0076
L178.5295 192.9362
" />
<path d="M178.5295 192.9362
L178.4580 192.8648
" />
<path d="M178.4580 192.8648
L178.3866 192.7219
" />
<path d="M178.3866 192.7219
L178.3866 192.5790
" />
<path d="M178.3866 192.5790
L178.4580 192.4362
" />
<path d="M178.4580 192.4362
L178.5295 192.3648
" />
<path d="M178.5295 192.3648
L178.6723 192.2933
" />
<path d="M178.6723 192.2933
L179.0295 192.2933
" />
<path d="M179.0295 192.2933
L179.2437 192.3648
" />
<path d="M179.8866 193.7933
L179.8866 192.7933
" />
<path d="M179.8866 192.2933
L179.8152 192.3648
" />
<path d="M179.8152 192.3648
L179.8866 192.4362
" />
<path d="M179.8866 192.4362
L179.9580 192.3648
" />
<path d="M179.9580 192.3648
L179.8866 192.2933
" />
<path d="M179.8866 192.2933
L179.8866 192.4362
" />
<path d="M180.4580 192.7933
L181.2437 192.7933
" />
<path d="M181.2437 192.7933
L180.4580 193.7933
" />
<path d="M180.4580 193.7933
L181.2437 193.7933
" />
<path d="M182.3866 193.7219
L182.2437 193.7933
" />
<path d="M182.2437 193.7933
L181.9580 193.7933
" />
<path d="M181.9580 193.7933
L181.8152 193.7219
" />
<path d="M181.8152 193.7219
L181.7437 193.5790
" />
<path d="M181.7437 193.5790
L181.7437 193.0076
" />
<path d="M181.7437 193.0076
L181.8152 192.8648
" />
<path d="M181.8152 192.8648
L181.9580 192.7933
" />
<path d="M181.9580 192.7933
L182.2437 192.7933
" />
<path d="M182.2437 192.7933
L182.3866 192.8648
" />
<path d="M182.3866 192.8648
L182.4580 193.0076
" />
<path d="M182.4580 193.0076
L182.4580 193.1505
" />
<path d="M182.4580 193.1505
L181.7437 193.2933
" />
<path d="M183.1009 193.6505
L183.1723 193.7219
" />
<path d="M183.1723 193.7219
L183.1009 193.7933
" />
<path d="M183.1009 193.7933
L183.0295 193.7219
" />
<path d="M183.0295 193.7219
L183.1009 193.6505
" />
<path d="M183.1009 193.6505
L183.1009 193.7933
" />
<path d="M183.1009 192.8648
L183.1723 192.9362
" />
<path d="M183.1723 192.9362
L183.1009 193.0076
" />
<path d="M183.1009 193.0076
L183.0295 192.9362
" />
<path d="M183.0295 192.9362
L183.1009 192.8648
" />
<path d="M183.1009 192.8648
L183.1009 193.0076
" />
<path d="M184.8866 193.3648
L185.6009 193.3648
" />
<path d="M184.7437 193.7933
L185.2437 192.2933
" />
<path d="M185.2437 192.2933
L185.7437 193.7933
" />
<path d="M186.8866 192.7933
L186.8866 193.7933
" />
<path d="M186.5295 192.2219
L186.1723 193.2933
" />
<path d="M186.1723 193.2933
L187.1009 193.2933
" />
</g></g>
<g style="fill:none; 
stroke:#000000; stroke-width:0.1500; stroke-opacity:1; 
stroke-linecap:round; stroke-linejoin:round;">
<text x="263.0022" y="196.6572"
textLength="8.5071" font-size="2.0000" lengthAdjust="spacingAndGlyphs"
text-anchor="start" opacity="0">Id: 1/1</text>
<g class="stroked-text"><desc>Id: 1/1</desc>
<path d="M263.4580 196.5933
L263.4580 195.0933
" />
<path d="M264.8152 196.5933
L264.8152 195.0933
" />
<path d="M264.8152 196.5219
L264.6723 196.5933
" />
<path d="M264.6723 196.5933
L264.3866 196.5933
" />
<path d="M264.3866 196.5933
L264.2437 196.5219
" />
<path d="M264.2437 196.5219
L264.1723 196.4505
" />
<path d="M264.1723 196.4505
L264.1009 196.3076
" />
<path d="M264.1009 196.3076
L264.1009 195.8790
" />
<path d="M264.1009 195.8790
L264.1723 195.7362
" />
<path d="M264.1723 195.7362
L264.2437 195.6648
" />
<path d="M264.2437 195.6648
L264.3866 195.5933
" />
<path d="M264.3866 195.5933
L264.6723 195.5933
" />
<path d="M264.6723 195.5933
L264.8152 195.6648
" />
<path d="M265.5295 196.4505
L265.6009 196.5219
" />
<path d="M265.6009 196.5219
L265.5295 196.5933
" />
<path d="M265.5295 196.5933
L265.4580 196.5219
" />
<path d="M265.4580 196.5219
L265.5295 196.4505
" />
<path d="M265.5295 196.4505
L265.5295 196.5933
" />
<path d="M265.5295 195.6648
L265.6009 195.7362
" />
<path d="M265.6009 195.7362
L265.5295 195.8076
" />
<path d="M265.5295 195.8076
L265.4580 195.7362
" />
<path d="M265.4580 195.7362
L265.5295 195.6648
" />
<path d="M265.5295 195.6648
L265.5295 195.8076
" />
<path d="M268.1723 196.5933
L267.3152 196.5933
" />
<path d="M267.7437 196.5933
L267.7437 195.0933
" />
<path d="M267.7437 195.0933
L267.6009 195.3076
" />
<path d="M267.6009 195.3076
L267.4580 195.4505
" />
<path d="M267.4580 195.4505
L267.3152 195.5219
" />
<path d="M269.8866 195.0219
L268.6009 196.9505
" />
<path d="M271.1723 196.5933
L270.3152 196.5933
" />
<path d="M270.7437 196.5933
L270.7437 195.0933
" />
<path d="M270.7437 195.0933
L270.6009 195.3076
" />
<path d="M270.6009 195.3076
L270.4580 195.4505
" />
<path d="M270.4580 195.4505
L270.3152 195.5219
" />
</g></g>
<g style="fill:none; 
stroke:#000000; stroke-width:0.1500; stroke-opacity:1; 
stroke-linecap:round; stroke-linejoin:round;">
<path d="M177.0022 187.5072
L285.0022 187.5072
" />
</g>
<g style="fill:none; 
stroke:#000000; stroke-width:0.4000; stroke-opacity:1; 
stroke-linecap:round; stroke-linejoin:round;">
<text x="178.0022" y="190.3072"
textLength="9.6571" font-size="2.6667" lengthAdjust="spacingAndGlyphs"
text-anchor="start" opacity="0">Title: </text>
<g class="stroked-text"><desc>Title: </desc>
<path d="M178.6939 188.2116
L179.8368 188.2116
" />
<path d="M179.0154 190.2116
L179.2654 188.2116
" />
<path d="M180.2535 190.2116
L180.4201 188.8783
" />
<path d="M180.5035 188.2116
L180.3963 188.3069
" />
<path d="M180.3963 188.3069
L180.4796 188.4021
" />
<path d="M180.4796 188.4021
L180.5868 188.3069
" />
<path d="M180.5868 188.3069
L180.5035 188.2116
" />
<path d="M180.5035 188.2116
L180.4796 188.4021
" />
<path d="M181.0868 188.8783
L181.8487 188.8783
" />
<path d="M181.4558 188.2116
L181.2415 189.9259
" />
<path d="M181.2415 189.9259
L181.3130 190.1164
" />
<path d="M181.3130 190.1164
L181.4915 190.2116
" />
<path d="M181.4915 190.2116
L181.6820 190.2116
" />
<path d="M182.6344 190.2116
L182.4558 190.1164
" />
<path d="M182.4558 190.1164
L182.3844 189.9259
" />
<path d="M182.3844 189.9259
L182.5987 188.2116
" />
<path d="M184.1701 190.1164
L183.9677 190.2116
" />
<path d="M183.9677 190.2116
L183.5868 190.2116
" />
<path d="M183.5868 190.2116
L183.4082 190.1164
" />
<path d="M183.4082 190.1164
L183.3368 189.9259
" />
<path d="M183.3368 189.9259
L183.4320 189.1640
" />
<path d="M183.4320 189.1640
L183.5511 188.9735
" />
<path d="M183.5511 188.9735
L183.7535 188.8783
" />
<path d="M183.7535 188.8783
L184.1344 188.8783
" />
<path d="M184.1344 188.8783
L184.3130 188.9735
" />
<path d="M184.3130 188.9735
L184.3844 189.1640
" />
<path d="M184.3844 189.1640
L184.3606 189.3545
" />
<path d="M184.3606 189.3545
L183.3844 189.5450
" />
<path d="M185.1344 190.0212
L185.2177 190.1164
" />
<path d="M185.2177 190.1164
L185.1106 190.2116
" />
<path d="M185.1106 190.2116
L185.0273 190.1164
" />
<path d="M185.0273 190.1164
L185.1344 190.0212
" />
<path d="M185.1344 190.0212
L185.1106 190.2116
" />
<path d="M185.2654 188.9735
L185.3487 189.0688
" />
<path d="M185.3487 189.0688
L185.2415 189.1640
" />
<path d="M185.2415 189.1640
L185.1582 189.0688
" />
<path d="M185.1582 189.0688
L185.2654 188.9735
" />
<path d="M185.2654 188.9735
L185.2415 189.1640
" />
</g></g>
<g style="fill:none; 
stroke:#000000; stroke-width:0.1500; stroke-opacity:1; 
stroke-linecap:round; stroke-linejoin:round;">
<text x="178.0022" y="186.4572"
textLength="25.5786" font-size="2.0000" lengthAdjust="spacingAndGlyphs"
text-anchor="start" opacity="0">File: miwhip.kicad_pcb</text>
<g class="stroked-text"><desc>File: miwhip.kicad_pcb</desc>
<path d="M178.9580 185.6076
L178.4580 185.6076
" />
<path d="M178.4580 186.3933
L178.4580 184.8933
" />
<path d="M178.4580 184.8933
L179.1723 184.8933
" />
<path d="M179.7437 186.3933
L179.7437 185.3933
" />
<path d="M179.7437 184.8933
L179.6723 184.9648
" />
<path d="M179.6723 184.9648
L179.7437 185.0362
" />
<path d="M179.7437 185.0362
L179.8152 184.9648
" />
<path d="M179.8152 184.9648
L179.7437 184.8933
" />
<path d="M179.7437 184.8933
L179.7437 185.0362
" />
<path d="M180.6723 186.3933
L180.5295 186.3219
" />
<path d="M180.5295 186.3219
L180.4580 186.1790
" />
<path d="M180.4580 186.1790
L180.4580 184.8933
" />
<path d="M181.8152 186.3219
L181.6723 186.3933
" />
<path d="M181.6723 186.3933
L181.3866 186.3933
" />
<path d="M181.3866 186.3933
L181.2437 186.3219
" />
<path d="M181.2437 186.3219
L181.1723 186.1790
" />
<path d="M181.1723 186.1790
L181.1723 185.6076
" />
<path d="M181.1723 185.6076
L181.2437 185.4648
" />
<path d="M181.2437 185.4648
L181.3866 185.3933
" />
<path d="M181.3866 185.3933
L181.6723 185.3933
" />
<path d="M181.6723 185.3933
L181.8152 185.4648
" />
<path d="M181.8152 185.4648
L181.8866 185.6076
" />
<path d="M181.8866 185.6076
L181.8866 185.7505
" />
<path d="M181.8866 185.7505
L181.1723 185.8933
" />
<path d="M182.5295 186.2505
L182.6009 186.3219
" />
<path d="M182.6009 186.3219
L182.5295 186.3933
" />
<path d="M182.5295 186.3933
L182.4580 186.3219
" />
<path d="M182.4580 186.3219
L182.5295 186.2505
" />
<path d="M182.5295 186.2505
L182.5295 186.3933
" />
<path d="M182.5295 185.4648
L182.6009 185.5362
" />
<path d="M182.6009 185.5362
L182.5295 185.6076
" />
<path d="M182.5295 185.6076
L182.4580 185.5362
" />
<path d="M182.4580 185.5362
L182.5295 185.4648
" />
<path d="M182.5295 185.4648
L182.5295 185.6076
" />
<path d="M184.3866 186.3933
L184.3866 185.3933
" />
<path d="M184.3866 185.5362
L184.4580 185.4648
" />
<path d="M184.4580 185.4648
L184.6009 185.3933
" />
<path d="M184.6009 185.3933
L184.8152 185.3933
" />
<path d="M184.8152 185.3933
L184.9580 185.4648
" />
<path d="M184.9580 185.4648
L185.0295 185.6076
" />
<path d="M185.0295 185.6076
L185.0295 186.3933
" />
<path d="M185.0295 185.6076
L185.1009 185.4648
" />
<path d="M185.1009 185.4648
L185.2437 185.3933
" />
<path d="M185.2437 185.3933
L185.4580 185.3933
" />
<path d="M185.4580 185.3933
L185.6009 185.4648
" />
<path d="M185.6009 185.4648
L185.6723 185.6076
" />
<path d="M185.6723 185.6076
L185.6723 186.3933
" />
<path d="M186.3866 186.3933
L186.3866 185.3933
" />
<path d="M186.3866 184.8933
L186.3152 184.9648
" />
<path d="M186.3152 184.9648
L186.3866 185.0362
" />
<path d="M186.3866 185.0362
L186.4580 184.9648
" />
<path d="M186.4580 184.9648
L186.3866 184.8933
" />
<path d="M186.3866 184.8933
L186.3866 185.0362
" />
<path d="M186.9580 185.3933
L187.2437 186.3933
" />
<path d="M187.2437 186.3933
L187.5295 185.6790
" />
<path d="M187.5295 185.6790
L187.8152 186.3933
" />
<path d="M187.8152 186.3933
L188.1009 185.3933
" />
<path d="M188.6723 186.3933
L188.6723 184.8933
" />
<path d="M189.3152 186.3933
L189.3152 185.6076
" />
<path d="M189.3152 185.6076
L189.2437 185.4648
" />
<path d="M189.2437 185.4648
L189.1009 185.3933
" />
<path d="M189.1009 185.3933
L188.8866 185.3933
" />
<path d="M188.8866 185.3933
L188.7437 185.4648
" />
<path d="M188.7437 185.4648
L188.6723 185.5362
" />
<path d="M190.0295 186.3933
L190.0295 185.3933
" />
<path d="M190.0295 184.8933
L189.9580 184.9648
" />
<path d="M189.9580 184.9648
L190.0295 185.0362
" />
<path d="M190.0295 185.0362
L190.1009 184.9648
" />
<path d="M190.1009 184.9648
L190.0295 184.8933
" />
<path d="M190.0295 184.8933
L190.0295 185.0362
" />
<path d="M190.7437 185.3933
L190.7437 186.8933
" />
<path d="M190.7437 185.4648
L190.8866 185.3933
" />
<path d="M190.8866 185.3933
L191.1723 185.3933
" />
<path d="M191.1723 185.3933
L191.3152 185.4648
" />
<path d="M191.3152 185.4648
L191.3866 185.5362
" />
<path d="M191.3866 185.5362
L191.4580 185.6790
" />
<path d="M191.4580 185.6790
L191.4580 186.1076
" />
<path d="M191.4580 186.1076
L191.3866 186.2505
" />
<path d="M191.3866 186.2505
L191.3152 186.3219
" />
<path d="M191.3152 186.3219
L191.1723 186.3933
" />
<path d="M191.1723 186.3933
L190.8866 186.3933
" />
<path d="M190.8866 186.3933
L190.7437 186.3219
" />
<path d="M192.1009 186.2505
L192.1723 186.3219
" />
<path d="M192.1723 186.3219
L192.1009 186.3933
" />
<path d="M192.1009 186.3933
L192.0295 186.3219
" />
<path d="M192.0295 186.3219
L192.1009 186.2505
" />
<path d="M192.1009 186.2505
L192.1009 186.3933
" />
<path d="M192.8152 186.3933
L192.8152 184.8933
" />
<path d="M192.9580 185.8219
L193.3866 186.3933
" />
<path d="M193.3866 185.3933
L192.8152 185.9648
" />
<path d="M194.0295 186.3933
L194.0295 185.3933
" />
<path d="M194.0295 184.8933
L193.9580 184.9648
" />
<path d="M193.9580 184.9648
L194.0295 185.0362
" />
<path d="M194.0295 185.0362
L194.1009 184.9648
" />
<path d="M194.1009 184.9648
L194.0295 184.8933
" />
<path d="M194.0295 184.8933
L194.0295 185.0362
" />
<path d="M195.3866 186.3219
L195.2437 186.3933
" />
<path d="M195.2437 186.3933
L194.9580 186.3933
" />
<path d="M194.9580 186.3933
L194.8152 186.3219
" />
<path d="M194.8152 186.3219
L194.7437 186.2505
" />
<path d="M194.7437 186.2505
L194.6723 186.1076
" />
<path d="M194.6723 186.1076
L194.6723 185.6790
" />
<path d="M194.6723 185.6790
L194.7437 185.5362
" />
<path d="M194.7437 185.5362
L194.8152 185.4648
" />
<path d="M194.8152 185.4648
L194.9580 185.3933
" />
<path d="M194.9580 185.3933
L195.2437 185.3933
" />
<path d="M195.2437 185.3933
L195.3866 185.4648
" />
<path d="M196.6723 186.3933
L196.6723 185.6076
" />
<path d="M196.6723 185.6076
L196.6009 185.4648
" />
<path d="M196.6009 185.4648
L196.4580 185.3933
" />
<path d="M196.4580 185.3933
L196.1723 185.3933
" />
<path d="M196.1723 185.3933
L196.0295 185.4648
" />
<path d="M196.6723 186.3219
L196.5295 186.3933
" />
<path d="M196.5295 186.3933
L196.1723 186.3933
" />
<path d="M196.1723 186.3933
L196.0295 186.3219
" />
<path d="M196.0295 186.3219
L195.9580 186.1790
" />
<path d="M195.9580 186.1790
L195.9580 186.0362
" />
<path d="M195.9580 186.0362
L196.0295 185.8933
" />
<path d="M196.0295 185.8933
L196.1723 185.8219
" />
<path d="M196.1723 185.8219
L196.5295 185.8219
" />
<path d="M196.5295 185.8219
L196.6723 185.7505
" />
<path d="M198.0295 186.3933
L198.0295 184.8933
" />
<path d="M198.0295 186.3219
L197.8866 186.3933
" />
<path d="M197.8866 186.3933
L197.6009 186.3933
" />
<path d="M197.6009 186.3933
L197.4580 186.3219
" />
<path d="M197.4580 186.3219
L197.3866 186.2505
" />
<path d="M197.3866 186.2505
L197.3152 186.1076
" />
<path d="M197.3152 186.1076
L197.3152 185.6790
" />
<path d="M197.3152 185.6790
L197.3866 185.5362
" />
<path d="M197.3866 185.5362
L197.4580 185.4648
" />
<path d="M197.4580 185.4648
L197.6009 185.3933
" />
<path d="M197.6009 185.3933
L197.8866 185.3933
" />
<path d="M197.8866 185.3933
L198.0295 185.4648
" />
<path d="M198.3866 186.5362
L199.5295 186.5362
" />
<path d="M199.8866 185.3933
L199.8866 186.8933
" />
<path d="M199.8866 185.4648
L200.0295 185.3933
" />
<path d="M200.0295 185.3933
L200.3152 185.3933
" />
<path d="M200.3152 185.3933
L200.4580 185.4648
" />
<path d="M200.4580 185.4648
L200.5295 185.5362
" />
<path d="M200.5295 185.5362
L200.6009 185.6790
" />
<path d="M200.6009 185.6790
L200.6009 186.1076
" />
<path d="M200.6009 186.1076
L200.5295 186.2505
" />
<path d="M200.5295 186.2505
L200.4580 186.3219
" />
<path d="M200.4580 186.3219
L200.3152 186.3933
" />
<path d="M200.3152 186.3933
L200.0295 186.3933
" />
<path d="M200.0295 186.3933
L199.8866 186.3219
" />
<path d="M201.8866 186.3219
L201.7437 186.3933
" />
<path d="M201.7437 186.3933
L201.4580 186.3933
" />
<path d="M201.4580 186.3933
L201.3152 186.3219
" />
<path d="M201.3152 186.3219
L201.2437 186.2505
" />
<path d="M201.2437 186.2505
L201.1723 186.1076
" />
<path d="M201.1723 186.1076
L201.1723 185.6790
" />
<path d="M201.1723 185.6790
L201.2437 185.5362
" />
<path d="M201.2437 185.5362
L201.3152 185.4648
" />
<path d="M201.3152 185.4648
L201.4580 185.3933
" />
<path d="M201.4580 185.3933
L201.7437 185.3933
" />
<path d="M201.7437 185.3933
L201.8866 185.4648
" />
<path d="M202.5295 186.3933
L202.5295 184.8933
" />
<path d="M202.5295 185.4648
L202.6723 185.3933
" />
<path d="M202.6723 185.3933
L202.9580 185.3933
" />
<path d="M202.9580 185.3933
L203.1009 185.4648
" />
<path d="M203.1009 185.4648
L203.1723 185.5362
" />
<path d="M203.1723 185.5362
L203.2437 185.6790
" />
<path d="M203.2437 185.6790
L203.2437 186.1076
" />
<path d="M203.2437 186.1076
L203.1723 186.2505
" />
<path d="M203.1723 186.2505
L203.1009 186.3219
" />
<path d="M203.1009 186.3219
L202.9580 186.3933
" />
<path d="M202.9580 186.3933
L202.6723 186.3933
" />
<path d="M202.6723 186.3933
L202.5295 186.3219
" />
</g></g>
<g style="fill:none; 
stroke:#000000; stroke-width:0.1500; stroke-opacity:1; 
stroke-linecap:round; stroke-linejoin:round;">
<path d="M177.0022 181.5072
L285.0022 181.5072
" />
</g>
<g style="fill:none; 
stroke:#000000; stroke-width:0.1500; stroke-opacity:1; 
stroke-linecap:round; stroke-linejoin:round;">
<text x="178.0022" y="183.7572"
textLength="8.2214" font-size="2.0000" lengthAdjust="spacingAndGlyphs"
text-anchor="start" opacity="0">Sheet: </text>
<g class="stroked-text"><desc>Sheet: </desc>
<path d="M178.3866 183.6219
L178.6009 183.6933
" />
<path d="M178.6009 183.6933
L178.9580 183.6933
" />
<path d="M178.9580 183.6933
L179.1009 183.6219
" />
<path d="M179.1009 183.6219
L179.1723 183.5505
" />
<path d="M179.1723 183.5505
L179.2437 183.4076
" />
<path d="M179.2437 183.4076
L179.2437 183.2648
" />
<path d="M179.2437 183.2648
L179.1723 183.1219
" />
<path d="M179.1723 183.1219
L179.1009 183.0505
" />
<path d="M179.1009 183.0505
L178.9580 182.9790
" />
<path d="M178.9580 182.9790
L178.6723 182.9076
" />
<path d="M178.6723 182.9076
L178.5295 182.8362
" />
<path d="M178.5295 182.8362
L178.4580 182.7648
" />
<path d="M178.4580 182.7648
L178.3866 182.6219
" />
<path d="M178.3866 182.6219
L178.3866 182.4790
" />
<path d="M178.3866 182.4790
L178.4580 182.3362
" />
<path d="M178.4580 182.3362
L178.5295 182.2648
" />
<path d="M178.5295 182.2648
L178.6723 182.1933
" />
<path d="M178.6723 182.1933
L179.0295 182.1933
" />
<path d="M179.0295 182.1933
L179.2437 182.2648
" />
<path d="M179.8866 183.6933
L179.8866 182.1933
" />
<path d="M180.5295 183.6933
L180.5295 182.9076
" />
<path d="M180.5295 182.9076
L180.4580 182.7648
" />
<path d="M180.4580 182.7648
L180.3152 182.6933
" />
<path d="M180.3152 182.6933
L180.1009 182.6933
" />
<path d="M180.1009 182.6933
L179.9580 182.7648
" />
<path d="M179.9580 182.7648
L179.8866 182.8362
" />
<path d="M181.8152 183.6219
L181.6723 183.6933
" />
<path d="M181.6723 183.6933
L181.3866 183.6933
" />
<path d="M181.3866 183.6933
L181.2437 183.6219
" />
<path d="M181.2437 183.6219
L181.1723 183.4790
" />
<path d="M181.1723 183.4790
L181.1723 182.9076
" />
<path d="M181.1723 182.9076
L181.2437 182.7648
" />
<path d="M181.2437 182.7648
L181.3866 182.6933
" />
<path d="M181.3866 182.6933
L181.6723 182.6933
" />
<path d="M181.6723 182.6933
L181.8152 182.7648
" />
<path d="M181.8152 182.7648
L181.8866 182.9076
" />
<path d="M181.8866 182.9076
L181.8866 183.0505
" />
<path d="M181.8866 183.0505
L181.1723 183.1933
" />
<path d="M183.1009 183.6219
L182.9580 183.6933
" />
<path d="M182.9580 183.6933
L182.6723 183.6933
" />
<path d="M182.6723 183.6933
L182.5295 183.6219
" />
<path d="M182.5295 183.6219
L182.4580 183.4790
" />
<path d="M182.4580 183.4790
L182.4580 182.9076
" />
<path d="M182.4580 182.9076
L182.5295 182.7648
" />
<path d="M182.5295 182.7648
L182.6723 182.6933
" />
<path d="M182.6723 182.6933
L182.9580 182.6933
" />
<path d="M182.9580 182.6933
L183.1009 182.7648
" />
<path d="M183.1009 182.7648
L183.1723 182.9076
" />
<path d="M183.1723 182.9076
L183.1723 183.0505
" />
<path d="M183.1723 183.0505
L182.4580 183.1933
" />
<path d="M183.6009 182.6933
L184.1723 182.6933
" />
<path d="M183.8152 182.1933
L183.8152 183.4790
" />
<path d="M183.8152 183.4790
L183.8866 183.6219
" />
<path d="M183.8866 183.6219
L184.0295 183.6933
" />
<path d="M184.0295 183.6933
L184.1723 183.6933
" />
<path d="M184.6723 183.5505
L184.7437 183.6219
" />
<path d="M184.7437 183.6219
L184.6723 183.6933
" />
<path d="M184.6723 183.6933
L184.6009 183.6219
" />
<path d="M184.6009 183.6219
L184.6723 183.5505
" />
<path d="M184.6723 183.5505
L184.6723 183.6933
" />
<path d="M184.6723 182.7648
L184.7437 182.8362
" />
<path d="M184.7437 182.8362
L184.6723 182.9076
" />
<path d="M184.6723 182.9076
L184.6009 182.8362
" />
<path d="M184.6009 182.8362
L184.6723 182.7648
" />
<path d="M184.6723 182.7648
L184.6723 182.9076
" />
</g></g>
<g style="fill:none; 
stroke:#000000; stroke-width:0.3000; stroke-opacity:1; 
stroke-linecap:round; stroke-linejoin:round;">
<text x="178.0022" y="180.7572"
textLength="0.9000" font-size="2.0000" lengthAdjust="spacingAndGlyphs"
text-anchor="start" opacity="0"></text>
<g class="stroked-text"><desc></desc>
</g></g>
<g style="fill:none; 
stroke:#000000; stroke-width:0.1500; stroke-opacity:1; 
stroke-linecap:round; stroke-linejoin:round;">
<text x="178.0022" y="177.7572"
textLength="0.4500" font-size="2.0000" lengthAdjust="spacingAndGlyphs"
text-anchor="start" opacity="0"></text>
<g class="stroked-text"><desc></desc>
</g></g>
<g style="fill:none; 
stroke:#000000; stroke-width:0.1500; stroke-opacity:1; 
stroke-linecap:round; stroke-linejoin:round;">
<text x="178.0022" y="174.7572"
textLength="0.4500" font-size="2.0000" lengthAdjust="spacingAndGlyphs"
text-anchor="start" opacity="0"></text>
<g class="stroked-text"><desc></desc>
</g></g>
<g style="fill:none; 
stroke:#000000; stroke-width:0.1500; stroke-opacity:1; 
stroke-linecap:round; stroke-linejoin:round;">
<text x="178.0022" y="171.7572"
textLength="0.4500" font-size="2.0000" lengthAdjust="spacingAndGlyphs"
text-anchor="start" opacity="0"></text>
<g class="stroked-text"><desc></desc>
</g></g>
<g style="fill:none; 
stroke:#000000; stroke-width:0.1500; stroke-opacity:1; 
stroke-linecap:round; stroke-linejoin:round;">
<text x="178.0022" y="168.7572"
textLength="0.4500" font-size="2.0000" lengthAdjust="spacingAndGlyphs"
text-anchor="start" opacity="0"></text>
<g class="stroked-text"><desc></desc>
</g></g>
<g style="fill:none; 
stroke:#000000; stroke-width:0.1500; stroke-opacity:1; 
stroke-linecap:round; stroke-linejoin:round;">
<path d="M197.0022 191.5072
L197.0022 194.5072
" />
</g>
<g style="fill:none; 
stroke:#000000; stroke-width:0.1500; stroke-opacity:1; 
stroke-linecap:round; stroke-linejoin:round;">
<path d="M261.0022 191.5072
L261.0022 198.0072
" />
</g>
<g style="fill:#4D7FC4; fill-opacity:1.0000; stroke:none;">
<circle cx="139.0000" cy="112.0000" r="1.0000" /> 
</g>
<g style="fill:#4D7FC4; fill-opacity:1.0000; stroke:none;">
<circle cx="191.5000" cy="106.5000" r="1.0000" /> 
</g>
<g style="fill:#4D7FC4; fill-opacity:1.0000; stroke:none;">
<circle cx="187.7000" cy="106.6600" r="0.8000" /> 
<circle cx="187.7000" cy="96.5000" r="0.8000" /> 
<path style="fill:#4D7FC4; fill-opacity:1.0000; stroke:none;fill-rule:evenodd;"
d="M 191.0500,117.3000
191.0690,117.2043
191.1232,117.1232
191.2043,117.0690
191.3000,117.0500
194.7000,117.0500
194.7957,117.0690
194.8768,117.1232
194.9310,117.2043
194.9500,117.3000
194.9500,120.7000
194.9310,120.7957
194.8768,120.8768
194.7957,120.9310
194.7000,120.9500
191.3000,120.9500
191.2043,120.9310
191.1232,120.8768
191.0690,120.7957
191.0500,120.7000
Z" /> 
</g>
<g style="fill:#4D7FC4; fill-opacity:1.0000; stroke:none;">
<circle cx="148.2800" cy="101.5000" r="0.8000" /> 
<circle cx="155.9000" cy="101.5000" r="0.8000" /> 
</g>
<g style="fill:#4D7FC4; fill-opacity:1.0000; stroke:none;">
<circle cx="155.9200" cy="96.9000" r="0.8000" /> 
<circle cx="148.3000" cy="96.9000" r="0.8000" /> 
</g>
<g style="fill:#4D7FC4; fill-opacity:1.0000; stroke:none;">
<circle cx="185.7200" cy="119.2000" r="0.8000" /> 
<circle cx="178.1000" cy="119.2000" r="0.8000" /> 
</g>
<g style="fill:#4D7FC4; fill-opacity:1.0000; stroke:none;">
<circle cx="170.7000" cy="107.3800" r="0.8000" /> 
<circle cx="170.7000" cy="115.0000" r="0.8000" /> 
</g>
<g style="fill:#4D7FC4; fill-opacity:1.0000; stroke:none;">
<circle cx="165.8000" cy="120.8200" r="0.8000" /> 
<circle cx="165.8000" cy="113.2000" r="0.8000" /> 
</g>
<g style="fill:#4D7FC4; fill-opacity:1.0000; stroke:none;">
<circle cx="166.0000" cy="104.1200" r="0.8000" /> 
<circle cx="166.0000" cy="96.5000" r="0.8000" /> 
</g>
<g style="fill:#4D7FC4; fill-opacity:1.0000; stroke:none;">
<circle cx="161.3000" cy="120.7200" r="0.8000" /> 
<circle cx="161.3000" cy="113.1000" r="0.8000" /> 
</g>
<g style="fill:#4D7FC4; fill-opacity:1.0000; stroke:none;">
<circle cx="148.3000" cy="104.5800" r="0.8000" /> 
<circle cx="148.3000" cy="112.2000" r="0.8000" /> 
</g>
<g style="fill:#4D7FC4; fill-opacity:1.0000; stroke:none;">
<circle cx="178.2600" cy="104.8600" r="0.6000" /> 
<circle cx="180.8000" cy="107.4000" r="0.6000" /> 
</g>
<g style="fill:none; 
stroke:#4D7FC4; stroke-width:1.2000; stroke-opacity:1; 
stroke-linecap:round; stroke-linejoin:round;">
<path d="M178.2600 110.1400
L178.2600 109.7400
" />
<path style="fill:#4D7FC4; fill-opacity:1.0000; stroke:none;fill-rule:evenodd;"
d="M 155.0500,106.3500
156.5500,106.3500
156.5500,107.8500
155.0500,107.8500
Z" /> 
</g>
<g style="fill:#4D7FC4; fill-opacity:1.0000; stroke:none;">
<circle cx="155.8000" cy="112.1800" r="0.7500" /> 
</g>
<g style="fill:#4D7FC4; fill-opacity:1.0000; stroke:none;">
<circle cx="155.8000" cy="109.6400" r="0.7500" /> 
</g>
<g style="fill:#4D7FC4; fill-opacity:1.0000; stroke:none;">
<circle cx="180.6000" cy="114.9000" r="0.8000" /> 
</g>
<g style="fill:#4D7FC4; fill-opacity:1.0000; stroke:none;">
<circle cx="178.1000" cy="114.9000" r="0.8000" /> 
</g>
<g style="fill:#4D7FC4; fill-opacity:1.0000; stroke:none;">
<circle cx="178.3000" cy="94.1000" r="0.8000" /> 
</g>
<g style="fill:#4D7FC4; fill-opacity:1.0000; stroke:none;">
<circle cx="178.3000" cy="96.6000" r="0.8000" /> 
</g>
<g style="fill:#4D7FC4; fill-opacity:1.0000; stroke:none;">
<circle cx="164.0000" cy="109.6000" r="0.8000" /> 
</g>
<g style="fill:#4D7FC4; fill-opacity:1.0000; stroke:none;">
<circle cx="161.5000" cy="109.6000" r="0.8000" /> 
</g>
<g style="fill:#4D7FC4; fill-opacity:1.0000; stroke:none;">
<circle cx="161.4000" cy="93.9000" r="0.8000" /> 
</g>
<g style="fill:#4D7FC4; fill-opacity:1.0000; stroke:none;">
<circle cx="161.4000" cy="96.4000" r="0.8000" /> 
</g>
<g style="fill:none; 
stroke:#4D7FC4; stroke-width:0.8000; stroke-opacity:1; 
stroke-linecap:round; stroke-linejoin:round;">
<path d="M161.0000 96.4000
L155.9000 101.5000
" />
<path d="M161.4000 96.4000
L161.0000 96.4000
" />
<path d="M155.9000 107.0000
L155.8000 107.1000
" />
<path d="M155.9000 101.5000
L155.9000 107.0000
" />
<path d="M161.5000 96.5000
L161.4000 96.4000
" />
<path d="M187.7000 96.5000
L161.5000 96.5000
" />
<path d="M178.3000 104.8200
L178.2600 104.8600
" />
<path d="M178.3000 96.6000
L178.3000 104.8200
" />
<path d="M164.0000 111.4000
L165.8000 113.2000
" />
<path d="M164.0000 109.6000
L164.0000 111.4000
" />
<path d="M164.0000 106.1200
L166.0000 104.1200
" />
<path d="M164.0000 109.6000
L164.0000 106.1200
" />
<path d="M164.0000 109.6000
L167.9000 109.6000
" />
<path d="M170.7000 112.4000
L170.7000 115.0000
" />
<path d="M167.9000 109.6000
L170.7000 112.4000
" />
<path d="M161.4600 109.6400
L161.5000 109.6000
" />
<path d="M155.8000 109.6400
L161.4600 109.6400
" />
<path d="M161.3000 109.8000
L161.5000 109.6000
" />
<path d="M161.3000 113.1000
L161.3000 109.8000
" />
<path d="M187.7400 106.7000
L187.7000 106.6600
" />
<path d="M191.5000 106.7000
L187.7400 106.7000
" />
<path d="M180.6000 114.9000
L183.0000 114.9000
" />
<path d="M187.7000 110.2000
L187.7000 106.6600
" />
<path d="M183.0000 114.9000
L187.7000 110.2000
" />
<path d="M178.2600 119.0400
L178.1000 119.2000
" />
<path d="M178.2600 109.9400
L178.2600 119.0400
" />
<path d="M180.7800 107.3800
L180.8000 107.4000
" />
<path d="M170.7000 107.3800
L180.7800 107.3800
" />
<path d="M148.3000 96.9000
L148.3000 104.5800
" />
<path d="M155.8000 112.1800
L139.4200 112.1800
" />
<path style="fill:#4D7FC4; fill-opacity:1.0000; stroke:none;fill-rule:evenodd;"
d="M 140.4966,92.0034
140.5000,92.0115
140.5000,121.9885
140.4966,121.9966
140.4885,122.0000
99.5115,122.0000
99.5034,121.9966
99.5000,121.9885
99.5000,92.0115
99.5034,92.0034
99.5115,92.0000
140.4885,92.0000
Z" /> 
<path style="fill:#4D7FC4; fill-opacity:1.0000; stroke:none;fill-rule:evenodd;"
d="M 197.1416,92.0202
197.2708,92.0792
197.3781,92.1722
197.4549,92.2917
197.4949,92.4280
197.5000,92.4990
197.5000,121.5010
197.4798,121.6416
197.4208,121.7708
197.3278,121.8781
197.2083,121.9549
197.0720,121.9949
197.0010,122.0000
143.4990,122.0000
143.3584,121.9798
143.2292,121.9208
143.1219,121.8278
143.0451,121.7083
143.0051,121.5720
143.0000,121.5010
143.0000,114.0795
143.0202,113.9389
143.0792,113.8097
143.1722,113.7024
143.2917,113.6256
143.4280,113.5856
143.4990,113.5805
146.9747,113.5805
147.1153,113.6007
147.2445,113.6597
147.2558,113.6672
147.3972,113.7637
147.6404,113.8807
147.8982,113.9603
148.1651,114.0005
148.1651,114.0005
148.4349,114.0005
148.4349,114.0005
148.7018,113.9603
148.9596,113.8807
149.2028,113.7637
149.3442,113.6672
149.4718,113.6047
149.6118,113.5807
149.6253,113.5805
154.5928,113.5805
154.7334,113.6007
154.8625,113.6597
154.8739,113.6672
154.8963,113.6825
154.9223,113.7002
155.1587,113.8141
155.4094,113.8914
155.6688,113.9305
155.6688,113.9305
155.9312,113.9305
155.9312,113.9305
156.1906,113.8914
156.4413,113.8141
156.6777,113.7002
156.8945,113.5524
157.0868,113.3740
157.2504,113.1689
157.3816,112.9416
157.3816,112.9416
157.3816,112.9416
157.4431,112.7848
157.4774,112.6974
157.5358,112.4416
157.5554,112.1800
157.5358,111.9184
157.4774,111.6626
157.4747,111.6505
157.4631,111.5090
157.4919,111.3699
157.5587,111.2446
157.6581,111.1431
157.7820,111.0738
157.9205,111.0422
157.9612,111.0405
159.4005,111.0405
159.5411,111.0607
159.6703,111.1197
159.7776,111.2127
159.8544,111.3322
159.8944,111.4685
159.8995,111.5395
159.8995,111.7950
159.8793,111.9356
159.8203,112.0648
159.8128,112.0761
159.8082,112.0829
159.6733,112.3166
159.6733,112.3166
159.5747,112.5678
159.5451,112.6974
159.5146,112.8309
159.4945,113.1000
159.5146,113.3691
159.5176,113.3824
159.5747,113.6322
159.6733,113.8834
159.6733,113.8834
159.8082,114.1171
159.8082,114.1171
159.9764,114.3281
159.9764,114.3281
159.9764,114.3281
160.1743,114.5116
160.3972,114.6637
160.6404,114.7807
160.8982,114.8603
161.1651,114.9005
161.1651,114.9005
161.4349,114.9005
161.4349,114.9005
161.7018,114.8603
161.9596,114.7807
162.2028,114.6637
162.4257,114.5116
162.6236,114.3281
162.7918,114.1171
162.9267,113.8834
163.0253,113.6322
163.0521,113.5149
163.1031,113.3824
163.1894,113.2695
163.3039,113.1856
163.4375,113.1373
163.5793,113.1286
163.7177,113.1602
163.8417,113.2296
163.9411,113.3310
164.0079,113.4564
164.0251,113.5149
164.0392,113.5769
164.0747,113.7322
164.0747,113.7322
164.0747,113.7322
164.1733,113.9834
164.1733,113.9834
164.3082,114.2171
164.3082,114.2171
164.4764,114.4281
164.4764,114.4281
164.4764,114.4281
164.6743,114.6116
164.8972,114.7637
165.1404,114.8807
165.3982,114.9603
165.6651,115.0005
165.6651,115.0005
165.9349,115.0005
165.9349,115.0005
166.2018,114.9603
166.4596,114.8807
166.7028,114.7637
166.9257,114.6116
167.1236,114.4281
167.2918,114.2171
167.4267,113.9834
167.5253,113.7322
167.5854,113.4691
167.6055,113.2000
167.5854,112.9309
167.5253,112.6678
167.4547,112.4878
167.4221,112.3495
167.4299,112.2077
167.4772,112.0738
167.5604,111.9587
167.6726,111.8717
167.8048,111.8198
167.9463,111.8072
168.0856,111.8351
168.2114,111.9010
168.2720,111.9526
169.1533,112.8340
169.2385,112.9477
169.2881,113.0807
169.2995,113.1868
169.2995,113.6950
169.2793,113.8356
169.2203,113.9648
169.2128,113.9761
169.2082,113.9829
169.0733,114.2166
169.0733,114.2166
168.9747,114.4678
168.9300,114.6636
168.9146,114.7309
168.8945,115.0000
168.9146,115.2691
168.9146,115.2691
168.9747,115.5322
169.0733,115.7834
169.0733,115.7834
169.2082,116.0171
169.2082,116.0171
169.3764,116.2281
169.3764,116.2281
169.3764,116.2281
169.5743,116.4116
169.7972,116.5637
170.0404,116.6807
170.2982,116.7603
170.5651,116.8005
170.5651,116.8005
170.8349,116.8005
170.8349,116.8005
171.1018,116.7603
171.3596,116.6807
171.6028,116.5637
171.8257,116.4116
172.0236,116.2281
172.1918,116.0171
172.3267,115.7834
172.4253,115.5322
172.4854,115.2691
172.5055,115.0000
172.4854,114.7309
172.4253,114.4678
172.3861,114.3678
172.3267,114.2166
172.3267,114.2166
172.1918,113.9829
172.1872,113.9761
172.1832,113.9681
172.1825,113.9667
172.1826,113.9667
172.1247,113.8486
172.1007,113.7086
172.1005,113.6950
172.1005,112.5308
172.1005,112.5308
172.1005,112.2898
172.0875,112.2077
172.0660,112.0720
172.0223,111.9376
171.9979,111.8624
171.9979,111.8624
171.9979,111.8624
171.8978,111.6660
171.8978,111.6660
171.7682,111.4876
171.7682,111.4876
171.7682,111.4876
171.5998,111.3192
171.5998,111.3192
170.3130,110.0323
170.2278,109.9186
170.1782,109.7856
170.1681,109.6439
170.1983,109.5051
170.2663,109.3805
170.3668,109.2800
170.4914,109.2120
170.6302,109.1818
170.6658,109.1805
170.8349,109.1805
170.8349,109.1805
171.1018,109.1403
171.3596,109.0607
171.6028,108.9437
171.6274,108.9269
171.7149,108.8672
171.8424,108.8047
171.9824,108.7807
171.9960,108.7805
176.2073,108.7805
176.3479,108.8007
176.4770,108.8597
176.5844,108.9527
176.6612,109.0722
176.7012,109.2085
176.7012,109.3505
176.7001,109.3576
176.6595,109.6140
176.6595,110.2660
176.6989,110.5148
176.6989,110.5148
176.7768,110.7544
176.7768,110.7544
176.8051,110.8100
176.8509,110.9445
176.8595,111.0366
176.8595,113.3932
176.8393,113.5337
176.7803,113.6629
176.7506,113.7043
176.6082,113.8829
176.6082,113.8829
176.4733,114.1166
176.4733,114.1166
176.3747,114.3678
176.3418,114.5116
176.3146,114.6309
176.2945,114.9000
176.3146,115.1691
176.3146,115.1691
176.3747,115.4322
176.4733,115.6834
176.4733,115.6834
176.6082,115.9171
176.6082,115.9171
176.7506,116.0957
176.8225,116.2182
176.8569,116.3560
176.8595,116.4068
176.8595,117.6932
176.8393,117.8337
176.7803,117.9629
176.7506,118.0043
176.6082,118.1829
176.6082,118.1829
176.4733,118.4166
176.4733,118.4166
176.3747,118.6678
176.3747,118.6678
176.3146,118.9309
176.2945,119.2000
176.3146,119.4691
176.3146,119.4691
176.3747,119.7322
176.4733,119.9834
176.4733,119.9834
176.6082,120.2171
176.6082,120.2171
176.7764,120.4281
176.7764,120.4281
176.7764,120.4281
176.9743,120.6116
177.1972,120.7637
177.4404,120.8807
177.6982,120.9603
177.9651,121.0005
177.9651,121.0005
178.2349,121.0005
178.2349,121.0005
178.5018,120.9603
178.7596,120.8807
179.0028,120.7637
179.2257,120.6116
179.4236,120.4281
179.5918,120.2171
179.7267,119.9834
179.8253,119.7322
179.8854,119.4691
179.9055,119.2000
179.8854,118.9309
179.8253,118.6678
179.7267,118.4166
179.7267,118.4166
179.7186,118.3998
179.7199,118.3992
179.6746,118.2858
179.6605,118.1682
179.6605,117.1591
179.6807,117.0185
179.7397,116.8893
179.8327,116.7820
179.9522,116.7052
180.0885,116.6652
180.2305,116.6652
180.2338,116.6656
180.4651,116.7005
180.4651,116.7005
180.7349,116.7005
180.7349,116.7005
181.0018,116.6603
181.2596,116.5807
181.5028,116.4637
181.5395,116.4386
181.6149,116.3872
181.7424,116.3247
181.8824,116.3007
181.8960,116.3005
182.8692,116.3005
182.8692,116.3005
182.8898,116.3005
183.1102,116.3005
183.1102,116.3005
183.3280,116.2660
183.5376,116.1979
183.7340,116.0978
183.7747,116.0682
183.9124,115.9682
183.9124,115.9682
183.9124,115.9682
184.0967,115.7839
184.0967,115.7839
188.5839,111.2967
188.5839,111.2967
188.7682,111.1124
188.7682,111.1124
188.8978,110.9340
188.9979,110.7376
189.0660,110.5280
189.0770,110.4584
189.1005,110.3102
189.1005,110.0898
189.1005,110.0721
189.1005,110.0721
189.1005,108.5995
189.1207,108.4589
189.1797,108.3297
189.2727,108.2224
189.3922,108.1456
189.5285,108.1056
189.5995,108.1005
190.1342,108.1005
190.2748,108.1207
190.4040,108.1797
190.4157,108.1872
190.6668,108.3244
190.8576,108.3955
190.9350,108.4244
191.1951,108.4810
191.2146,108.4852
191.5000,108.5056
191.7854,108.4852
191.9062,108.4589
192.0650,108.4244
192.0838,108.4174
192.3332,108.3244
192.5843,108.1872
192.8134,108.0157
193.0157,107.8134
193.1872,107.5843
193.3244,107.3332
193.4244,107.0650
193.4852,106.7854
193.5056,106.5000
193.4852,106.2146
193.4698,106.1437
193.4244,105.9350
193.3955,105.8576
193.3244,105.6668
193.1872,105.4157
193.0794,105.2716
193.0157,105.1866
192.8134,104.9843
192.6759,104.8814
192.5843,104.8128
192.5843,104.8128
192.5843,104.8128
192.3332,104.6756
192.0650,104.5756
191.7854,104.5148
191.7854,104.5148
191.7854,104.5148
191.5000,104.4944
191.2146,104.5148
191.2146,104.5148
191.2146,104.5148
190.9350,104.5756
190.6668,104.6756
190.4157,104.8128
190.4157,104.8128
190.1866,104.9843
190.0175,105.1533
189.9038,105.2385
189.7707,105.2881
189.6647,105.2995
189.0547,105.2995
188.9141,105.2793
188.7849,105.2203
188.7736,105.2128
188.6028,105.0964
188.6028,105.0964
188.6028,105.0963
188.5102,105.0518
188.3596,104.9793
188.3596,104.9793
188.3596,104.9793
188.3596,104.9793
188.1018,104.8997
188.1018,104.8997
188.1018,104.8997
187.9958,104.8837
187.8349,104.8595
187.5651,104.8595
187.4415,104.8781
187.2982,104.8997
187.1381,104.9491
187.0404,104.9793
187.0404,104.9793
187.0403,104.9793
186.7972,105.0963
186.7972,105.0964
186.5743,105.2484
186.3764,105.4319
186.2082,105.6429
186.2082,105.6429
186.0733,105.8766
186.0733,105.8766
185.9747,106.1278
185.9210,106.3629
185.9146,106.3909
185.8945,106.6600
185.9146,106.9291
185.9146,106.9291
185.9747,107.1922
186.0733,107.4434
186.0733,107.4434
186.1546,107.5843
186.2082,107.6771
186.2082,107.6771
186.2128,107.6839
186.2168,107.6920
186.2175,107.6933
186.2174,107.6933
186.2753,107.8114
186.2993,107.9514
186.2995,107.9650
186.2995,109.4132
186.2793,109.5538
186.2203,109.6830
186.1533,109.7660
182.5660,113.3533
182.4523,113.4385
182.3193,113.4881
182.2132,113.4995
181.8960,113.4995
181.7554,113.4793
181.6262,113.4203
181.6149,113.4128
181.5028,113.3364
181.5028,113.3364
181.5028,113.3363
181.3641,113.2695
181.2596,113.2193
181.2596,113.2193
181.2596,113.2193
181.2596,113.2193
181.0018,113.1397
181.0018,113.1397
181.0018,113.1397
180.8958,113.1237
180.7349,113.0995
180.4651,113.0995
180.4115,113.1076
180.2339,113.1343
180.0918,113.1353
179.9553,113.0962
179.8353,113.0202
179.7416,112.9135
179.6817,112.7848
179.6605,112.6443
179.6605,112.6409
179.6605,111.0366
179.6807,110.8960
179.7149,110.8100
179.7407,110.7593
179.7432,110.7544
179.7816,110.6363
179.8211,110.5148
179.8211,110.5148
179.8211,110.5148
179.8393,110.3995
179.8605,110.2660
179.8605,109.6140
179.8605,109.6140
179.8467,109.5267
179.8446,109.3847
179.8827,109.2478
179.9578,109.1273
180.0638,109.0327
180.1921,108.9719
180.3324,108.9497
180.4560,108.9634
180.5345,108.9822
180.5489,108.9857
180.8000,109.0054
181.0511,108.9857
181.2961,108.9269
181.5289,108.8305
181.7437,108.6988
181.8499,108.6081
181.9352,108.5352
181.9352,108.5352
182.0988,108.3437
182.0988,108.3437
182.0988,108.3437
182.2305,108.1289
182.3269,107.8961
182.3857,107.6511
182.4054,107.4000
182.3857,107.1489
182.3269,106.9039
182.2305,106.6711
182.0988,106.4563
182.0988,106.4563
182.0988,106.4563
181.9352,106.2648
181.9352,106.2648
181.7437,106.1012
181.7437,106.1012
181.7437,106.1012
181.5289,105.9695
181.2961,105.8731
181.1847,105.8464
181.0512,105.8143
181.0512,105.8143
181.0511,105.8143
180.8000,105.7946
180.5489,105.8143
180.5488,105.8143
180.5488,105.8143
180.4153,105.8464
180.2739,105.8595
180.1345,105.8323
180.0084,105.7669
179.9059,105.6687
179.8351,105.5455
179.8020,105.4074
179.8091,105.2656
179.8136,105.2447
179.8457,105.1112
179.8457,105.1112
179.8457,105.1111
179.8654,104.8600
179.8457,104.6089
179.7869,104.3639
179.7385,104.2471
179.7034,104.1094
179.7005,104.0561
179.7005,98.3995
179.7207,98.2589
179.7797,98.1297
179.8727,98.0224
179.9922,97.9456
180.1285,97.9056
180.1995,97.9005
186.4040,97.9005
186.5446,97.9207
186.6738,97.9797
186.6851,97.9872
186.7972,98.0636
186.7972,98.0636
186.7972,98.0637
187.0404,98.1807
187.2982,98.2603
187.5651,98.3005
187.5651,98.3005
187.8349,98.3005
187.8349,98.3005
188.1018,98.2603
188.3596,98.1807
188.6028,98.0637
188.8257,97.9116
189.0236,97.7281
189.1918,97.5171
189.3267,97.2834
189.4253,97.0322
189.4854,96.7691
189.5055,96.5000
189.4854,96.2309
189.4253,95.9678
189.3267,95.7166
189.1918,95.4829
189.1121,95.3829
189.0236,95.2719
188.9668,95.2193
188.8257,95.0884
188.6028,94.9363
188.5194,94.8962
188.3596,94.8193
188.3596,94.8193
188.3596,94.8193
188.3596,94.8193
188.1018,94.7397
188.1018,94.7397
188.1018,94.7397
187.9958,94.7237
187.8349,94.6995
187.5651,94.6995
187.4415,94.7181
187.2982,94.7397
187.1381,94.7891
187.0404,94.8193
187.0404,94.8193
187.0403,94.8193
186.7972,94.9363
186.7972,94.9364
186.6851,95.0128
186.5576,95.0753
186.4176,95.0993
186.4040,95.0995
179.4459,95.0995
179.3053,95.0793
179.2203,95.0429
179.2196,95.0444
179.2028,95.0363
179.2028,95.0363
179.1305,95.0015
178.9596,94.9193
178.9596,94.9193
178.9596,94.9193
178.9596,94.9193
178.7018,94.8397
178.7018,94.8397
178.7018,94.8397
178.5958,94.8237
178.4349,94.7995
178.1651,94.7995
178.0415,94.8181
177.8982,94.8397
177.7381,94.8891
177.6404,94.9193
177.6404,94.9193
177.6403,94.9193
177.3804,95.0444
177.3794,95.0424
177.2718,95.0854
177.1541,95.0995
167.2960,95.0995
167.1554,95.0793
167.0262,95.0203
167.0149,95.0128
166.9028,94.9364
166.9028,94.9364
166.9028,94.9363
166.8194,94.8962
166.6596,94.8193
166.6596,94.8193
166.6596,94.8193
166.6596,94.8193
166.4018,94.7397
166.4018,94.7397
166.4018,94.7397
166.2958,94.7237
166.1349,94.6995
165.8651,94.6995
165.7415,94.7181
165.5982,94.7397
165.4381,94.7891
165.3404,94.8193
165.3404,94.8193
165.3403,94.8193
165.0972,94.9363
165.0972,94.9364
164.9851,95.0128
164.8576,95.0753
164.7176,95.0993
164.7040,95.0995
162.8397,95.0995
162.6991,95.0793
162.5699,95.0203
162.5286,94.9906
162.5257,94.9884
162.5257,94.9884
162.3028,94.8363
162.2194,94.7962
162.0596,94.7193
162.0596,94.7193
162.0596,94.7193
162.0596,94.7193
161.8018,94.6397
161.8018,94.6397
161.8018,94.6397
161.6958,94.6237
161.5349,94.5995
161.2651,94.5995
161.1415,94.6181
160.9982,94.6397
160.8381,94.6891
160.7404,94.7193
160.7404,94.7193
160.7403,94.7193
160.4972,94.8363
160.4972,94.8364
160.2743,94.9884
160.0764,95.1719
159.9082,95.3829
159.9082,95.3829
159.7658,95.6296
159.6865,95.7329
155.8280,99.5914
155.7143,99.6765
155.5812,99.7262
155.5495,99.7320
155.4982,99.7397
155.4982,99.7397
155.4982,99.7397
155.4982,99.7397
155.2404,99.8193
155.2404,99.8193
155.2403,99.8193
154.9972,99.9363
154.9972,99.9364
154.7743,100.0884
154.5764,100.2719
154.4082,100.4829
154.4082,100.4829
154.2733,100.7166
154.2733,100.7166
154.1747,100.9678
154.1747,100.9678
154.1146,101.2309
154.0945,101.5000
154.1146,101.7691
154.1375,101.8694
154.1747,102.0322
154.2733,102.2834
154.2733,102.2834
154.3632,102.4393
154.4082,102.5171
154.4082,102.5171
154.4128,102.5239
154.4168,102.5320
154.4175,102.5333
154.4174,102.5333
154.4753,102.6514
154.4993,102.7914
154.4995,102.8050
154.4995,105.2716
154.4793,105.4122
154.4203,105.5414
154.3533,105.6244
154.3389,105.6389
154.2103,105.7966
154.2103,105.7966
154.1161,105.9769
154.1161,105.9770
154.0660,106.1519
154.0601,106.1726
154.0495,106.2920
154.0495,106.2920
154.0495,106.2920
154.0495,107.9080
154.0530,107.9478
154.0601,108.0274
154.0810,108.1005
154.1161,108.2230
154.1161,108.2231
154.2176,108.4174
154.2648,108.5514
154.2723,108.6932
154.2396,108.8314
154.2249,108.8649
154.2184,108.8784
154.1226,109.1226
154.1226,109.1226
154.0672,109.3652
154.0642,109.3784
154.0446,109.6400
154.0642,109.9016
154.0642,109.9016
154.1253,110.1695
154.1369,110.3110
154.1081,110.4501
154.0413,110.5754
153.9419,110.6769
153.8180,110.7462
153.6795,110.7778
153.6388,110.7795
149.5667,110.7795
149.4261,110.7593
149.2969,110.7003
149.2856,110.6928
149.2028,110.6364
149.2028,110.6363
149.2028,110.6363
149.0763,110.5754
148.9596,110.5193
148.9596,110.5193
148.9596,110.5193
148.9596,110.5193
148.7018,110.4397
148.7018,110.4397
148.7018,110.4397
148.5958,110.4237
148.4349,110.3995
148.1651,110.3995
148.0415,110.4181
147.8982,110.4397
147.7424,110.4878
147.6404,110.5193
147.5237,110.5754
147.3972,110.6363
147.3144,110.6928
147.1869,110.7553
147.0469,110.7793
147.0333,110.7795
143.4990,110.7795
143.3584,110.7593
143.2292,110.7003
143.1219,110.6073
143.0451,110.4878
143.0051,110.3515
143.0000,110.2805
143.0000,101.5000
146.4745,101.5000
146.4946,101.7691
146.5175,101.8694
146.5547,102.0322
146.6533,102.2834
146.6533,102.2834
146.7882,102.5171
146.7882,102.5171
146.7906,102.5202
146.7928,102.5239
146.7987,102.5325
146.7981,102.5329
146.8625,102.6427
146.8969,102.7805
146.8995,102.8313
146.8995,103.2750
146.8793,103.4156
146.8203,103.5448
146.8128,103.5561
146.8082,103.5629
146.6733,103.7966
146.6733,103.7966
146.5747,104.0478
146.5728,104.0561
146.5146,104.3109
146.4945,104.5800
146.5146,104.8491
146.5375,104.9494
146.5747,105.1122
146.6733,105.3634
146.6733,105.3634
146.8082,105.5971
146.8082,105.5971
146.9764,105.8081
146.9764,105.8081
146.9764,105.8081
147.1743,105.9916
147.3972,106.1437
147.6404,106.2607
147.8982,106.3403
148.1651,106.3805
148.1651,106.3805
148.4349,106.3805
148.4349,106.3805
148.7018,106.3403
148.9596,106.2607
149.2028,106.1437
149.4257,105.9916
149.6236,105.8081
149.7918,105.5971
149.9267,105.3634
150.0253,105.1122
150.0854,104.8491
150.1055,104.5800
150.0854,104.3109
150.0253,104.0478
149.9826,103.9390
149.9267,103.7966
149.9267,103.7966
149.7918,103.5629
149.7872,103.5561
149.7832,103.5481
149.7825,103.5467
149.7826,103.5467
149.7247,103.4286
149.7007,103.2886
149.7005,103.2750
149.7005,102.7743
149.7207,102.6337
149.7674,102.5248
149.7718,102.5171
149.7718,102.5171
149.9067,102.2834
150.0053,102.0322
150.0654,101.7691
150.0855,101.5000
150.0654,101.2309
150.0053,100.9678
149.9067,100.7166
149.7718,100.4829
149.7674,100.4752
149.7146,100.3433
149.7005,100.2257
149.7005,98.2050
149.7207,98.0644
149.7797,97.9352
149.7872,97.9239
149.7918,97.9171
149.7918,97.9171
149.9267,97.6834
150.0253,97.4322
150.0854,97.1691
150.1055,96.9000
150.0854,96.6309
150.0253,96.3678
149.9267,96.1166
149.7918,95.8829
149.7918,95.8829
149.6236,95.6719
149.4257,95.4884
149.4177,95.4829
149.2028,95.3363
149.1194,95.2962
148.9596,95.2193
148.9596,95.2193
148.9596,95.2193
148.9596,95.2193
148.7018,95.1397
148.7018,95.1397
148.7018,95.1397
148.5958,95.1237
148.4349,95.0995
148.1651,95.0995
148.0415,95.1181
147.8982,95.1397
147.7381,95.1891
147.6404,95.2193
147.6404,95.2193
147.6403,95.2193
147.3972,95.3363
147.3972,95.3364
147.1743,95.4884
146.9764,95.6719
146.8082,95.8829
146.8082,95.8829
146.6733,96.1166
146.6733,96.1166
146.5747,96.3678
146.5747,96.3678
146.5146,96.6309
146.4945,96.9000
146.5146,97.1691
146.5146,97.1691
146.5747,97.4322
146.6733,97.6834
146.6733,97.6834
146.7797,97.8677
146.8082,97.9171
146.8082,97.9171
146.8128,97.9239
146.8168,97.9320
146.8175,97.9333
146.8174,97.9333
146.8753,98.0514
146.8993,98.1914
146.8995,98.2050
146.8995,100.1687
146.8793,100.3093
146.8203,100.4385
146.7906,100.4798
146.7882,100.4829
146.7882,100.4829
146.6533,100.7166
146.6533,100.7166
146.5547,100.9678
146.5547,100.9678
146.4946,101.2309
146.4745,101.5000
143.0000,101.5000
143.0000,92.4990
143.0202,92.3584
143.0792,92.2292
143.1722,92.1219
143.2917,92.0451
143.4280,92.0051
143.4990,92.0000
197.0010,92.0000
Z" /> 
</g>
<g style="fill:#FFFFFF; fill-opacity:1.0000; stroke:none;">
<circle cx="139.0000" cy="112.0000" r="0.5000" /> 
</g>
<g style="fill:#FFFFFF; fill-opacity:1.0000; stroke:none;">
<circle cx="191.5000" cy="106.5000" r="0.5000" /> 
</g>
<g style="fill:#FFFFFF; fill-opacity:1.0000; stroke:none;">
<circle cx="187.7000" cy="106.6600" r="0.4000" /> 
</g>
<g style="fill:#FFFFFF; fill-opacity:1.0000; stroke:none;">
<circle cx="187.7000" cy="96.5000" r="0.4000" /> 
</g>
<g style="fill:#FFFFFF; fill-opacity:1.0000; stroke:none;">
<circle cx="193.0000" cy="119.0000" r="1.2500" /> 
</g>
<g style="fill:#FFFFFF; fill-opacity:1.0000; stroke:none;">
<circle cx="148.2800" cy="101.5000" r="0.4000" /> 
</g>
<g style="fill:#FFFFFF; fill-opacity:1.0000; stroke:none;">
<circle cx="155.9000" cy="101.5000" r="0.4000" /> 
</g>
<g style="fill:#FFFFFF; fill-opacity:1.0000; stroke:none;">
<circle cx="155.9200" cy="96.9000" r="0.4000" /> 
</g>
<g style="fill:#FFFFFF; fill-opacity:1.0000; stroke:none;">
<circle cx="148.3000" cy="96.9000" r="0.4000" /> 
</g>
<g style="fill:#FFFFFF; fill-opacity:1.0000; stroke:none;">
<circle cx="185.7200" cy="119.2000" r="0.4000" /> 
</g>
<g style="fill:#FFFFFF; fill-opacity:1.0000; stroke:none;">
<circle cx="178.1000" cy="119.2000" r="0.4000" /> 
</g>
<g style="fill:#FFFFFF; fill-opacity:1.0000; stroke:none;">
<circle cx="170.7000" cy="107.3800" r="0.4000" /> 
</g>
<g style="fill:#FFFFFF; fill-opacity:1.0000; stroke:none;">
<circle cx="170.7000" cy="115.0000" r="0.4000" /> 
</g>
<g style="fill:#FFFFFF; fill-opacity:1.0000; stroke:none;">
<circle cx="165.8000" cy="120.8200" r="0.4000" /> 
</g>
<g style="fill:#FFFFFF; fill-opacity:1.0000; stroke:none;">
<circle cx="165.8000" cy="113.2000" r="0.4000" /> 
</g>
<g style="fill:#FFFFFF; fill-opacity:1.0000; stroke:none;">
<circle cx="166.0000" cy="104.1200" r="0.4000" /> 
</g>
<g style="fill:#FFFFFF; fill-opacity:1.0000; stroke:none;">
<circle cx="166.0000" cy="96.5000" r="0.4000" /> 
</g>
<g style="fill:#FFFFFF; fill-opacity:1.0000; stroke:none;">
<circle cx="161.3000" cy="120.7200" r="0.4000" /> 
</g>
<g style="fill:#FFFFFF; fill-opacity:1.0000; stroke:none;">
<circle cx="161.3000" cy="113.1000" r="0.4000" /> 
</g>
<g style="fill:#FFFFFF; fill-opacity:1.0000; stroke:none;">
<circle cx="148.3000" cy="104.5800" r="0.4000" /> 
</g>
<g style="fill:#FFFFFF; fill-opacity:1.0000; stroke:none;">
<circle cx="148.3000" cy="112.2000" r="0.4000" /> 
</g>
<g style="fill:#FFFFFF; fill-opacity:1.0000; stroke:none;">
<circle cx="178.2600" cy="104.8600" r="0.3500" /> 
</g>
<g style="fill:#FFFFFF; fill-opacity:1.0000; stroke:none;">
<circle cx="180.8000" cy="107.4000" r="0.3500" /> 
</g>
<g style="fill:#FFFFFF; fill-opacity:1.0000; stroke:none;">
<circle cx="178.2600" cy="109.9400" r="0.3500" /> 
</g>
<g style="fill:#FFFFFF; fill-opacity:1.0000; stroke:none;">
<circle cx="155.8000" cy="107.1000" r="0.4000" /> 
</g>
<g style="fill:#FFFFFF; fill-opacity:1.0000; stroke:none;">
<circle cx="155.8000" cy="112.1800" r="0.4000" /> 
</g>
<g style="fill:#FFFFFF; fill-opacity:1.0000; stroke:none;">
<circle cx="155.8000" cy="109.6400" r="0.4000" /> 
</g>
<g style="fill:#FFFFFF; fill-opacity:1.0000; stroke:none;">
<circle cx="180.6000" cy="114.9000" r="0.4000" /> 
</g>
<g style="fill:#FFFFFF; fill-opacity:1.0000; stroke:none;">
<circle cx="178.1000" cy="114.9000" r="0.4000" /> 
</g>
<g style="fill:#FFFFFF; fill-opacity:1.0000; stroke:none;">
<circle cx="178.3000" cy="94.1000" r="0.4000" /> 
</g>
<g style="fill:#FFFFFF; fill-opacity:1.0000; stroke:none;">
<circle cx="178.3000" cy="96.6000" r="0.4000" /> 
</g>
<g style="fill:#FFFFFF; fill-opacity:1.0000; stroke:none;">
<circle cx="164.0000" cy="109.6000" r="0.4000" /> 
</g>
<g style="fill:#FFFFFF; fill-opacity:1.0000; stroke:none;">
<circle cx="161.5000" cy="109.6000" r="0.4000" /> 
</g>
<g style="fill:#FFFFFF; fill-opacity:1.0000; stroke:none;">
<circle cx="161.4000" cy="93.9000" r="0.4000" /> 
</g>
<g style="fill:#FFFFFF; fill-opacity:1.0000; stroke:none;">
<circle cx="161.4000" cy="96.4000" r="0.4000" /> 
</g> 
</svg>
