%TF.GenerationSoftware,KiCad,Pcbnew,8.0.0*%
%TF.CreationDate,2024-03-20T10:39:22-03:00*%
%TF.ProjectId,miwhip,6d697768-6970-42e6-9b69-6361645f7063,rev?*%
%TF.SameCoordinates,Original*%
%TF.FileFunction,Copper,L2,Bot*%
%TF.FilePolarity,Positive*%
%FSLAX46Y46*%
G04 Gerber Fmt 4.6, Leading zero omitted, Abs format (unit mm)*
G04 Created by KiCad (PCBNEW 8.0.0) date 2024-03-20 10:39:22*
%MOMM*%
%LPD*%
G01*
G04 APERTURE LIST*
G04 Aperture macros list*
%AMRoundRect*
0 Rectangle with rounded corners*
0 $1 Rounding radius*
0 $2 $3 $4 $5 $6 $7 $8 $9 X,Y pos of 4 corners*
0 Add a 4 corners polygon primitive as box body*
4,1,4,$2,$3,$4,$5,$6,$7,$8,$9,$2,$3,0*
0 Add four circle primitives for the rounded corners*
1,1,$1+$1,$2,$3*
1,1,$1+$1,$4,$5*
1,1,$1+$1,$6,$7*
1,1,$1+$1,$8,$9*
0 Add four rect primitives between the rounded corners*
20,1,$1+$1,$2,$3,$4,$5,0*
20,1,$1+$1,$4,$5,$6,$7,0*
20,1,$1+$1,$6,$7,$8,$9,0*
20,1,$1+$1,$8,$9,$2,$3,0*%
G04 Aperture macros list end*
%TA.AperFunction,ComponentPad*%
%ADD10C,1.600000*%
%TD*%
%TA.AperFunction,ComponentPad*%
%ADD11O,1.600000X1.600000*%
%TD*%
%TA.AperFunction,ComponentPad*%
%ADD12R,1.500000X1.500000*%
%TD*%
%TA.AperFunction,ComponentPad*%
%ADD13C,1.500000*%
%TD*%
%TA.AperFunction,ComponentPad*%
%ADD14O,1.200000X1.600000*%
%TD*%
%TA.AperFunction,ComponentPad*%
%ADD15O,1.200000X1.200000*%
%TD*%
%TA.AperFunction,ComponentPad*%
%ADD16RoundRect,0.250002X-1.699998X-1.699998X1.699998X-1.699998X1.699998X1.699998X-1.699998X1.699998X0*%
%TD*%
%TA.AperFunction,ComponentPad*%
%ADD17C,2.000000*%
%TD*%
%TA.AperFunction,Conductor*%
%ADD18C,0.800000*%
%TD*%
G04 APERTURE END LIST*
D10*
%TO.P,C1,1*%
%TO.N,Net-(Q1-D)*%
X161400000Y-96400000D03*
%TO.P,C1,2*%
%TO.N,Earth*%
X161400000Y-93900000D03*
%TD*%
%TO.P,C2,1*%
%TO.N,Net-(Q1-S)*%
X161500000Y-109600000D03*
%TO.P,C2,2*%
%TO.N,Net-(C2-Pad2)*%
X164000000Y-109600000D03*
%TD*%
%TO.P,C3,1*%
%TO.N,Net-(Q1-D)*%
X178300000Y-96600000D03*
%TO.P,C3,2*%
%TO.N,Earth*%
X178300000Y-94100000D03*
%TD*%
%TO.P,C4,1*%
%TO.N,Net-(Q2-E)*%
X178100000Y-114900000D03*
%TO.P,C4,2*%
%TO.N,Net-(J2-In)*%
X180600000Y-114900000D03*
%TD*%
%TO.P,L1,1,1*%
%TO.N,Net-(Q1-D)*%
X187700000Y-96500000D03*
D11*
%TO.P,L1,2,2*%
%TO.N,Net-(J2-In)*%
X187700000Y-106660000D03*
%TD*%
D12*
%TO.P,Q1,1,D*%
%TO.N,Net-(Q1-D)*%
X155800000Y-107100000D03*
D13*
%TO.P,Q1,2,S*%
%TO.N,Net-(Q1-S)*%
X155800000Y-109640000D03*
%TO.P,Q1,3,G*%
%TO.N,Antenna*%
X155800000Y-112180000D03*
%TD*%
D14*
%TO.P,Q2,1,E*%
%TO.N,Net-(Q2-E)*%
X178260000Y-109940000D03*
D15*
%TO.P,Q2,2,B*%
%TO.N,Net-(Q2-B)*%
X180800000Y-107400000D03*
%TO.P,Q2,3,C*%
%TO.N,Net-(Q1-D)*%
X178260000Y-104860000D03*
%TD*%
D10*
%TO.P,R1,1*%
%TO.N,Net-(Q1-D)*%
X155900000Y-101500000D03*
D11*
%TO.P,R1,2*%
%TO.N,Net-(R1-Pad2)*%
X148280000Y-101500000D03*
%TD*%
D10*
%TO.P,R2,1*%
%TO.N,Antenna*%
X148300000Y-112200000D03*
D11*
%TO.P,R2,2*%
%TO.N,Net-(R1-Pad2)*%
X148300000Y-104580000D03*
%TD*%
D10*
%TO.P,R3,1*%
%TO.N,Net-(R1-Pad2)*%
X148300000Y-96900000D03*
D11*
%TO.P,R3,2*%
%TO.N,Earth*%
X155920000Y-96900000D03*
%TD*%
D10*
%TO.P,R4,1*%
%TO.N,Net-(Q1-S)*%
X161300000Y-113100000D03*
D11*
%TO.P,R4,2*%
%TO.N,Earth*%
X161300000Y-120720000D03*
%TD*%
D10*
%TO.P,R5,1*%
%TO.N,Net-(Q1-D)*%
X166000000Y-96500000D03*
D11*
%TO.P,R5,2*%
%TO.N,Net-(C2-Pad2)*%
X166000000Y-104120000D03*
%TD*%
D10*
%TO.P,R6,1*%
%TO.N,Net-(C2-Pad2)*%
X165800000Y-113200000D03*
D11*
%TO.P,R6,2*%
%TO.N,Earth*%
X165800000Y-120820000D03*
%TD*%
D10*
%TO.P,R7,1*%
%TO.N,Net-(C2-Pad2)*%
X170700000Y-115000000D03*
D11*
%TO.P,R7,2*%
%TO.N,Net-(Q2-B)*%
X170700000Y-107380000D03*
%TD*%
D10*
%TO.P,R8,1*%
%TO.N,Net-(Q2-E)*%
X178100000Y-119200000D03*
D11*
%TO.P,R8,2*%
%TO.N,Earth*%
X185720000Y-119200000D03*
%TD*%
D16*
%TO.P,J1,1,Pin_1*%
%TO.N,Earth*%
X193000000Y-119000000D03*
%TD*%
D17*
%TO.P,J3,1,In*%
%TO.N,Antenna*%
X139000000Y-112000000D03*
%TD*%
%TO.P,J2,1,In*%
%TO.N,Net-(J2-In)*%
X191500000Y-106500000D03*
%TD*%
D18*
%TO.N,Net-(Q1-D)*%
X161400000Y-96400000D02*
X161000000Y-96400000D01*
X178300000Y-96600000D02*
X178300000Y-104820000D01*
X155900000Y-107000000D02*
X155800000Y-107100000D01*
X178300000Y-104820000D02*
X178260000Y-104860000D01*
X187700000Y-96500000D02*
X161500000Y-96500000D01*
X161500000Y-96500000D02*
X161400000Y-96400000D01*
X161000000Y-96400000D02*
X155900000Y-101500000D01*
X155900000Y-101500000D02*
X155900000Y-107000000D01*
%TO.N,Net-(C2-Pad2)*%
X170700000Y-112400000D02*
X170700000Y-115000000D01*
X164000000Y-109600000D02*
X164000000Y-111400000D01*
X164000000Y-109600000D02*
X167900000Y-109600000D01*
X164000000Y-111400000D02*
X165800000Y-113200000D01*
X167900000Y-109600000D02*
X170700000Y-112400000D01*
X164000000Y-106120000D02*
X166000000Y-104120000D01*
X164000000Y-109600000D02*
X164000000Y-106120000D01*
%TO.N,Net-(Q1-S)*%
X155800000Y-109640000D02*
X161460000Y-109640000D01*
X161460000Y-109640000D02*
X161500000Y-109600000D01*
X161300000Y-113100000D02*
X161300000Y-109800000D01*
X161300000Y-109800000D02*
X161500000Y-109600000D01*
%TO.N,Net-(J2-In)*%
X180600000Y-114900000D02*
X183000000Y-114900000D01*
X191500000Y-106700000D02*
X187740000Y-106700000D01*
X187740000Y-106700000D02*
X187700000Y-106660000D01*
X187700000Y-110200000D02*
X187700000Y-106660000D01*
X183000000Y-114900000D02*
X187700000Y-110200000D01*
%TO.N,Net-(Q2-E)*%
X178260000Y-119040000D02*
X178100000Y-119200000D01*
X178260000Y-109940000D02*
X178260000Y-119040000D01*
%TO.N,Net-(Q2-B)*%
X170700000Y-107380000D02*
X180780000Y-107380000D01*
X180780000Y-107380000D02*
X180800000Y-107400000D01*
%TO.N,Net-(R1-Pad2)*%
X148300000Y-96900000D02*
X148300000Y-104580000D01*
%TO.N,Antenna*%
X155800000Y-112180000D02*
X139420000Y-112180000D01*
%TD*%
%TA.AperFunction,Conductor*%
%TO.N,Antenna*%
G36*
X140496632Y-92003368D02*
G01*
X140500000Y-92011500D01*
X140500000Y-121988500D01*
X140496632Y-121996632D01*
X140488500Y-122000000D01*
X99511500Y-122000000D01*
X99503368Y-121996632D01*
X99500000Y-121988500D01*
X99500000Y-92011500D01*
X99503368Y-92003368D01*
X99511500Y-92000000D01*
X140488500Y-92000000D01*
X140496632Y-92003368D01*
G37*
%TD.AperFunction*%
%TD*%
%TA.AperFunction,Conductor*%
%TO.N,Earth*%
G36*
X197141585Y-92020213D02*
G01*
X197270780Y-92079214D01*
X197378119Y-92172224D01*
X197454906Y-92291708D01*
X197494921Y-92427985D01*
X197500000Y-92499000D01*
X197500000Y-121501000D01*
X197479787Y-121641585D01*
X197420786Y-121770780D01*
X197327776Y-121878119D01*
X197208292Y-121954906D01*
X197072015Y-121994921D01*
X197001000Y-122000000D01*
X143499000Y-122000000D01*
X143358415Y-121979787D01*
X143229220Y-121920786D01*
X143121881Y-121827776D01*
X143045094Y-121708292D01*
X143005079Y-121572015D01*
X143000000Y-121501000D01*
X143000000Y-114079500D01*
X143020213Y-113938915D01*
X143079214Y-113809720D01*
X143172224Y-113702381D01*
X143291708Y-113625594D01*
X143427985Y-113585579D01*
X143499000Y-113580500D01*
X146974671Y-113580500D01*
X147115256Y-113600713D01*
X147244451Y-113659714D01*
X147255762Y-113667202D01*
X147397226Y-113763651D01*
X147640359Y-113880738D01*
X147898228Y-113960280D01*
X148165071Y-114000500D01*
X148165075Y-114000500D01*
X148434925Y-114000500D01*
X148434929Y-114000500D01*
X148701772Y-113960280D01*
X148959641Y-113880738D01*
X149202775Y-113763651D01*
X149344234Y-113667206D01*
X149471772Y-113604714D01*
X149611755Y-113580685D01*
X149625328Y-113580500D01*
X154592766Y-113580500D01*
X154733351Y-113600713D01*
X154862546Y-113659714D01*
X154873863Y-113667207D01*
X154896289Y-113682497D01*
X154922296Y-113700228D01*
X155158677Y-113814063D01*
X155409385Y-113891396D01*
X155668818Y-113930500D01*
X155668823Y-113930500D01*
X155931177Y-113930500D01*
X155931182Y-113930500D01*
X156190615Y-113891396D01*
X156441323Y-113814063D01*
X156677704Y-113700228D01*
X156894479Y-113552433D01*
X157086805Y-113373981D01*
X157250386Y-113168857D01*
X157381568Y-112941643D01*
X157381572Y-112941632D01*
X157381574Y-112941629D01*
X157443142Y-112784754D01*
X157477420Y-112697416D01*
X157535802Y-112441630D01*
X157555408Y-112180000D01*
X157535802Y-111918370D01*
X157477420Y-111662584D01*
X157474671Y-111650539D01*
X157463094Y-111508981D01*
X157491868Y-111369896D01*
X157558660Y-111244551D01*
X157658061Y-111143101D01*
X157782017Y-111073765D01*
X157920486Y-111042160D01*
X157961160Y-111040500D01*
X159400500Y-111040500D01*
X159541085Y-111060713D01*
X159670280Y-111119714D01*
X159777619Y-111212724D01*
X159854406Y-111332208D01*
X159894421Y-111468485D01*
X159899500Y-111539500D01*
X159899500Y-111795042D01*
X159879287Y-111935627D01*
X159820286Y-112064822D01*
X159812792Y-112076141D01*
X159808182Y-112082901D01*
X159673256Y-112316602D01*
X159673255Y-112316604D01*
X159574667Y-112567799D01*
X159545083Y-112697415D01*
X159514617Y-112830897D01*
X159494451Y-113100000D01*
X159514617Y-113369103D01*
X159517645Y-113382370D01*
X159574667Y-113632200D01*
X159673255Y-113883395D01*
X159673256Y-113883397D01*
X159808180Y-114117094D01*
X159808191Y-114117110D01*
X159976436Y-114328082D01*
X159976438Y-114328084D01*
X159976439Y-114328085D01*
X160174259Y-114511635D01*
X160397226Y-114663651D01*
X160640359Y-114780738D01*
X160898228Y-114860280D01*
X161165071Y-114900500D01*
X161165075Y-114900500D01*
X161434925Y-114900500D01*
X161434929Y-114900500D01*
X161701772Y-114860280D01*
X161959641Y-114780738D01*
X162202775Y-114663651D01*
X162425741Y-114511635D01*
X162623561Y-114328085D01*
X162791815Y-114117102D01*
X162926743Y-113883398D01*
X163025334Y-113632195D01*
X163052100Y-113514922D01*
X163103086Y-113382370D01*
X163189356Y-113269543D01*
X163303919Y-113185591D01*
X163437493Y-113137316D01*
X163579258Y-113128628D01*
X163717727Y-113160232D01*
X163841684Y-113229567D01*
X163941085Y-113331017D01*
X164007878Y-113456361D01*
X164025076Y-113514928D01*
X164039220Y-113576899D01*
X164074666Y-113732195D01*
X164074667Y-113732198D01*
X164074668Y-113732201D01*
X164173255Y-113983395D01*
X164173256Y-113983397D01*
X164308180Y-114217094D01*
X164308191Y-114217110D01*
X164476436Y-114428082D01*
X164476438Y-114428084D01*
X164476439Y-114428085D01*
X164674259Y-114611635D01*
X164897226Y-114763651D01*
X165140359Y-114880738D01*
X165398228Y-114960280D01*
X165665071Y-115000500D01*
X165665075Y-115000500D01*
X165934925Y-115000500D01*
X165934929Y-115000500D01*
X166201772Y-114960280D01*
X166459641Y-114880738D01*
X166702775Y-114763651D01*
X166925741Y-114611635D01*
X167123561Y-114428085D01*
X167291815Y-114217102D01*
X167426743Y-113983398D01*
X167525334Y-113732195D01*
X167585383Y-113469103D01*
X167605549Y-113200000D01*
X167585383Y-112930897D01*
X167525334Y-112667805D01*
X167454683Y-112487791D01*
X167422138Y-112349544D01*
X167429859Y-112207724D01*
X167477224Y-112073824D01*
X167560394Y-111958692D01*
X167672631Y-111871655D01*
X167804843Y-111819765D01*
X167946318Y-111807225D01*
X168085596Y-111835051D01*
X168211392Y-111900989D01*
X168272035Y-111952641D01*
X169153346Y-112833952D01*
X169238462Y-112947653D01*
X169288096Y-113080728D01*
X169299500Y-113186798D01*
X169299500Y-113695042D01*
X169279287Y-113835627D01*
X169220286Y-113964822D01*
X169212792Y-113976141D01*
X169208182Y-113982901D01*
X169073256Y-114216602D01*
X169073255Y-114216604D01*
X168974667Y-114467799D01*
X168929966Y-114663648D01*
X168914617Y-114730897D01*
X168894451Y-115000000D01*
X168914617Y-115269103D01*
X168914618Y-115269107D01*
X168974667Y-115532200D01*
X169073255Y-115783395D01*
X169073256Y-115783397D01*
X169208180Y-116017094D01*
X169208191Y-116017110D01*
X169376436Y-116228082D01*
X169376438Y-116228084D01*
X169376439Y-116228085D01*
X169574259Y-116411635D01*
X169797226Y-116563651D01*
X170040359Y-116680738D01*
X170298228Y-116760280D01*
X170565071Y-116800500D01*
X170565075Y-116800500D01*
X170834925Y-116800500D01*
X170834929Y-116800500D01*
X171101772Y-116760280D01*
X171359641Y-116680738D01*
X171602775Y-116563651D01*
X171825741Y-116411635D01*
X172023561Y-116228085D01*
X172191815Y-116017102D01*
X172326743Y-115783398D01*
X172425334Y-115532195D01*
X172485383Y-115269103D01*
X172505549Y-115000000D01*
X172485383Y-114730897D01*
X172425334Y-114467805D01*
X172386086Y-114367805D01*
X172326744Y-114216604D01*
X172326743Y-114216602D01*
X172191817Y-113982901D01*
X172187208Y-113976141D01*
X172183247Y-113968058D01*
X172182479Y-113966727D01*
X172182569Y-113966674D01*
X172124714Y-113848598D01*
X172100685Y-113708616D01*
X172100500Y-113695042D01*
X172100500Y-112530848D01*
X172100501Y-112530823D01*
X172100501Y-112289779D01*
X172087505Y-112207724D01*
X172066015Y-112072049D01*
X172022332Y-111937606D01*
X171997895Y-111862394D01*
X171997894Y-111862392D01*
X171997893Y-111862389D01*
X171897817Y-111665982D01*
X171897815Y-111665978D01*
X171768242Y-111487635D01*
X171768237Y-111487630D01*
X171768235Y-111487627D01*
X171599844Y-111319237D01*
X171599835Y-111319229D01*
X170312952Y-110032346D01*
X170227836Y-109918645D01*
X170178202Y-109785570D01*
X170168069Y-109643902D01*
X170198260Y-109505117D01*
X170266328Y-109380460D01*
X170366758Y-109280030D01*
X170491415Y-109211962D01*
X170630200Y-109181771D01*
X170665798Y-109180500D01*
X170834925Y-109180500D01*
X170834929Y-109180500D01*
X171101772Y-109140280D01*
X171359641Y-109060738D01*
X171602775Y-108943651D01*
X171627385Y-108926872D01*
X171714899Y-108867207D01*
X171842441Y-108804713D01*
X171982424Y-108780685D01*
X171995995Y-108780500D01*
X176207266Y-108780500D01*
X176347851Y-108800713D01*
X176477046Y-108859714D01*
X176584385Y-108952724D01*
X176661172Y-109072208D01*
X176701187Y-109208485D01*
X176701187Y-109350515D01*
X176700122Y-109357561D01*
X176659500Y-109614037D01*
X176659500Y-110265962D01*
X176698908Y-110514779D01*
X176698912Y-110514795D01*
X176776756Y-110754373D01*
X176776758Y-110754378D01*
X176805111Y-110810022D01*
X176850926Y-110944460D01*
X176859500Y-111036566D01*
X176859500Y-113393152D01*
X176839287Y-113533737D01*
X176780286Y-113662932D01*
X176750633Y-113704274D01*
X176608191Y-113882889D01*
X176608180Y-113882905D01*
X176473256Y-114116602D01*
X176473255Y-114116604D01*
X176374667Y-114367799D01*
X176341838Y-114511633D01*
X176314617Y-114630897D01*
X176294451Y-114900000D01*
X176314617Y-115169103D01*
X176314618Y-115169107D01*
X176374667Y-115432200D01*
X176473255Y-115683395D01*
X176473256Y-115683397D01*
X176608180Y-115917094D01*
X176608191Y-115917110D01*
X176750633Y-116095726D01*
X176822483Y-116218242D01*
X176856906Y-116356037D01*
X176859500Y-116406848D01*
X176859500Y-117693152D01*
X176839287Y-117833737D01*
X176780286Y-117962932D01*
X176750633Y-118004274D01*
X176608191Y-118182889D01*
X176608180Y-118182905D01*
X176473256Y-118416602D01*
X176473255Y-118416604D01*
X176374667Y-118667799D01*
X176374666Y-118667805D01*
X176314617Y-118930897D01*
X176294451Y-119200000D01*
X176314617Y-119469103D01*
X176314618Y-119469107D01*
X176374667Y-119732200D01*
X176473255Y-119983395D01*
X176473256Y-119983397D01*
X176608180Y-120217094D01*
X176608191Y-120217110D01*
X176776436Y-120428082D01*
X176776438Y-120428084D01*
X176776439Y-120428085D01*
X176974259Y-120611635D01*
X177197226Y-120763651D01*
X177440359Y-120880738D01*
X177698228Y-120960280D01*
X177965071Y-121000500D01*
X177965075Y-121000500D01*
X178234925Y-121000500D01*
X178234929Y-121000500D01*
X178501772Y-120960280D01*
X178759641Y-120880738D01*
X179002775Y-120763651D01*
X179225741Y-120611635D01*
X179423561Y-120428085D01*
X179591815Y-120217102D01*
X179726743Y-119983398D01*
X179825334Y-119732195D01*
X179885383Y-119469103D01*
X179905549Y-119200000D01*
X179885383Y-118930897D01*
X179825334Y-118667805D01*
X179726743Y-118416602D01*
X179726739Y-118416596D01*
X179718642Y-118399781D01*
X179719943Y-118399154D01*
X179674562Y-118285787D01*
X179660500Y-118168159D01*
X179660500Y-117159079D01*
X179680713Y-117018494D01*
X179739714Y-116889299D01*
X179832724Y-116781960D01*
X179952208Y-116705173D01*
X180088485Y-116665158D01*
X180230515Y-116665158D01*
X180233785Y-116665639D01*
X180465071Y-116700500D01*
X180465075Y-116700500D01*
X180734925Y-116700500D01*
X180734929Y-116700500D01*
X181001772Y-116660280D01*
X181259641Y-116580738D01*
X181502775Y-116463651D01*
X181539502Y-116438611D01*
X181614899Y-116387207D01*
X181742441Y-116324713D01*
X181882424Y-116300685D01*
X181895995Y-116300500D01*
X182869152Y-116300500D01*
X182869176Y-116300501D01*
X182889778Y-116300501D01*
X183110221Y-116300501D01*
X183110222Y-116300501D01*
X183327951Y-116266015D01*
X183537606Y-116197895D01*
X183734022Y-116097815D01*
X183774726Y-116068242D01*
X183912365Y-115968242D01*
X183912369Y-115968237D01*
X183912372Y-115968236D01*
X184096676Y-115783931D01*
X184096687Y-115783917D01*
X188583917Y-111296687D01*
X188583931Y-111296676D01*
X188768235Y-111112372D01*
X188768242Y-111112365D01*
X188897815Y-110934022D01*
X188997895Y-110737606D01*
X189066015Y-110527951D01*
X189077029Y-110458412D01*
X189100501Y-110310222D01*
X189100501Y-110089778D01*
X189100501Y-110072084D01*
X189100500Y-110072054D01*
X189100500Y-108599500D01*
X189120713Y-108458915D01*
X189179714Y-108329720D01*
X189272724Y-108222381D01*
X189392208Y-108145594D01*
X189528485Y-108105579D01*
X189599500Y-108100500D01*
X190134217Y-108100500D01*
X190274802Y-108120713D01*
X190403995Y-108179713D01*
X190415685Y-108187226D01*
X190666839Y-108324367D01*
X190857648Y-108395535D01*
X190934956Y-108424370D01*
X191195138Y-108480968D01*
X191214572Y-108485196D01*
X191500000Y-108505610D01*
X191785428Y-108485196D01*
X191906240Y-108458915D01*
X192065043Y-108424370D01*
X192083760Y-108417389D01*
X192333161Y-108324367D01*
X192584315Y-108187226D01*
X192813395Y-108015739D01*
X193015739Y-107813395D01*
X193187226Y-107584315D01*
X193324367Y-107333161D01*
X193424369Y-107065046D01*
X193485196Y-106785428D01*
X193505610Y-106500000D01*
X193485196Y-106214572D01*
X193469768Y-106143651D01*
X193424370Y-105934956D01*
X193395535Y-105857648D01*
X193324367Y-105666839D01*
X193187226Y-105415685D01*
X193079357Y-105271589D01*
X193015741Y-105186607D01*
X192813392Y-104984258D01*
X192675947Y-104881368D01*
X192584315Y-104812774D01*
X192584313Y-104812773D01*
X192584312Y-104812772D01*
X192333161Y-104675633D01*
X192065043Y-104575629D01*
X191785436Y-104514805D01*
X191785430Y-104514804D01*
X191785428Y-104514804D01*
X191500000Y-104494390D01*
X191214572Y-104514804D01*
X191214569Y-104514804D01*
X191214563Y-104514805D01*
X190934956Y-104575629D01*
X190666838Y-104675633D01*
X190415687Y-104812772D01*
X190415682Y-104812776D01*
X190186607Y-104984258D01*
X190017520Y-105153346D01*
X189903819Y-105238462D01*
X189770744Y-105288096D01*
X189664674Y-105299500D01*
X189054664Y-105299500D01*
X188914079Y-105279287D01*
X188784884Y-105220286D01*
X188773567Y-105212793D01*
X188602781Y-105096353D01*
X188602780Y-105096352D01*
X188602775Y-105096349D01*
X188510181Y-105051758D01*
X188359649Y-104979265D01*
X188359646Y-104979264D01*
X188359643Y-104979263D01*
X188359641Y-104979262D01*
X188101772Y-104899720D01*
X188101770Y-104899719D01*
X188101768Y-104899719D01*
X187995805Y-104883748D01*
X187834929Y-104859500D01*
X187565071Y-104859500D01*
X187441458Y-104878131D01*
X187298230Y-104899719D01*
X187138104Y-104949111D01*
X187040359Y-104979262D01*
X187040355Y-104979263D01*
X187040349Y-104979266D01*
X186797233Y-105096345D01*
X186797222Y-105096351D01*
X186574257Y-105248366D01*
X186376436Y-105431917D01*
X186208191Y-105642889D01*
X186208180Y-105642905D01*
X186073256Y-105876602D01*
X186073255Y-105876604D01*
X185974667Y-106127799D01*
X185921006Y-106362905D01*
X185914617Y-106390897D01*
X185894451Y-106660000D01*
X185914617Y-106929103D01*
X185914618Y-106929107D01*
X185974667Y-107192200D01*
X186073255Y-107443395D01*
X186073258Y-107443401D01*
X186154613Y-107584312D01*
X186208185Y-107677102D01*
X186208192Y-107677111D01*
X186212795Y-107683862D01*
X186216758Y-107691951D01*
X186217521Y-107693272D01*
X186217431Y-107693323D01*
X186275287Y-107811405D01*
X186299315Y-107951388D01*
X186299500Y-107964957D01*
X186299500Y-109413202D01*
X186279287Y-109553787D01*
X186220286Y-109682982D01*
X186153346Y-109766048D01*
X182566048Y-113353346D01*
X182452347Y-113438462D01*
X182319272Y-113488096D01*
X182213202Y-113499500D01*
X181895995Y-113499500D01*
X181755410Y-113479287D01*
X181626215Y-113420286D01*
X181614899Y-113412793D01*
X181502788Y-113336357D01*
X181502780Y-113336352D01*
X181502775Y-113336349D01*
X181364051Y-113269543D01*
X181259649Y-113219265D01*
X181259646Y-113219264D01*
X181259643Y-113219263D01*
X181259641Y-113219262D01*
X181001772Y-113139720D01*
X181001770Y-113139719D01*
X181001768Y-113139719D01*
X180895805Y-113123748D01*
X180734929Y-113099500D01*
X180465071Y-113099500D01*
X180411454Y-113107581D01*
X180233869Y-113134347D01*
X180091842Y-113135312D01*
X179955297Y-113096224D01*
X179835294Y-113020250D01*
X179741557Y-112913546D01*
X179681679Y-112784754D01*
X179660512Y-112644310D01*
X179660500Y-112640920D01*
X179660500Y-111036566D01*
X179680713Y-110895981D01*
X179714889Y-110810022D01*
X179740740Y-110759287D01*
X179743241Y-110754379D01*
X179781591Y-110636350D01*
X179821087Y-110514795D01*
X179821087Y-110514791D01*
X179821090Y-110514785D01*
X179839350Y-110399500D01*
X179860500Y-110265962D01*
X179860500Y-109614042D01*
X179860500Y-109614038D01*
X179846660Y-109526661D01*
X179844632Y-109384655D01*
X179882695Y-109247820D01*
X179957768Y-109127252D01*
X180063767Y-109032718D01*
X180192106Y-108971876D01*
X180332388Y-108949657D01*
X180456005Y-108963393D01*
X180534543Y-108982247D01*
X180548852Y-108985683D01*
X180800000Y-109005449D01*
X181051148Y-108985683D01*
X181296111Y-108926873D01*
X181528859Y-108830466D01*
X181743659Y-108698836D01*
X181849915Y-108608085D01*
X181935222Y-108535226D01*
X181935226Y-108535222D01*
X182098830Y-108343666D01*
X182098829Y-108343666D01*
X182098836Y-108343659D01*
X182230466Y-108128859D01*
X182326873Y-107896111D01*
X182385683Y-107651148D01*
X182405449Y-107400000D01*
X182385683Y-107148852D01*
X182326873Y-106903889D01*
X182230466Y-106671141D01*
X182098836Y-106456341D01*
X182098832Y-106456337D01*
X182098830Y-106456333D01*
X181935226Y-106264777D01*
X181935222Y-106264773D01*
X181743666Y-106101169D01*
X181743660Y-106101165D01*
X181743659Y-106101164D01*
X181528859Y-105969534D01*
X181296111Y-105873127D01*
X181184668Y-105846372D01*
X181051153Y-105814318D01*
X181051151Y-105814317D01*
X181051148Y-105814317D01*
X180800000Y-105794551D01*
X180548852Y-105814317D01*
X180548850Y-105814317D01*
X180548842Y-105814318D01*
X180415327Y-105846372D01*
X180273908Y-105859536D01*
X180134509Y-105832324D01*
X180008423Y-105766941D01*
X179905865Y-105668684D01*
X179835143Y-105545513D01*
X179801988Y-105407407D01*
X179809084Y-105265554D01*
X179813628Y-105244669D01*
X179845681Y-105111157D01*
X179845681Y-105111156D01*
X179845683Y-105111148D01*
X179865449Y-104860000D01*
X179845683Y-104608852D01*
X179786873Y-104363889D01*
X179738484Y-104247066D01*
X179703359Y-104109448D01*
X179700500Y-104056108D01*
X179700500Y-98399500D01*
X179720713Y-98258915D01*
X179779714Y-98129720D01*
X179872724Y-98022381D01*
X179992208Y-97945594D01*
X180128485Y-97905579D01*
X180199500Y-97900500D01*
X186404006Y-97900500D01*
X186544591Y-97920713D01*
X186673786Y-97979714D01*
X186685102Y-97987207D01*
X186797212Y-98063642D01*
X186797216Y-98063644D01*
X186797226Y-98063651D01*
X187040359Y-98180738D01*
X187298228Y-98260280D01*
X187565071Y-98300500D01*
X187565075Y-98300500D01*
X187834925Y-98300500D01*
X187834929Y-98300500D01*
X188101772Y-98260280D01*
X188359641Y-98180738D01*
X188602775Y-98063651D01*
X188825741Y-97911635D01*
X189023561Y-97728085D01*
X189191815Y-97517102D01*
X189326743Y-97283398D01*
X189425334Y-97032195D01*
X189485383Y-96769103D01*
X189505549Y-96500000D01*
X189485383Y-96230897D01*
X189425334Y-95967805D01*
X189326743Y-95716602D01*
X189191815Y-95482898D01*
X189112077Y-95382910D01*
X189023563Y-95271917D01*
X188966814Y-95219262D01*
X188825741Y-95088365D01*
X188602775Y-94936349D01*
X188519428Y-94896211D01*
X188359649Y-94819265D01*
X188359646Y-94819264D01*
X188359643Y-94819263D01*
X188359641Y-94819262D01*
X188101772Y-94739720D01*
X188101770Y-94739719D01*
X188101768Y-94739719D01*
X187995805Y-94723748D01*
X187834929Y-94699500D01*
X187565071Y-94699500D01*
X187441458Y-94718131D01*
X187298230Y-94739719D01*
X187138104Y-94789111D01*
X187040359Y-94819262D01*
X187040355Y-94819263D01*
X187040349Y-94819266D01*
X186797233Y-94936345D01*
X186797212Y-94936357D01*
X186685102Y-95012793D01*
X186557560Y-95075287D01*
X186417577Y-95099315D01*
X186404006Y-95099500D01*
X179445862Y-95099500D01*
X179305277Y-95079287D01*
X179220335Y-95042913D01*
X179219596Y-95044450D01*
X179202776Y-95036350D01*
X179202775Y-95036349D01*
X179130496Y-95001541D01*
X178959649Y-94919265D01*
X178959646Y-94919264D01*
X178959643Y-94919263D01*
X178959641Y-94919262D01*
X178701772Y-94839720D01*
X178701770Y-94839719D01*
X178701768Y-94839719D01*
X178595805Y-94823748D01*
X178434929Y-94799500D01*
X178165071Y-94799500D01*
X178041458Y-94818131D01*
X177898230Y-94839719D01*
X177738104Y-94889111D01*
X177640359Y-94919262D01*
X177640355Y-94919263D01*
X177640349Y-94919266D01*
X177380404Y-95044450D01*
X177379394Y-95042353D01*
X177271775Y-95085436D01*
X177154139Y-95099500D01*
X167295995Y-95099500D01*
X167155410Y-95079287D01*
X167026215Y-95020286D01*
X167014899Y-95012793D01*
X166902788Y-94936357D01*
X166902780Y-94936352D01*
X166902775Y-94936349D01*
X166819428Y-94896211D01*
X166659649Y-94819265D01*
X166659646Y-94819264D01*
X166659643Y-94819263D01*
X166659641Y-94819262D01*
X166401772Y-94739720D01*
X166401770Y-94739719D01*
X166401768Y-94739719D01*
X166295805Y-94723748D01*
X166134929Y-94699500D01*
X165865071Y-94699500D01*
X165741458Y-94718131D01*
X165598230Y-94739719D01*
X165438104Y-94789111D01*
X165340359Y-94819262D01*
X165340355Y-94819263D01*
X165340349Y-94819266D01*
X165097233Y-94936345D01*
X165097212Y-94936357D01*
X164985102Y-95012793D01*
X164857560Y-95075287D01*
X164717577Y-95099315D01*
X164704006Y-95099500D01*
X162839707Y-95099500D01*
X162699122Y-95079287D01*
X162569927Y-95020286D01*
X162528579Y-94990629D01*
X162525747Y-94988370D01*
X162525741Y-94988365D01*
X162302775Y-94836349D01*
X162219428Y-94796211D01*
X162059649Y-94719265D01*
X162059646Y-94719264D01*
X162059643Y-94719263D01*
X162059641Y-94719262D01*
X161801772Y-94639720D01*
X161801770Y-94639719D01*
X161801768Y-94639719D01*
X161695805Y-94623748D01*
X161534929Y-94599500D01*
X161265071Y-94599500D01*
X161141458Y-94618131D01*
X160998230Y-94639719D01*
X160838104Y-94689111D01*
X160740359Y-94719262D01*
X160740355Y-94719263D01*
X160740349Y-94719266D01*
X160497233Y-94836345D01*
X160497222Y-94836351D01*
X160274257Y-94988366D01*
X160076436Y-95171917D01*
X159908191Y-95382889D01*
X159908177Y-95382910D01*
X159765759Y-95629587D01*
X159686458Y-95732934D01*
X155827983Y-99591409D01*
X155714282Y-99676525D01*
X155581207Y-99726159D01*
X155549513Y-99731989D01*
X155498237Y-99739718D01*
X155498232Y-99739719D01*
X155498229Y-99739719D01*
X155498228Y-99739720D01*
X155240359Y-99819262D01*
X155240355Y-99819263D01*
X155240349Y-99819266D01*
X154997233Y-99936345D01*
X154997222Y-99936351D01*
X154774257Y-100088366D01*
X154576436Y-100271917D01*
X154408191Y-100482889D01*
X154408180Y-100482905D01*
X154273256Y-100716602D01*
X154273255Y-100716604D01*
X154174667Y-100967799D01*
X154174666Y-100967805D01*
X154114617Y-101230897D01*
X154094451Y-101500000D01*
X154114617Y-101769103D01*
X154137514Y-101869421D01*
X154174667Y-102032200D01*
X154273255Y-102283395D01*
X154273258Y-102283401D01*
X154363246Y-102439265D01*
X154408185Y-102517102D01*
X154408192Y-102517111D01*
X154412795Y-102523862D01*
X154416758Y-102531951D01*
X154417521Y-102533272D01*
X154417431Y-102533323D01*
X154475287Y-102651405D01*
X154499315Y-102791388D01*
X154499500Y-102804957D01*
X154499500Y-105271589D01*
X154479287Y-105412174D01*
X154420286Y-105541369D01*
X154353346Y-105624435D01*
X154338889Y-105638891D01*
X154210304Y-105796589D01*
X154210302Y-105796592D01*
X154116095Y-105976942D01*
X154116090Y-105976953D01*
X154066027Y-106151917D01*
X154060114Y-106172582D01*
X154049500Y-106291963D01*
X154049500Y-106291969D01*
X154049500Y-106291970D01*
X154049500Y-107908030D01*
X154053035Y-107947792D01*
X154060114Y-108027418D01*
X154081025Y-108100500D01*
X154116090Y-108223046D01*
X154116094Y-108223057D01*
X154217606Y-108417389D01*
X154264781Y-108551356D01*
X154272301Y-108693187D01*
X154239559Y-108831391D01*
X154224895Y-108864937D01*
X154218426Y-108878368D01*
X154122582Y-109122577D01*
X154122580Y-109122584D01*
X154067201Y-109365215D01*
X154064198Y-109378370D01*
X154044592Y-109640000D01*
X154064198Y-109901630D01*
X154064199Y-109901634D01*
X154125329Y-110169461D01*
X154136906Y-110311019D01*
X154108132Y-110450104D01*
X154041340Y-110575449D01*
X153941939Y-110676899D01*
X153817983Y-110746235D01*
X153679514Y-110777840D01*
X153638840Y-110779500D01*
X149566660Y-110779500D01*
X149426075Y-110759287D01*
X149296880Y-110700286D01*
X149285563Y-110692793D01*
X149202781Y-110636353D01*
X149202776Y-110636350D01*
X149202775Y-110636349D01*
X149076315Y-110575449D01*
X148959649Y-110519265D01*
X148959646Y-110519264D01*
X148959643Y-110519263D01*
X148959641Y-110519262D01*
X148701772Y-110439720D01*
X148701770Y-110439719D01*
X148701768Y-110439719D01*
X148595805Y-110423748D01*
X148434929Y-110399500D01*
X148165071Y-110399500D01*
X148041458Y-110418131D01*
X147898230Y-110439719D01*
X147742382Y-110487792D01*
X147640359Y-110519262D01*
X147523686Y-110575449D01*
X147397223Y-110636350D01*
X147314438Y-110692793D01*
X147186895Y-110755286D01*
X147046913Y-110779315D01*
X147033341Y-110779500D01*
X143499000Y-110779500D01*
X143358415Y-110759287D01*
X143229220Y-110700286D01*
X143121881Y-110607276D01*
X143045094Y-110487792D01*
X143005079Y-110351515D01*
X143000000Y-110280500D01*
X143000000Y-101500000D01*
X146474451Y-101500000D01*
X146494617Y-101769103D01*
X146517514Y-101869421D01*
X146554667Y-102032200D01*
X146653255Y-102283395D01*
X146653256Y-102283397D01*
X146788180Y-102517094D01*
X146788185Y-102517102D01*
X146790631Y-102520169D01*
X146792810Y-102523885D01*
X146798701Y-102532525D01*
X146798112Y-102532926D01*
X146862482Y-102642685D01*
X146896906Y-102780480D01*
X146899500Y-102831294D01*
X146899500Y-103275042D01*
X146879287Y-103415627D01*
X146820286Y-103544822D01*
X146812792Y-103556141D01*
X146808182Y-103562901D01*
X146673256Y-103796602D01*
X146673255Y-103796604D01*
X146574667Y-104047799D01*
X146572771Y-104056108D01*
X146514617Y-104310897D01*
X146494451Y-104580000D01*
X146514617Y-104849103D01*
X146537514Y-104949421D01*
X146574667Y-105112200D01*
X146673255Y-105363395D01*
X146673256Y-105363397D01*
X146808180Y-105597094D01*
X146808191Y-105597110D01*
X146976436Y-105808082D01*
X146976438Y-105808084D01*
X146976439Y-105808085D01*
X147174259Y-105991635D01*
X147397226Y-106143651D01*
X147640359Y-106260738D01*
X147898228Y-106340280D01*
X148165071Y-106380500D01*
X148165075Y-106380500D01*
X148434925Y-106380500D01*
X148434929Y-106380500D01*
X148701772Y-106340280D01*
X148959641Y-106260738D01*
X149202775Y-106143651D01*
X149425741Y-105991635D01*
X149623561Y-105808085D01*
X149791815Y-105597102D01*
X149926743Y-105363398D01*
X150025334Y-105112195D01*
X150085383Y-104849103D01*
X150105549Y-104580000D01*
X150085383Y-104310897D01*
X150025334Y-104047805D01*
X149982644Y-103939035D01*
X149926744Y-103796604D01*
X149926743Y-103796602D01*
X149791817Y-103562901D01*
X149787208Y-103556141D01*
X149783247Y-103548058D01*
X149782479Y-103546727D01*
X149782569Y-103546674D01*
X149724714Y-103428598D01*
X149700685Y-103288616D01*
X149700500Y-103275042D01*
X149700500Y-102774328D01*
X149720713Y-102633743D01*
X149767353Y-102524828D01*
X149771809Y-102517108D01*
X149771815Y-102517102D01*
X149906743Y-102283398D01*
X150005334Y-102032195D01*
X150065383Y-101769103D01*
X150085549Y-101500000D01*
X150065383Y-101230897D01*
X150005334Y-100967805D01*
X149906743Y-100716602D01*
X149771815Y-100482898D01*
X149767352Y-100475167D01*
X149714565Y-100343310D01*
X149700500Y-100225669D01*
X149700500Y-98204957D01*
X149720713Y-98064372D01*
X149779714Y-97935177D01*
X149787205Y-97923862D01*
X149791800Y-97917120D01*
X149791815Y-97917102D01*
X149926743Y-97683398D01*
X150025334Y-97432195D01*
X150085383Y-97169103D01*
X150105549Y-96900000D01*
X150085383Y-96630897D01*
X150025334Y-96367805D01*
X149926743Y-96116602D01*
X149791815Y-95882898D01*
X149791808Y-95882889D01*
X149623563Y-95671917D01*
X149425742Y-95488366D01*
X149417732Y-95482905D01*
X149202775Y-95336349D01*
X149119428Y-95296211D01*
X148959649Y-95219265D01*
X148959646Y-95219264D01*
X148959643Y-95219263D01*
X148959641Y-95219262D01*
X148701772Y-95139720D01*
X148701770Y-95139719D01*
X148701768Y-95139719D01*
X148595805Y-95123748D01*
X148434929Y-95099500D01*
X148165071Y-95099500D01*
X148041458Y-95118131D01*
X147898230Y-95139719D01*
X147738104Y-95189111D01*
X147640359Y-95219262D01*
X147640355Y-95219263D01*
X147640349Y-95219266D01*
X147397233Y-95336345D01*
X147397222Y-95336351D01*
X147174257Y-95488366D01*
X146976436Y-95671917D01*
X146808191Y-95882889D01*
X146808180Y-95882905D01*
X146673256Y-96116602D01*
X146673255Y-96116604D01*
X146574667Y-96367799D01*
X146574666Y-96367805D01*
X146514617Y-96630897D01*
X146494451Y-96900000D01*
X146514617Y-97169103D01*
X146514618Y-97169107D01*
X146574667Y-97432200D01*
X146673255Y-97683395D01*
X146673258Y-97683401D01*
X146779671Y-97867715D01*
X146808185Y-97917102D01*
X146808192Y-97917111D01*
X146812795Y-97923862D01*
X146816758Y-97931951D01*
X146817521Y-97933272D01*
X146817431Y-97933323D01*
X146875287Y-98051405D01*
X146899315Y-98191388D01*
X146899500Y-98204957D01*
X146899500Y-100168705D01*
X146879287Y-100309290D01*
X146820286Y-100438485D01*
X146790638Y-100479822D01*
X146788187Y-100482895D01*
X146788181Y-100482903D01*
X146653256Y-100716602D01*
X146653255Y-100716604D01*
X146554667Y-100967799D01*
X146554666Y-100967805D01*
X146494617Y-101230897D01*
X146474451Y-101500000D01*
X143000000Y-101500000D01*
X143000000Y-92499000D01*
X143020213Y-92358415D01*
X143079214Y-92229220D01*
X143172224Y-92121881D01*
X143291708Y-92045094D01*
X143427985Y-92005079D01*
X143499000Y-92000000D01*
X197001000Y-92000000D01*
X197141585Y-92020213D01*
G37*
%TD.AperFunction*%
%TD*%
M02*
